<svg width="35" height="35" viewBox="0 0 35 35" fill="none" xmlns="http://www.w3.org/2000/svg">
<rect x="0.75" y="0.75" width="33.5" height="33.5" rx="16.75" fill="#F0FBFB" stroke="white" stroke-width="1.5"/>
<path d="M12.2059 20.8693V13.9886H13.767V20.8693H12.2059ZM9.54608 18.2095V16.6484H16.4268V18.2095H9.54608ZM22.1615 22.6392C21.4456 22.6392 20.8092 22.5166 20.2524 22.2713C19.6989 22.026 19.2614 21.6847 18.9399 21.2472C18.6184 20.8097 18.4477 20.3042 18.4278 19.7308H20.2971C20.3137 20.0059 20.4049 20.2462 20.5706 20.4517C20.7363 20.6539 20.9567 20.8113 21.2318 20.924C21.5069 21.0367 21.8151 21.093 22.1565 21.093C22.5211 21.093 22.8443 21.0301 23.126 20.9041C23.4077 20.7749 23.6281 20.5959 23.7872 20.3672C23.9463 20.1385 24.0242 19.875 24.0209 19.5767C24.0242 19.2685 23.9446 18.9967 23.7822 18.7614C23.6198 18.526 23.3845 18.3421 23.0763 18.2095C22.7713 18.0769 22.4034 18.0107 21.9726 18.0107H21.0727V16.5888H21.9726C22.3272 16.5888 22.6371 16.5275 22.9023 16.4048C23.1707 16.2822 23.3812 16.1098 23.5336 15.8878C23.6861 15.6624 23.7607 15.4022 23.7574 15.1072C23.7607 14.8189 23.6961 14.5687 23.5635 14.3565C23.4342 14.1411 23.2503 13.9737 23.0116 13.8544C22.7763 13.7351 22.4996 13.6754 22.1814 13.6754C21.8698 13.6754 21.5815 13.7318 21.3163 13.8445C21.0512 13.9571 20.8374 14.1179 20.675 14.3267C20.5126 14.5322 20.4264 14.7775 20.4165 15.0625H18.6416C18.6549 14.4924 18.8189 13.992 19.1338 13.5611C19.452 13.1269 19.8762 12.7888 20.4065 12.5469C20.9368 12.3016 21.5318 12.179 22.1913 12.179C22.8708 12.179 23.4607 12.3066 23.9612 12.5618C24.465 12.8137 24.8544 13.1534 25.1295 13.581C25.4046 14.0085 25.5422 14.4808 25.5422 14.9979C25.5455 15.5713 25.3765 16.0518 25.0351 16.4396C24.697 16.8274 24.2529 17.081 23.7027 17.2003V17.2798C24.4186 17.3793 24.9671 17.6444 25.3483 18.0753C25.7327 18.5028 25.9233 19.0348 25.92 19.6712C25.92 20.2412 25.7576 20.7517 25.4328 21.2024C25.1113 21.6499 24.6672 22.0012 24.1004 22.2564C23.537 22.5116 22.8907 22.6392 22.1615 22.6392Z" fill="#101928"/>
</svg>
