<svg width="12" height="12" viewBox="0 0 12 12" fill="none" xmlns="http://www.w3.org/2000/svg">
<g clip-path="url(#clip0_11555_8532)">
<path d="M8.37749 1H3.62251C3.04307 1 2.75335 1 2.51969 1.0813C2.07661 1.23548 1.72874 1.59359 1.57898 2.04973C1.5 2.29027 1.5 2.58853 1.5 3.18503V10.1871C1.5 10.6162 1.9925 10.8439 2.30405 10.5588C2.48709 10.3913 2.76291 10.3913 2.94595 10.5588L3.1875 10.7798C3.50829 11.0734 3.99171 11.0734 4.3125 10.7798C4.63329 10.4863 5.11671 10.4863 5.4375 10.7798C5.75829 11.0734 6.24171 11.0734 6.5625 10.7798C6.88329 10.4863 7.36671 10.4863 7.6875 10.7798C8.00829 11.0734 8.49171 11.0734 8.8125 10.7798L9.05405 10.5588C9.23709 10.3913 9.51291 10.3913 9.69595 10.5588C10.0075 10.8439 10.5 10.6162 10.5 10.1871V3.18503C10.5 2.58853 10.5 2.29027 10.421 2.04973C10.2713 1.59359 9.92339 1.23548 9.48031 1.0813C9.24665 1 8.95693 1 8.37749 1Z" stroke="#667185" stroke-width="1.5"/>
<path d="M5.25 5.5L8.5 5.5" stroke="#667185" stroke-width="1.5" stroke-linecap="round"/>
<path d="M3.5 5.5H3.75" stroke="#667185" stroke-width="1.5" stroke-linecap="round"/>
<path d="M3.5 3.75H3.75" stroke="#667185" stroke-width="1.5" stroke-linecap="round"/>
<path d="M3.5 7.25H3.75" stroke="#667185" stroke-width="1.5" stroke-linecap="round"/>
<path d="M5.25 3.75H8.5" stroke="#667185" stroke-width="1.5" stroke-linecap="round"/>
<path d="M5.25 7.25H8.5" stroke="#667185" stroke-width="1.5" stroke-linecap="round"/>
</g>
<defs>
<clipPath id="clip0_11555_8532">
<rect width="12" height="12" fill="white"/>
</clipPath>
</defs>
</svg>
