<svg width="22" height="22" viewBox="0 0 22 22" fill="none" xmlns="http://www.w3.org/2000/svg">
<path fill-rule="evenodd" clip-rule="evenodd" d="M6.64127 1.83337H15.3587C16.421 1.83337 16.9522 1.83337 17.3806 1.98243C18.1929 2.26508 18.8306 2.92163 19.1052 3.75788C19.25 4.19888 19.25 4.74567 19.25 5.83926V18.6764C19.25 19.4631 18.3471 19.8805 17.7759 19.3578C17.4403 19.0508 16.9347 19.0508 16.5991 19.3578L16.1562 19.7631C15.5681 20.3013 14.6819 20.3013 14.0938 19.7631C13.5056 19.2249 12.6194 19.2249 12.0312 19.7631C11.4431 20.3013 10.5569 20.3013 9.96875 19.7631C9.38063 19.2249 8.49437 19.2249 7.90625 19.7631C7.31813 20.3013 6.43187 20.3013 5.84375 19.7631L5.40091 19.3578C5.06534 19.0508 4.55966 19.0508 4.22409 19.3578C3.65291 19.8805 2.75 19.4631 2.75 18.6764V5.83926C2.75 4.74567 2.75 4.19888 2.89479 3.75788C3.16936 2.92163 3.80712 2.26508 4.61944 1.98243C5.04782 1.83337 5.57897 1.83337 6.64127 1.83337ZM13.8045 7.79127C14.0574 7.50804 14.0328 7.07343 13.7496 6.82055C13.4663 6.56767 13.0317 6.59227 12.7788 6.87549L10.0179 9.96779L9.22117 9.0755C8.96828 8.79227 8.53368 8.76767 8.25045 9.02055C7.96722 9.27343 7.94262 9.70804 8.1955 9.99127L9.50502 11.4579C9.63546 11.604 9.82201 11.6875 10.0179 11.6875C10.2137 11.6875 10.4003 11.604 10.5307 11.4579L13.8045 7.79127ZM6.875 13.5209C6.4953 13.5209 6.1875 13.8287 6.1875 14.2084C6.1875 14.5881 6.4953 14.8959 6.875 14.8959H15.125C15.5047 14.8959 15.8125 14.5881 15.8125 14.2084C15.8125 13.8287 15.5047 13.5209 15.125 13.5209H6.875Z" fill="#98A2B3"/>
</svg>
