<svg width="50" height="50" viewBox="0 0 50 50" fill="none" xmlns="http://www.w3.org/2000/svg">
<path d="M45.8337 45.8334L4.16699 45.8334" stroke="#FA6115" stroke-width="1.04167" stroke-linecap="round"/>
<path d="M43.7501 45.8334V12.5001C43.7501 8.57171 43.7501 6.60752 42.5297 5.38714C41.3093 4.16675 39.3451 4.16675 35.4167 4.16675H31.2501C27.3217 4.16675 25.3575 4.16675 24.1371 5.38714C23.1547 6.36952 22.9631 7.83387 22.9258 10.4167" stroke="#FA6115" stroke-width="3.125"/>
<path d="M31.25 45.8333V18.75C31.25 14.8216 31.25 12.8574 30.0296 11.637C28.8092 10.4166 26.845 10.4166 22.9167 10.4166H14.5833C10.655 10.4166 8.69078 10.4166 7.47039 11.637C6.25 12.8574 6.25 14.8216 6.25 18.75V45.8333" stroke="#FA6115" stroke-width="3.125"/>
<path d="M18.75 45.8334V39.5834" stroke="#FA6115" stroke-width="3.125" stroke-linecap="round"/>
<path d="M12.5 16.6666H25" stroke="#FA6115" stroke-width="3.125" stroke-linecap="round"/>
<path d="M12.5 22.9166H25" stroke="#FA6115" stroke-width="3.125" stroke-linecap="round"/>
<path d="M12.5 29.1666H25" stroke="#FA6115" stroke-width="3.125" stroke-linecap="round"/>
</svg>
