<svg width="24" height="24" viewBox="0 0 24 24" fill="none" xmlns="http://www.w3.org/2000/svg">
<path d="M17.28 1.44C16.4906 1.44 15.84 2.09063 15.84 2.88C15.84 3.1125 15.9056 3.33 16.005 3.525L12.495 6.21L13.08 6.975L16.71 4.2C16.8862 4.27688 17.0775 4.32 17.28 4.32C17.3943 4.32 17.5031 4.30125 17.61 4.275L20.97 10.125C20.7637 10.3744 20.64 10.695 20.64 11.04C20.64 11.265 20.6962 11.4788 20.79 11.67L17.85 15.555L17.28 16.32H21.6C22.3893 16.32 23.04 15.6694 23.04 14.88V12.105C23.3325 11.8406 23.52 11.4619 23.52 11.04C23.52 10.2506 22.8693 9.6 22.08 9.6C21.9806 9.6 21.8887 9.61125 21.795 9.63L18.42 3.765C18.6093 3.52125 18.72 3.21 18.72 2.88C18.72 2.09063 18.0693 1.44 17.28 1.44ZM17.28 2.4C17.55 2.4 17.76 2.61 17.76 2.88C17.76 3.15 17.55 3.36 17.28 3.36C17.01 3.36 16.8 3.15 16.8 2.88C16.8 2.61 17.01 2.4 17.28 2.4ZM7.67996 5.76C7.15496 5.76 6.71996 6.195 6.71996 6.72V9.6H3.83996C3.05059 9.6 2.39996 10.2506 2.39996 11.04V13.44C2.39996 14.2294 3.05059 14.88 3.83996 14.88H5.27996V15.84H3.83996C2.25559 15.84 0.959961 17.1356 0.959961 18.72C0.959961 20.3044 2.25559 21.6 3.83996 21.6H13.44C15.0243 21.6 16.32 20.3044 16.32 18.72C16.32 17.1356 15.0243 15.84 13.44 15.84H12V14.88H13.44C14.2293 14.88 14.88 14.2294 14.88 13.44V11.055C14.88 10.6275 14.7375 10.2075 14.475 9.87L11.7 6.315C11.4281 5.96438 11.0193 5.76 10.575 5.76H7.67996ZM7.67996 6.72H10.575C10.7231 6.72 10.8581 6.78375 10.95 6.9L13.725 10.47C13.8525 10.635 13.9162 10.8319 13.92 11.04H8.42996L7.67996 9.915V6.72ZM3.83996 10.56H6.92996L7.75496 11.79L7.90496 12H13.92V13.44C13.92 13.7119 13.7118 13.92 13.44 13.92H3.83996C3.56809 13.92 3.35996 13.7119 3.35996 13.44V11.04C3.35996 10.7681 3.56809 10.56 3.83996 10.56ZM22.08 10.56C22.35 10.56 22.56 10.77 22.56 11.04C22.56 11.31 22.35 11.52 22.08 11.52C21.81 11.52 21.6 11.31 21.6 11.04C21.6 10.77 21.81 10.56 22.08 10.56ZM21.495 12.345C21.675 12.4275 21.87 12.48 22.08 12.48V14.88C22.08 15.1519 21.8718 15.36 21.6 15.36H19.215L21.495 12.345ZM6.23996 14.88H11.04V15.84H6.23996V14.88ZM3.83996 16.8H13.44C14.505 16.8 15.36 17.655 15.36 18.72C15.36 19.785 14.505 20.64 13.44 20.64H3.83996C2.77496 20.64 1.91996 19.785 1.91996 18.72C1.91996 17.655 2.77496 16.8 3.83996 16.8ZM3.83996 17.76C3.30934 17.76 2.87996 18.1894 2.87996 18.72C2.87996 19.2506 3.30934 19.68 3.83996 19.68C4.37059 19.68 4.79996 19.2506 4.79996 18.72C4.79996 18.1894 4.37059 17.76 3.83996 17.76ZM6.71996 17.76C6.18934 17.76 5.75996 18.1894 5.75996 18.72C5.75996 19.2506 6.18934 19.68 6.71996 19.68C7.25059 19.68 7.67996 19.2506 7.67996 18.72C7.67996 18.1894 7.25059 17.76 6.71996 17.76ZM10.56 17.76C10.0293 17.76 9.59996 18.1894 9.59996 18.72C9.59996 19.2506 10.0293 19.68 10.56 19.68C11.0906 19.68 11.52 19.2506 11.52 18.72C11.52 18.1894 11.0906 17.76 10.56 17.76ZM13.44 17.76C12.9093 17.76 12.48 18.1894 12.48 18.72C12.48 19.2506 12.9093 19.68 13.44 19.68C13.9706 19.68 14.4 19.2506 14.4 18.72C14.4 18.1894 13.9706 17.76 13.44 17.76Z" fill="white"/>
</svg>
