<svg width="22" height="22" viewBox="0 0 22 22" fill="none" xmlns="http://www.w3.org/2000/svg">
<path d="M7.10384 2.29163C7.10384 1.91193 6.79604 1.60413 6.41634 1.60413C6.03665 1.60413 5.72884 1.91193 5.72884 2.29163V3.73928C4.40946 3.84493 3.5433 4.10422 2.90695 4.74057C2.2706 5.37692 2.01131 6.24307 1.90566 7.56246H20.0937C19.988 6.24307 19.7287 5.37692 19.0924 4.74057C18.4561 4.10422 17.5899 3.84493 16.2705 3.73928V2.29163C16.2705 1.91193 15.9627 1.60413 15.583 1.60413C15.2033 1.60413 14.8955 1.91193 14.8955 2.29163V3.67845C14.2857 3.66663 13.6021 3.66663 12.833 3.66663H9.16634C8.39723 3.66663 7.71367 3.66663 7.10384 3.67845V2.29163Z" fill="#98A2B3"/>
<path fill-rule="evenodd" clip-rule="evenodd" d="M1.83301 11C1.83301 10.2308 1.83301 9.54729 1.84483 8.93746H20.1545C20.1663 9.54729 20.1663 10.2308 20.1663 11V12.8333C20.1663 16.2903 20.1663 18.0187 19.0924 19.0927C18.0185 20.1666 16.29 20.1666 12.833 20.1666H9.16634C5.70937 20.1666 3.98089 20.1666 2.90695 19.0927C1.83301 18.0187 1.83301 16.2903 1.83301 12.8333V11ZM15.583 12.8333C16.0893 12.8333 16.4997 12.4229 16.4997 11.9166C16.4997 11.4104 16.0893 11 15.583 11C15.0767 11 14.6663 11.4104 14.6663 11.9166C14.6663 12.4229 15.0767 12.8333 15.583 12.8333ZM15.583 16.5C16.0893 16.5 16.4997 16.0896 16.4997 15.5833C16.4997 15.077 16.0893 14.6666 15.583 14.6666C15.0767 14.6666 14.6663 15.077 14.6663 15.5833C14.6663 16.0896 15.0767 16.5 15.583 16.5ZM11.9163 11.9166C11.9163 12.4229 11.5059 12.8333 10.9997 12.8333C10.4934 12.8333 10.083 12.4229 10.083 11.9166C10.083 11.4104 10.4934 11 10.9997 11C11.5059 11 11.9163 11.4104 11.9163 11.9166ZM11.9163 15.5833C11.9163 16.0896 11.5059 16.5 10.9997 16.5C10.4934 16.5 10.083 16.0896 10.083 15.5833C10.083 15.077 10.4934 14.6666 10.9997 14.6666C11.5059 14.6666 11.9163 15.077 11.9163 15.5833ZM6.41634 12.8333C6.9226 12.8333 7.33301 12.4229 7.33301 11.9166C7.33301 11.4104 6.9226 11 6.41634 11C5.91008 11 5.49967 11.4104 5.49967 11.9166C5.49967 12.4229 5.91008 12.8333 6.41634 12.8333ZM6.41634 16.5C6.9226 16.5 7.33301 16.0896 7.33301 15.5833C7.33301 15.077 6.9226 14.6666 6.41634 14.6666C5.91008 14.6666 5.49967 15.077 5.49967 15.5833C5.49967 16.0896 5.91008 16.5 6.41634 16.5Z" fill="#98A2B3"/>
</svg>
