<svg width="22" height="22" viewBox="0 0 22 22" fill="none" xmlns="http://www.w3.org/2000/svg">
<g clip-path="url(#clip0_11236_9527)">
<path d="M12.833 2.66663C14.5331 2.66663 15.9087 2.66493 16.9893 2.81018C18.0986 2.95933 19.0461 3.28007 19.7998 4.03381C20.5533 4.7875 20.8743 5.73417 21.0234 6.84338C21.1687 7.92392 21.166 9.29959 21.166 10.9996V12.8336C21.166 14.5337 21.1687 15.9093 21.0234 16.9899C20.8743 18.0991 20.5533 19.0458 19.7998 19.7994C19.0461 20.5532 18.0986 20.8739 16.9893 21.0231C15.9087 21.1683 14.5331 21.1666 12.833 21.1666H9.16602C7.46595 21.1666 6.0903 21.1683 5.00977 21.0231C3.90041 20.8739 2.95392 20.5532 2.2002 19.7994C1.44647 19.0457 1.12572 18.0992 0.976562 16.9899C0.831288 15.9093 0.833008 14.5337 0.833008 12.8336V10.9996C0.833008 9.29957 0.831288 7.92392 0.976562 6.84338C1.12572 5.73403 1.44647 4.78754 2.2002 4.03381C2.95392 3.28008 3.90041 2.95933 5.00977 2.81018C6.0903 2.66491 7.46595 2.66663 9.16602 2.66663H12.833Z" stroke="#98A2B3" stroke-width="2"/>
<path d="M6.41699 3.66663V2.29163" stroke="#98A2B3" stroke-width="1.375" stroke-linecap="round"/>
<path d="M15.583 3.66663V2.29163" stroke="#98A2B3" stroke-width="1.375" stroke-linecap="round"/>
<path d="M2.29199 8.25H19.7087" stroke="#98A2B3" stroke-width="1.375" stroke-linecap="round"/>
<path d="M16.5003 15.5833C16.5003 16.0896 16.0899 16.5 15.5837 16.5C15.0774 16.5 14.667 16.0896 14.667 15.5833C14.667 15.0771 15.0774 14.6667 15.5837 14.6667C16.0899 14.6667 16.5003 15.0771 16.5003 15.5833Z" fill="#98A2B3"/>
<path d="M16.5003 11.9167C16.5003 12.4229 16.0899 12.8333 15.5837 12.8333C15.0774 12.8333 14.667 12.4229 14.667 11.9167C14.667 11.4104 15.0774 11 15.5837 11C16.0899 11 16.5003 11.4104 16.5003 11.9167Z" fill="#98A2B3"/>
<path d="M11.9163 15.5833C11.9163 16.0896 11.5059 16.5 10.9997 16.5C10.4934 16.5 10.083 16.0896 10.083 15.5833C10.083 15.0771 10.4934 14.6667 10.9997 14.6667C11.5059 14.6667 11.9163 15.0771 11.9163 15.5833Z" fill="#98A2B3"/>
<path d="M11.9163 11.9167C11.9163 12.4229 11.5059 12.8333 10.9997 12.8333C10.4934 12.8333 10.083 12.4229 10.083 11.9167C10.083 11.4104 10.4934 11 10.9997 11C11.5059 11 11.9163 11.4104 11.9163 11.9167Z" fill="#98A2B3"/>
<path d="M7.33333 15.5833C7.33333 16.0896 6.92293 16.5 6.41667 16.5C5.91041 16.5 5.5 16.0896 5.5 15.5833C5.5 15.0771 5.91041 14.6667 6.41667 14.6667C6.92293 14.6667 7.33333 15.0771 7.33333 15.5833Z" fill="#98A2B3"/>
<path d="M7.33333 11.9167C7.33333 12.4229 6.92293 12.8333 6.41667 12.8333C5.91041 12.8333 5.5 12.4229 5.5 11.9167C5.5 11.4104 5.91041 11 6.41667 11C6.92293 11 7.33333 11.4104 7.33333 11.9167Z" fill="#98A2B3"/>
</g>
<defs>
<clipPath id="clip0_11236_9527">
<rect width="22" height="22" rx="4.58333" fill="white"/>
</clipPath>
</defs>
</svg>
