<svg width="23" height="23" viewBox="0 0 23 23" fill="none" xmlns="http://www.w3.org/2000/svg">
<circle cx="11.25" cy="12.1875" r="2.8125" stroke="white" stroke-width="1.5"/>
<path d="M9.16667 19.6875H13.3333C16.2593 19.6875 17.7223 19.6875 18.7732 18.9981C19.2282 18.6996 19.6188 18.3161 19.9228 17.8694C20.625 16.8376 20.625 15.4012 20.625 12.5284C20.625 9.65564 20.625 8.21926 19.9228 7.18744C19.6188 6.74075 19.2282 6.35723 18.7732 6.05876C18.0979 5.61575 17.2525 5.4574 15.9581 5.4008C15.3404 5.4008 14.8086 4.94126 14.6875 4.34659C14.5058 3.45458 13.7081 2.8125 12.7816 2.8125H9.71844C8.79192 2.8125 7.9942 3.45458 7.8125 4.34659C7.69136 4.94126 7.15955 5.4008 6.54187 5.4008C5.2475 5.4574 4.40208 5.61575 3.72679 6.05876C3.27183 6.35723 2.8812 6.74075 2.57721 7.18744C1.875 8.21926 1.875 9.65564 1.875 12.5284C1.875 15.4012 1.875 16.8376 2.57721 17.8694C2.8812 18.3161 3.27183 18.6996 3.72679 18.9981C4.77772 19.6875 6.2407 19.6875 9.16667 19.6875Z" stroke="white" stroke-width="1.5"/>
<path d="M17.8125 9.375H16.875" stroke="white" stroke-width="1.5" stroke-linecap="round"/>
</svg>
