<svg width="24" height="24" viewBox="0 0 24 24" fill="none" xmlns="http://www.w3.org/2000/svg">
<circle cx="12" cy="13" r="3" stroke="#98A2B3" stroke-width="1.5"/>
<path d="M10.0001 20H14.0001C16.809 20 18.2135 20 19.2224 19.3259C19.6591 19.0341 20.0341 18.6591 20.326 18.2223C21.0001 17.2134 21.0001 15.8089 21.0001 13C21.0001 10.1911 21 8.78685 20.3258 7.77795C20.034 7.34119 19.659 6.96619 19.2222 6.67436C18.2133 6.00023 16.8089 6.00023 14 6.00023H9.99995C7.19103 6.00023 5.78656 6.00023 4.77767 6.67436C4.34091 6.96619 3.96591 7.34119 3.67407 7.77795C3.0001 8.78663 3.0001 10.1905 3.0001 12.9982L3.0001 13C3.0001 15.8089 3.0001 17.2134 3.67422 18.2223C3.96605 18.6591 4.34106 19.0341 4.77782 19.3259C5.78671 20 7.19117 20 10.0001 20Z" stroke="#98A2B3" stroke-width="1.5"/>
<path d="M18 10H17.5" stroke="#98A2B3" stroke-width="1.5" stroke-linecap="round"/>
<path d="M15 3H9" stroke="#98A2B3" stroke-width="1.5" stroke-linecap="round"/>
</svg>
