<svg width="16" height="16" viewBox="0 0 16 16" fill="none" xmlns="http://www.w3.org/2000/svg">
<path d="M2 8C2 10.5142 2 13.1046 2.87868 13.8856C3.75736 14.6667 5.17157 14.6667 8 14.6667C10.8284 14.6667 12.2426 14.6667 13.1213 13.8856C14 13.1046 14 10.5142 14 8" stroke="#309DAA" stroke-width="1.5"/>
<path d="M9.77322 9.46798L13.7781 8.26652C14.1751 8.14742 14.3736 8.08787 14.4995 7.94514C14.5241 7.91734 14.5462 7.88753 14.5658 7.85604C14.6663 7.69438 14.6663 7.48714 14.6663 7.07266C14.6663 5.43922 14.6663 4.62251 14.2177 4.0711C14.1315 3.96512 14.0346 3.86826 13.9286 3.78203C13.3772 3.33337 12.5605 3.33337 10.9271 3.33337H5.07229C3.43886 3.33337 2.62214 3.33337 2.07074 3.78203C1.96476 3.86826 1.86789 3.96512 1.78166 4.0711C1.33301 4.62251 1.33301 5.43922 1.33301 7.07266C1.33301 7.48714 1.33301 7.69438 1.43353 7.85604C1.45311 7.88753 1.47528 7.91734 1.49982 7.94514C1.62577 8.08787 1.82428 8.14742 2.22128 8.26652L6.22613 9.46798" stroke="#309DAA" stroke-width="1.5"/>
<path d="M4.33301 3.33337C4.88197 3.31946 5.43917 2.96998 5.62597 2.45359C5.63172 2.4377 5.63761 2.42003 5.64939 2.38469L5.66649 2.33337C5.69462 2.249 5.70868 2.2068 5.72373 2.16937C5.91586 1.69146 6.36608 1.36695 6.88023 1.33581C6.9205 1.33337 6.96497 1.33337 7.05392 1.33337H8.94573C9.03468 1.33337 9.07915 1.33337 9.11942 1.33581C9.63357 1.36695 10.0838 1.69146 10.2759 2.16937C10.291 2.2068 10.305 2.24899 10.3332 2.33337L10.3503 2.38469C10.362 2.41983 10.368 2.43775 10.3737 2.45359C10.5605 2.96998 11.1174 3.31946 11.6663 3.33337" stroke="#309DAA" stroke-width="1.5"/>
<path d="M9.33301 8.33337H6.66634C6.48225 8.33337 6.33301 8.48261 6.33301 8.66671V10.1077C6.33301 10.244 6.41599 10.3666 6.54254 10.4172L7.0093 10.6039C7.64506 10.8582 8.35429 10.8582 8.99005 10.6039L9.4568 10.4172C9.58336 10.3666 9.66634 10.244 9.66634 10.1077V8.66671C9.66634 8.48261 9.5171 8.33337 9.33301 8.33337Z" stroke="#309DAA" stroke-width="1.5" stroke-linecap="round"/>
</svg>
