<svg width="16" height="16" viewBox="0 0 16 16" fill="none" xmlns="http://www.w3.org/2000/svg">
<path d="M10.4504 7.15797C10.722 6.9093 10.7405 6.4876 10.4918 6.21607C10.2431 5.94455 9.82142 5.92603 9.54989 6.17471L7.08851 8.42899L6.45043 7.8446C6.17891 7.59592 5.75721 7.61444 5.50853 7.88596C5.25985 8.15748 5.27837 8.57919 5.54989 8.82786L6.63824 9.82464C6.89306 10.058 7.28396 10.058 7.53878 9.82464L10.4504 7.15797Z" fill="#FA6115"/>
<path fill-rule="evenodd" clip-rule="evenodd" d="M8.00016 1.33301C4.31826 1.33301 1.3335 4.31778 1.3335 7.99967C1.3335 11.6816 4.31826 14.6663 8.00016 14.6663C11.6821 14.6663 14.6668 11.6816 14.6668 7.99967C14.6668 4.31778 11.6821 1.33301 8.00016 1.33301ZM2.66683 7.99967C2.66683 5.05416 5.05464 2.66634 8.00016 2.66634C10.9457 2.66634 13.3335 5.05416 13.3335 7.99967C13.3335 10.9452 10.9457 13.333 8.00016 13.333C5.05464 13.333 2.66683 10.9452 2.66683 7.99967Z" fill="#FA6115"/>
</svg>
