<svg width="28" height="28" viewBox="0 0 28 28" fill="none" xmlns="http://www.w3.org/2000/svg">
<path d="M3.5 12.1524C3.5 8.42192 3.5 6.55667 3.94043 5.92915C4.38087 5.30164 6.13471 4.70129 9.6424 3.5006L10.3107 3.27184C12.1391 2.64595 13.0534 2.33301 14 2.33301C14.9466 2.33301 15.8609 2.64595 17.6893 3.27184L18.3576 3.5006C21.8653 4.70129 23.6191 5.30164 24.0596 5.92915C24.5 6.55667 24.5 8.42192 24.5 12.1524C24.5 12.7159 24.5 13.327 24.5 13.9896C24.5 20.5673 19.5545 23.7594 16.4517 25.1148C15.61 25.4825 15.1891 25.6663 14 25.6663C12.8109 25.6663 12.39 25.4825 11.5483 25.1148C8.44546 23.7594 3.5 20.5673 3.5 13.9896C3.5 13.327 3.5 12.7159 3.5 12.1524Z" fill="#276572"/>
</svg>
