<svg width="16" height="16" viewBox="0 0 16 16" fill="none" xmlns="http://www.w3.org/2000/svg">
<path d="M13.6915 1.00004C13.5748 0.997583 13.4551 1.01105 13.3347 1.04301H13.334L4.91802 3.01306C4.91323 3.01429 4.90845 3.01559 4.9037 3.01697C4.15125 3.21736 3.79472 4.1007 4.14133 4.79236C4.14176 4.79344 4.14219 4.79453 4.14263 4.79561L5.81646 8.07881L4.84054 9.05473C4.76843 9.01789 4.68844 8.99913 4.60747 9.00004C4.47736 9.00194 4.35311 9.05449 4.26112 9.14652L1.41216 11.9955C0.840616 12.5665 0.880574 13.5067 1.45187 14.0775L1.92258 14.5482C2.49339 15.1195 3.43324 15.1594 4.00461 14.5886H4.00526L6.85422 11.739C6.92875 11.6643 6.97776 11.568 6.99425 11.4638C7.01073 11.3596 6.99385 11.2529 6.94601 11.1589L7.92713 10.1778L11.2754 11.8588H11.2761C11.9678 12.2051 12.8507 11.849 13.0515 11.097C13.0531 11.0908 13.0546 11.0845 13.056 11.0782L14.961 2.64783L14.9564 2.66605C15.1812 1.82356 14.5083 1.01723 13.6915 1.00004ZM13.6739 2.00134C13.8657 2.01075 14.0414 2.21668 13.9903 2.40824C13.9886 2.41451 13.9871 2.4208 13.9857 2.42712L12.0853 10.8392L12.0847 10.8399C12.0426 10.9956 11.9141 11.0597 11.724 10.9649H11.7234L8.67192 9.43298L9.56646 8.53845C10.1404 7.96453 10.1404 7.01927 9.56646 6.44535L9.55474 6.43363C9.26778 6.14667 8.88839 6.00329 8.50851 6.00329C8.12863 6.00329 7.7486 6.14667 7.46164 6.43363L6.55929 7.33598L5.03521 4.34444V4.34379C4.94059 4.1543 5.00497 4.02561 5.16021 3.98376L5.16086 3.98311L13.5762 2.01306C13.5812 2.01205 13.5862 2.01097 13.5912 2.0098C13.6186 2.0025 13.6465 2 13.6739 2.00134ZM8.50851 6.99743C8.63047 6.99743 8.752 7.04496 8.84771 7.14066L8.85942 7.15238C9.05084 7.3438 9.05084 7.64 8.85942 7.83142L7.54692 9.14392C7.48689 9.18257 7.43584 9.23363 7.39719 9.29366L6.25656 10.4343L5.5658 9.74353L6.76567 8.54366C6.77467 8.5353 6.78336 8.52661 6.79172 8.51762L8.16867 7.14066C8.26438 7.04496 8.38656 6.99743 8.50851 6.99743ZM4.61463 10.2071L5.79302 11.3855L3.29758 13.8809C3.13087 14.0469 2.83993 14.0517 2.63026 13.8418V13.8412L2.1589 13.3698H2.15825C1.94822 13.16 1.95273 12.8688 2.11919 12.7025L4.61463 10.2071Z" fill="#309DAA"/>
</svg>
