<svg width="16" height="16" viewBox="0 0 16 16" fill="none" xmlns="http://www.w3.org/2000/svg">
<path d="M13.6915 1.00028C13.5748 0.997827 13.4551 1.01129 13.3347 1.04325H13.334L4.91802 3.0133C4.91323 3.01453 4.90845 3.01584 4.9037 3.01721C4.15125 3.2176 3.79472 4.10095 4.14133 4.7926C4.14176 4.79369 4.14219 4.79477 4.14263 4.79586L5.81646 8.07906L4.84054 9.05497C4.76843 9.01814 4.68844 8.99937 4.60747 9.00028C4.47736 9.00219 4.35311 9.05473 4.26112 9.14677L1.41216 11.9957C0.840616 12.5668 0.880574 13.5069 1.45187 14.0778L1.92258 14.5485C2.49339 15.1198 3.43324 15.1597 4.00461 14.5888H4.00526L6.85422 11.7392C6.92875 11.6646 6.97776 11.5683 6.99425 11.4641C7.01073 11.3599 6.99385 11.2532 6.94601 11.1591L7.92713 10.178L11.2754 11.859H11.2761C11.9678 12.2054 12.8507 11.8493 13.0515 11.0973C13.0531 11.091 13.0546 11.0847 13.056 11.0784L14.961 2.64807L14.9564 2.6663C15.1812 1.8238 14.5083 1.01747 13.6915 1.00028ZM13.6739 2.00159C13.8657 2.01099 14.0414 2.21693 13.9903 2.40849C13.9886 2.41475 13.9871 2.42104 13.9857 2.42737L12.0853 10.8395L12.0847 10.8401C12.0426 10.9958 11.9141 11.06 11.724 10.9651H11.7234L8.67192 9.43323L9.56646 8.53869C10.1404 7.96478 10.1404 7.01951 9.56646 6.4456L9.55474 6.43388C9.26778 6.14692 8.88839 6.00354 8.50851 6.00354C8.12863 6.00354 7.7486 6.14692 7.46164 6.43388L6.55929 7.33622L5.03521 4.34468V4.34403C4.94059 4.15454 5.00497 4.02586 5.16021 3.98401L5.16086 3.98336L13.5762 2.0133C13.5812 2.0123 13.5862 2.01121 13.5912 2.01005C13.6186 2.00275 13.6465 2.00024 13.6739 2.00159ZM8.50851 6.99768C8.63047 6.99768 8.752 7.0452 8.84771 7.14091L8.85942 7.15263C9.05084 7.34404 9.05084 7.64025 8.85942 7.83166L7.54692 9.14416C7.48689 9.18281 7.43584 9.23387 7.39719 9.2939L6.25656 10.4345L5.5658 9.74377L6.76567 8.5439C6.77467 8.53554 6.78336 8.52686 6.79172 8.51786L8.16867 7.14091C8.26438 7.0452 8.38656 6.99768 8.50851 6.99768ZM4.61463 10.2073L5.79302 11.3857L3.29758 13.8811C3.13087 14.0472 2.83993 14.0519 2.63026 13.8421V13.8414L2.1589 13.3701H2.15825C1.94822 13.1602 1.95273 12.8691 2.11919 12.7028L4.61463 10.2073Z" fill="#309DAA"/>
</svg>
