<svg width="22" height="22" viewBox="0 0 22 22" fill="none" xmlns="http://www.w3.org/2000/svg">
<path d="M18.8301 1.14612C20.0806 1.17244 21.1166 2.39127 20.7939 3.69006L20.7949 3.69104L18.1758 15.2828C18.1733 15.294 18.1699 15.305 18.167 15.316V15.318C17.8556 16.4828 16.5205 17.0247 15.459 16.5348H15.4492L15.4004 16.5104L10.9443 14.2731L9.81641 15.401C9.85361 15.5296 9.86486 15.6649 9.84375 15.7985C9.81352 15.9895 9.72355 16.1665 9.58691 16.3033L5.60156 20.2887H5.59277C4.70522 21.0967 3.32416 21.0091 2.48145 20.1656L1.83398 19.5182C0.967426 18.652 0.896186 17.2142 1.7793 16.3317L5.69727 12.4147C5.86591 12.246 6.09354 12.1496 6.33203 12.1461H6.33301C6.42263 12.1452 6.51116 12.1585 6.59668 12.1832L7.7168 11.0641L5.49219 6.69788L5.4873 6.68909L5.4834 6.67932C5.48267 6.67751 5.48219 6.67535 5.48145 6.67346H5.48047C4.9924 5.67314 5.43981 4.41193 6.46875 3.99866L6.68359 3.92639C6.69072 3.92438 6.69791 3.92237 6.70508 3.92053L6.70996 3.91956L18.2822 1.21057L18.3076 1.20471H18.3105C18.4856 1.16146 18.6597 1.14257 18.8301 1.14612ZM3.07617 17.6276C2.94897 17.7547 2.92029 18.0054 3.12402 18.2145L3.13086 18.2213L3.77832 18.8698L3.7832 18.8746C3.99203 19.0797 4.24372 19.0513 4.37207 18.9235L7.64062 15.6549L6.34473 14.358L3.07617 17.6276ZM18.7471 2.98499L18.7402 2.98694C18.7312 2.98904 18.7219 2.99097 18.7129 2.9928L18.7119 2.99182L7.17383 5.69299L7.15527 5.69885C7.12624 5.70668 7.11003 5.71639 7.10254 5.72229C7.0961 5.72739 7.09433 5.73056 7.09375 5.73206C7.09225 5.73636 7.08123 5.77596 7.12793 5.86975L9.0791 9.70081L10.0977 8.6842C10.5376 8.24427 11.1196 8.02502 11.6992 8.02502C12.2789 8.02506 12.86 8.24436 13.2998 8.6842L13.3154 8.69983C14.1941 9.57846 14.194 11.0233 13.3154 11.902L12.3096 12.9069L16.1738 14.8473L16.2227 14.8717C16.3205 14.9205 16.3601 14.9067 16.3623 14.9059C16.3638 14.9053 16.3665 14.9038 16.3711 14.8981C16.377 14.8906 16.3875 14.8747 16.3955 14.8453L19.0068 3.28674C19.0093 3.27565 19.0118 3.26455 19.0146 3.25354V3.25256C19.0267 3.20733 19.0162 3.14342 18.9658 3.08069C18.9148 3.01727 18.8454 2.98379 18.79 2.98108C18.7741 2.98031 18.7599 2.98162 18.7471 2.98499ZM11.6992 9.85022C11.5919 9.85022 11.4819 9.89176 11.3936 9.9801L9.50586 11.8668C9.49055 11.8833 9.47546 11.9003 9.45898 11.9156L7.97656 13.3971L8.60254 14.0231L9.99805 12.6266C10.0597 12.5383 10.1363 12.4617 10.2246 12.4L12.0195 10.6061C12.1932 10.4324 12.1931 10.1704 12.0195 9.9967L12.0039 9.9801C11.9154 9.89156 11.8061 9.85025 11.6992 9.85022Z" fill="#98A2B3" stroke="#98A2B3" stroke-width="0.458333"/>
</svg>
