<svg width="33" height="28" viewBox="0 0 33 28" fill="none" xmlns="http://www.w3.org/2000/svg">
<path d="M17.25 1.125C17.25 0.50368 16.7463 0 16.125 0C15.5037 0 15 0.50368 15 1.125V4.125C15 4.74632 15.5037 5.25 16.125 5.25C16.7463 5.25 17.25 4.74632 17.25 4.125V1.125Z" fill="#276572"/>
<path fill-rule="evenodd" clip-rule="evenodd" d="M32.25 14.7098C32.25 17.4664 32.25 19.6499 32.0203 21.3587C31.7839 23.1173 31.2857 24.5407 30.1631 25.6633C29.0406 26.7858 27.6172 27.284 25.8585 27.5204C24.1497 27.7502 21.9663 27.7502 19.2097 27.7501H13.0402C10.2837 27.7502 8.10026 27.7502 6.39147 27.5204C4.63283 27.284 3.20941 26.7858 2.08687 25.6633C0.964322 24.5407 0.466146 23.1173 0.229704 21.3587C-4.0479e-05 19.6498 -2.23783e-05 17.4664 4.53801e-07 14.7098L5.33884e-06 14.2837C2.97751e-05 13.9543 0.000159522 13.6333 0.000802305 13.3204C0.00198457 12.7449 0.00490244 12.1971 0.0120929 11.6759C0.0322744 10.2131 0.0861136 8.95974 0.229704 7.89173C0.466146 6.1331 0.964322 4.70968 2.08687 3.58713C3.20941 2.46459 4.63283 1.96641 6.39147 1.72997C7.46612 1.58549 8.72849 1.53188 10.2031 1.51199C10.4509 1.50865 10.837 1.50618 11.2479 1.50438C12.0771 1.50075 12.75 2.1731 12.75 3.00233V4.12512C12.75 5.98908 14.261 7.50012 16.125 7.50012C17.989 7.50012 19.5 5.98908 19.5 4.12512V3.00042C19.5 2.17194 20.172 1.49903 21.0005 1.50295C22.9337 1.51209 24.5379 1.55241 25.8585 1.72997C27.6172 1.96641 29.0406 2.46459 30.1631 3.58713C31.2857 4.70968 31.7839 6.1331 32.0203 7.89173C32.25 9.60054 32.25 11.7839 32.25 14.5405V14.7098ZM10.125 11.2501C9.50368 11.2501 9 11.7538 9 12.3751C9 12.9964 9.50368 13.5001 10.125 13.5001H22.125C22.7463 13.5001 23.25 12.9964 23.25 12.3751C23.25 11.7538 22.7463 11.2501 22.125 11.2501H10.125ZM10.125 16.5001C9.50368 16.5001 9 17.0038 9 17.6251C9 18.2464 9.50368 18.7501 10.125 18.7501H18.375C18.9963 18.7501 19.5 18.2464 19.5 17.6251C19.5 17.0038 18.9963 16.5001 18.375 16.5001H10.125Z" fill="#276572"/>
</svg>
