<svg width="50" height="50" viewBox="0 0 50 50" fill="none" xmlns="http://www.w3.org/2000/svg">
<mask id="path-1-outside-1_11236_8890" maskUnits="userSpaceOnUse" x="1" y="0.967407" width="48" height="48" fill="black">
<rect fill="white" x="1" y="0.967407" width="48" height="48"/>
<path d="M43.9062 1.96871C43.875 1.97653 43.8438 1.98825 43.8125 1.99996H40C39.7305 1.99996 39.4688 2.12106 39.2812 2.31246L25.2188 16.5937L26.4375 18.1562L30.2188 14.3437L30.9062 20.875L29.8125 22.5L30.9375 23.9687C30.9883 24.0351 31.0469 24.0898 31.0938 24.1562L43 6.31246V28.2812C42.4023 28.6289 42 29.2617 42 30C42 30.7382 42.4023 31.3711 43 31.7187V32.9687C43 33.9062 43.6094 34.789 44.5625 35.0625C45.5039 35.332 46.1641 36.2656 45.9688 37.375C45.832 38.1484 45.1523 38.832 44.375 38.9687C43.0625 39.1992 42 38.2382 42 37C42.0039 36.6406 41.8164 36.3047 41.5039 36.1211C41.1914 35.9414 40.8086 35.9414 40.4961 36.1211C40.1836 36.3047 39.9961 36.6406 40 37C40 39.4336 42.2383 41.3711 44.7188 40.9375C46.3555 40.6484 47.6523 39.3554 47.9375 37.7187C48.3047 35.625 46.9922 33.6953 45.0938 33.1562C45.0547 33.1445 45 33.0625 45 32.9687V31.7187C45.5977 31.3711 46 30.7382 46 30C46 29.2617 45.5977 28.6289 45 28.2812V3.06246C45.0039 3.01559 45.0039 2.95309 45 2.90621C44.9766 2.68356 44.875 2.47262 44.7188 2.31246C44.5156 2.07809 44.2148 1.95309 43.9062 1.96871ZM40.4062 3.99996H42.125L38.7188 9.12496L38.4375 5.96871L40.4062 3.99996ZM36.5938 7.87496L36.8438 10.9375L33.3438 11.1562L36.5938 7.87496ZM36.1562 12.9687L32.625 18.25L32.0938 13.25L36.1562 12.9687ZM8 16C6.35547 16 5 17.3554 5 19V31C5 32.6445 6.35547 34 8 34H11V36H8C4.69922 36 2 38.6992 2 42C2 45.3007 4.69922 48 8 48H30C33.3008 48 36 45.3007 36 42C36 38.6992 33.3008 36 30 36H27V34H28C29.6445 34 31 32.6445 31 31V27.0312C31 26.1406 30.7031 25.2656 30.1562 24.5625L24.375 17.1562C23.8086 16.4257 22.957 16 22.0312 16H8ZM8 18H16.25L19.0312 28.25L19.25 29H29V31C29 31.5664 28.5664 32 28 32H8C7.43359 32 7 31.5664 7 31V19C7 18.4336 7.43359 18 8 18ZM18.3125 18H22.0312C22.3398 18 22.6211 18.1328 22.8125 18.375L28.5938 25.8125C28.8594 26.1562 28.9922 26.5664 29 27H20.75L18.3125 18ZM13 34H25V36H13V34ZM8 38H30C32.2188 38 34 39.7812 34 42C34 44.2187 32.2188 46 30 46H8C5.78125 46 4 44.2187 4 42C4 39.7812 5.78125 38 8 38ZM8 40C6.89453 40 6 40.8945 6 42C6 43.1054 6.89453 44 8 44C9.10547 44 10 43.1054 10 42C10 40.8945 9.10547 40 8 40ZM14 40C12.8945 40 12 40.8945 12 42C12 43.1054 12.8945 44 14 44C15.1055 44 16 43.1054 16 42C16 40.8945 15.1055 40 14 40ZM24 40C22.8945 40 22 40.8945 22 42C22 43.1054 22.8945 44 24 44C25.1055 44 26 43.1054 26 42C26 40.8945 25.1055 40 24 40ZM30 40C28.8945 40 28 40.8945 28 42C28 43.1054 28.8945 44 30 44C31.1055 44 32 43.1054 32 42C32 40.8945 31.1055 40 30 40Z"/>
</mask>
<path d="M43.9062 1.96871C43.875 1.97653 43.8438 1.98825 43.8125 1.99996H40C39.7305 1.99996 39.4688 2.12106 39.2812 2.31246L25.2188 16.5937L26.4375 18.1562L30.2188 14.3437L30.9062 20.875L29.8125 22.5L30.9375 23.9687C30.9883 24.0351 31.0469 24.0898 31.0938 24.1562L43 6.31246V28.2812C42.4023 28.6289 42 29.2617 42 30C42 30.7382 42.4023 31.3711 43 31.7187V32.9687C43 33.9062 43.6094 34.789 44.5625 35.0625C45.5039 35.332 46.1641 36.2656 45.9688 37.375C45.832 38.1484 45.1523 38.832 44.375 38.9687C43.0625 39.1992 42 38.2382 42 37C42.0039 36.6406 41.8164 36.3047 41.5039 36.1211C41.1914 35.9414 40.8086 35.9414 40.4961 36.1211C40.1836 36.3047 39.9961 36.6406 40 37C40 39.4336 42.2383 41.3711 44.7188 40.9375C46.3555 40.6484 47.6523 39.3554 47.9375 37.7187C48.3047 35.625 46.9922 33.6953 45.0938 33.1562C45.0547 33.1445 45 33.0625 45 32.9687V31.7187C45.5977 31.3711 46 30.7382 46 30C46 29.2617 45.5977 28.6289 45 28.2812V3.06246C45.0039 3.01559 45.0039 2.95309 45 2.90621C44.9766 2.68356 44.875 2.47262 44.7188 2.31246C44.5156 2.07809 44.2148 1.95309 43.9062 1.96871ZM40.4062 3.99996H42.125L38.7188 9.12496L38.4375 5.96871L40.4062 3.99996ZM36.5938 7.87496L36.8438 10.9375L33.3438 11.1562L36.5938 7.87496ZM36.1562 12.9687L32.625 18.25L32.0938 13.25L36.1562 12.9687ZM8 16C6.35547 16 5 17.3554 5 19V31C5 32.6445 6.35547 34 8 34H11V36H8C4.69922 36 2 38.6992 2 42C2 45.3007 4.69922 48 8 48H30C33.3008 48 36 45.3007 36 42C36 38.6992 33.3008 36 30 36H27V34H28C29.6445 34 31 32.6445 31 31V27.0312C31 26.1406 30.7031 25.2656 30.1562 24.5625L24.375 17.1562C23.8086 16.4257 22.957 16 22.0312 16H8ZM8 18H16.25L19.0312 28.25L19.25 29H29V31C29 31.5664 28.5664 32 28 32H8C7.43359 32 7 31.5664 7 31V19C7 18.4336 7.43359 18 8 18ZM18.3125 18H22.0312C22.3398 18 22.6211 18.1328 22.8125 18.375L28.5938 25.8125C28.8594 26.1562 28.9922 26.5664 29 27H20.75L18.3125 18ZM13 34H25V36H13V34ZM8 38H30C32.2188 38 34 39.7812 34 42C34 44.2187 32.2188 46 30 46H8C5.78125 46 4 44.2187 4 42C4 39.7812 5.78125 38 8 38ZM8 40C6.89453 40 6 40.8945 6 42C6 43.1054 6.89453 44 8 44C9.10547 44 10 43.1054 10 42C10 40.8945 9.10547 40 8 40ZM14 40C12.8945 40 12 40.8945 12 42C12 43.1054 12.8945 44 14 44C15.1055 44 16 43.1054 16 42C16 40.8945 15.1055 40 14 40ZM24 40C22.8945 40 22 40.8945 22 42C22 43.1054 22.8945 44 24 44C25.1055 44 26 43.1054 26 42C26 40.8945 25.1055 40 24 40ZM30 40C28.8945 40 28 40.8945 28 42C28 43.1054 28.8945 44 30 44C31.1055 44 32 43.1054 32 42C32 40.8945 31.1055 40 30 40Z" fill="#FA6115"/>
<path d="M43.9062 1.96871C43.875 1.97653 43.8438 1.98825 43.8125 1.99996H40C39.7305 1.99996 39.4688 2.12106 39.2812 2.31246L25.2188 16.5937L26.4375 18.1562L30.2188 14.3437L30.9062 20.875L29.8125 22.5L30.9375 23.9687C30.9883 24.0351 31.0469 24.0898 31.0938 24.1562L43 6.31246V28.2812C42.4023 28.6289 42 29.2617 42 30C42 30.7382 42.4023 31.3711 43 31.7187V32.9687C43 33.9062 43.6094 34.789 44.5625 35.0625C45.5039 35.332 46.1641 36.2656 45.9688 37.375C45.832 38.1484 45.1523 38.832 44.375 38.9687C43.0625 39.1992 42 38.2382 42 37C42.0039 36.6406 41.8164 36.3047 41.5039 36.1211C41.1914 35.9414 40.8086 35.9414 40.4961 36.1211C40.1836 36.3047 39.9961 36.6406 40 37C40 39.4336 42.2383 41.3711 44.7188 40.9375C46.3555 40.6484 47.6523 39.3554 47.9375 37.7187C48.3047 35.625 46.9922 33.6953 45.0938 33.1562C45.0547 33.1445 45 33.0625 45 32.9687V31.7187C45.5977 31.3711 46 30.7382 46 30C46 29.2617 45.5977 28.6289 45 28.2812V3.06246C45.0039 3.01559 45.0039 2.95309 45 2.90621C44.9766 2.68356 44.875 2.47262 44.7188 2.31246C44.5156 2.07809 44.2148 1.95309 43.9062 1.96871ZM40.4062 3.99996H42.125L38.7188 9.12496L38.4375 5.96871L40.4062 3.99996ZM36.5938 7.87496L36.8438 10.9375L33.3438 11.1562L36.5938 7.87496ZM36.1562 12.9687L32.625 18.25L32.0938 13.25L36.1562 12.9687ZM8 16C6.35547 16 5 17.3554 5 19V31C5 32.6445 6.35547 34 8 34H11V36H8C4.69922 36 2 38.6992 2 42C2 45.3007 4.69922 48 8 48H30C33.3008 48 36 45.3007 36 42C36 38.6992 33.3008 36 30 36H27V34H28C29.6445 34 31 32.6445 31 31V27.0312C31 26.1406 30.7031 25.2656 30.1562 24.5625L24.375 17.1562C23.8086 16.4257 22.957 16 22.0312 16H8ZM8 18H16.25L19.0312 28.25L19.25 29H29V31C29 31.5664 28.5664 32 28 32H8C7.43359 32 7 31.5664 7 31V19C7 18.4336 7.43359 18 8 18ZM18.3125 18H22.0312C22.3398 18 22.6211 18.1328 22.8125 18.375L28.5938 25.8125C28.8594 26.1562 28.9922 26.5664 29 27H20.75L18.3125 18ZM13 34H25V36H13V34ZM8 38H30C32.2188 38 34 39.7812 34 42C34 44.2187 32.2188 46 30 46H8C5.78125 46 4 44.2187 4 42C4 39.7812 5.78125 38 8 38ZM8 40C6.89453 40 6 40.8945 6 42C6 43.1054 6.89453 44 8 44C9.10547 44 10 43.1054 10 42C10 40.8945 9.10547 40 8 40ZM14 40C12.8945 40 12 40.8945 12 42C12 43.1054 12.8945 44 14 44C15.1055 44 16 43.1054 16 42C16 40.8945 15.1055 40 14 40ZM24 40C22.8945 40 22 40.8945 22 42C22 43.1054 22.8945 44 24 44C25.1055 44 26 43.1054 26 42C26 40.8945 25.1055 40 24 40ZM30 40C28.8945 40 28 40.8945 28 42C28 43.1054 28.8945 44 30 44C31.1055 44 32 43.1054 32 42C32 40.8945 31.1055 40 30 40Z" stroke="#FA6115" mask="url(#path-1-outside-1_11236_8890)"/>
</svg>
