<svg width="32" height="32" viewBox="0 0 32 32" fill="none" xmlns="http://www.w3.org/2000/svg">
<circle cx="16" cy="21.334" r="4" stroke="#DD900D" stroke-width="3"/>
<path d="M16 25.6796L12.9828 28.5722C12.5507 28.9865 12.3347 29.1936 12.1517 29.2653C11.7348 29.4286 11.2723 29.2888 11.053 28.9332C10.9568 28.7772 10.9268 28.4957 10.8668 27.9327C10.8329 27.6148 10.816 27.4559 10.7646 27.3228C10.6495 27.0248 10.4077 26.793 10.0969 26.6826C9.95804 26.6334 9.79226 26.6171 9.46071 26.5847C8.87349 26.5272 8.57989 26.4984 8.41711 26.4061C8.04617 26.1959 7.90038 25.7525 8.07074 25.3528C8.1455 25.1774 8.36155 24.9703 8.79364 24.556L10.7646 22.6664L12.1517 21.2793" stroke="#DD900D" stroke-width="3"/>
<path d="M16 25.6802L19.0172 28.5728C19.4493 28.9871 19.6653 29.1942 19.8483 29.2659C20.2652 29.4292 20.7277 29.2894 20.947 28.9338C21.0432 28.7778 21.0732 28.4963 21.1332 27.9333C21.1671 27.6154 21.184 27.4565 21.2354 27.3234C21.3505 27.0254 21.5923 26.7936 21.9031 26.6833C22.042 26.634 22.2077 26.6177 22.5393 26.5853C23.1265 26.5278 23.4201 26.499 23.5829 26.4067C23.9538 26.1965 24.0996 25.7531 23.9293 25.3534C23.8545 25.178 23.6384 24.9709 23.2064 24.5566L21.2354 22.667L20 21.4316" stroke="#DD900D" stroke-width="3"/>
<path d="M23.0927 23.9937C25.7226 23.9657 27.1884 23.8009 28.1616 22.8278C29.3332 21.6562 29.3332 19.7706 29.3332 15.9993V10.666C29.3332 6.89478 29.3332 5.00916 28.1616 3.83759C26.99 2.66602 25.1044 2.66602 21.3332 2.66602L10.6665 2.66602C6.89527 2.66602 5.00965 2.66602 3.83808 3.83759C2.6665 5.00916 2.6665 6.89478 2.6665 10.666L2.6665 15.9993C2.6665 19.7706 2.6665 21.6562 3.83808 22.8278C4.86259 23.8523 6.43314 23.9809 9.33317 23.997" stroke="#DD900D" stroke-width="3"/>
<path d="M12 8L20 8" stroke="#DD900D" stroke-width="3" stroke-linecap="round"/>
<path d="M9.3335 12.666H22.6668" stroke="#DD900D" stroke-width="3" stroke-linecap="round"/>
</svg>
