<svg width="25" height="25" viewBox="0 0 25 25" fill="none" xmlns="http://www.w3.org/2000/svg">
<path fill-rule="evenodd" clip-rule="evenodd" d="M4.34539 3.30376C3.125 4.52415 3.125 6.48834 3.125 10.4167V14.5834C3.125 18.5117 3.125 20.4759 4.34539 21.6963C5.56578 22.9167 7.52996 22.9167 11.4583 22.9167H13.5417C17.47 22.9167 19.4342 22.9167 20.6546 21.6963C21.875 20.4759 21.875 18.5117 21.875 14.5834V10.4167C21.875 6.48834 21.875 4.52415 20.6546 3.30376C19.4342 2.08337 17.47 2.08337 13.5417 2.08337H11.4583C7.52996 2.08337 5.56578 2.08337 4.34539 3.30376ZM7.55208 8.33337C7.55208 7.9019 7.90186 7.55212 8.33333 7.55212H16.6667C17.0981 7.55212 17.4479 7.9019 17.4479 8.33337C17.4479 8.76485 17.0981 9.11462 16.6667 9.11462H8.33333C7.90186 9.11462 7.55208 8.76485 7.55208 8.33337ZM7.55208 12.5C7.55208 12.0686 7.90186 11.7188 8.33333 11.7188H16.6667C17.0981 11.7188 17.4479 12.0686 17.4479 12.5C17.4479 12.9315 17.0981 13.2813 16.6667 13.2813H8.33333C7.90186 13.2813 7.55208 12.9315 7.55208 12.5ZM8.33333 15.8855C7.90186 15.8855 7.55208 16.2352 7.55208 16.6667C7.55208 17.0982 7.90186 17.448 8.33333 17.448H13.5417C13.9731 17.448 14.3229 17.0982 14.3229 16.6667C14.3229 16.2352 13.9731 15.8855 13.5417 15.8855H8.33333Z" fill="#0F973D"/>
</svg>
