<svg width="20" height="20" viewBox="0 0 20 20" fill="none" xmlns="http://www.w3.org/2000/svg">
<path fill-rule="evenodd" clip-rule="evenodd" d="M17.1632 2.4256C16.0411 1.30345 14.2217 1.30344 13.0995 2.4256L5.99497 9.53016C5.48498 10.0401 5.15416 10.7018 5.05216 11.4158L4.84628 12.8569C4.68915 13.9569 5.63196 14.8997 6.7319 14.7425L8.17304 14.5367C8.88703 14.4347 9.54867 14.1038 10.0587 13.5938L17.1632 6.48929C18.2854 5.36714 18.2854 3.54776 17.1632 2.4256ZM14.4526 3.45937C14.9223 3.13915 15.568 3.1874 15.9847 3.60411C16.4014 4.02083 16.4497 4.66649 16.1294 5.13622L14.4526 3.45937ZM13.2592 4.62297L14.9658 6.32964L8.88015 12.4153C8.62515 12.6703 8.29433 12.8357 7.93734 12.8867L6.4962 13.0926L6.70208 11.6515C6.75307 11.2945 6.91848 10.9637 7.17348 10.7087L13.2592 4.62297Z" fill="#276572"/>
<path d="M4.99984 1.66728C3.15889 1.66728 1.6665 3.15966 1.6665 5.00061V15.0006C1.6665 16.8416 3.15889 18.3339 4.99984 18.3339H14.9998C16.8408 18.3339 18.3332 16.8416 18.3332 15.0006V10.0006C18.3332 9.54038 17.9601 9.16728 17.4998 9.16728C17.0396 9.16728 16.6665 9.54038 16.6665 10.0006V15.0006C16.6665 15.9211 15.9203 16.6673 14.9998 16.6673H4.99984C4.07936 16.6673 3.33317 15.9211 3.33317 15.0006V5.00061C3.33317 4.08014 4.07936 3.33395 4.99984 3.33395H7.23668C7.69692 3.33395 8.07001 2.96085 8.07001 2.50061C8.07001 2.04038 7.69692 1.66728 7.23668 1.66728H4.99984Z" fill="#276572"/>
</svg>
