<svg width="94" height="74" viewBox="0 0 94 74" fill="none" xmlns="http://www.w3.org/2000/svg">
<path d="M84.0709 59.9861L86.1667 63.3291L76.5792 65L74.4834 61.6569L84.0709 59.9861Z" fill="#4BBAC5"/>
<path d="M76.5789 65.2889C76.4803 65.2889 76.3872 65.2389 76.3345 65.1528L74.2386 61.8097C74.1872 61.7278 74.1803 61.6264 74.2192 61.5389C74.2581 61.4514 74.3386 61.3889 74.4331 61.3722L84.0206 59.7014C84.1372 59.6806 84.2525 59.7333 84.315 59.832L86.4109 63.175C86.4622 63.257 86.4692 63.3584 86.4303 63.4459C86.3914 63.5334 86.3109 63.5959 86.2164 63.6125L76.6289 65.2833C76.6122 65.2875 76.5956 65.2889 76.5789 65.2889ZM74.9567 61.8681L76.7206 64.682L85.6942 63.1181L83.9303 60.3042L74.9567 61.8681Z" fill="#F0FBFB"/>
<path d="M85.1685 25.125L84.3602 31.7625C83.1991 41.3 83.1005 50.7833 84.0713 59.9875L74.4824 61.6569L78.6533 47.3944L85.1685 25.125Z" fill="#85D5DB"/>
<path d="M74.4826 61.9459C74.4006 61.9459 74.3228 61.9112 74.2673 61.85C74.2006 61.7751 74.177 61.6723 74.2048 61.5764L84.8909 25.0445C84.9326 24.9001 85.0798 24.8126 85.227 24.8431C85.3742 24.8737 85.4742 25.0112 85.4562 25.1612L84.6478 31.7987C83.4895 41.3098 83.3923 50.7834 84.359 59.9584C84.3756 60.1098 84.2715 60.2473 84.1215 60.2737L74.534 61.9445C74.5159 61.9445 74.4992 61.9459 74.4826 61.9459ZM84.4548 28.5931L74.8895 61.2931L83.7548 59.7487C82.8131 50.6139 82.9201 41.1889 84.0729 31.7278L84.4548 28.5931Z" fill="#F0FBFB"/>
<path d="M87.2648 28.4681L85.169 25.125L84.3607 31.7625C83.1996 41.3 83.101 50.7833 84.0718 59.9875L86.1676 63.3306C85.1982 54.1264 85.2954 44.6444 86.4565 35.1056L87.2648 28.4681Z" fill="#85D5DB"/>
<path d="M86.1664 63.6181C86.0692 63.6181 85.9761 63.5681 85.922 63.482L83.8261 60.1389C83.8025 60.1014 83.7886 60.0598 83.7831 60.0153C82.8122 50.7973 82.9095 41.2792 84.0733 31.7251L84.8817 25.0876C84.897 24.9667 84.9858 24.8667 85.1053 24.8403C85.2247 24.8139 85.3483 24.8653 85.4122 24.9695L87.5081 28.3126C87.5428 28.3681 87.5581 28.4348 87.5497 28.5014L86.7414 35.1389C85.5831 44.6501 85.4859 54.1237 86.4525 63.2987C86.4664 63.432 86.3872 63.5584 86.2595 63.6014C86.2303 63.6139 86.1983 63.6181 86.1664 63.6181ZM84.3511 59.8903L85.7553 62.132C84.9178 53.2987 85.0567 44.2001 86.1678 35.0709L86.9636 28.5348L85.3553 25.9695L84.6456 31.7973C83.4914 41.2848 83.3928 50.7362 84.3511 59.8903Z" fill="#F0FBFB"/>
<path d="M73.1732 66.1361L75.269 69.4792H72.8107L70.7148 66.1361H73.1732Z" fill="#4BBAC5"/>
<path d="M75.2688 69.768H72.8119C72.7119 69.768 72.6202 69.7166 72.5674 69.6319L70.4716 66.2888C70.416 66.1999 70.4133 66.0874 70.4633 65.9958C70.5146 65.9041 70.6105 65.8472 70.716 65.8472H73.173C73.273 65.8472 73.3647 65.8986 73.4174 65.9833L75.5133 69.3263C75.5688 69.4152 75.5716 69.5277 75.5216 69.6194C75.4702 69.7111 75.373 69.768 75.2688 69.768ZM72.9702 69.1902H74.7466L73.0133 66.425H71.2383L72.9702 69.1902Z" fill="#F0FBFB"/>
<path d="M85.7298 23.2069L85.1687 25.125L78.6534 47.3944L74.4826 61.6569L73.1729 66.1361L75.2687 69.4791L76.5784 65L80.7492 50.7375L87.2645 28.468L87.8256 26.55L85.7298 23.2069Z" fill="#B7E7EA"/>
<path d="M75.2691 69.768C75.1705 69.768 75.0774 69.718 75.0246 69.6319L72.9288 66.2888C72.8844 66.2194 72.8733 66.1333 72.8969 66.0541L85.4538 23.125C85.4858 23.0152 85.5788 22.9361 85.6913 22.9194C85.8038 22.9041 85.9149 22.9555 85.976 23.0527L88.0719 26.3958C88.1163 26.4652 88.1274 26.5514 88.1038 26.6305L75.5455 69.5597C75.5135 69.6694 75.4205 69.7486 75.308 69.7652C75.2955 69.7666 75.2816 69.768 75.2691 69.768ZM73.4871 66.0916L75.1719 68.7805L87.5121 26.593L85.8274 23.9041L73.4871 66.0916Z" fill="#F0FBFB"/>
<path d="M85.7301 23.207L85.169 25.1251L78.6537 47.3945L74.4829 61.657L73.1732 66.1362H70.7148L75.3593 50.264L83.2732 23.207H85.7301Z" fill="#E4DBDB"/>
<path d="M73.173 66.425H70.7161C70.6244 66.425 70.5397 66.382 70.4855 66.3098C70.4314 66.2375 70.4133 66.1431 70.4397 66.0556L75.0828 50.1834L82.9967 23.1264C83.0328 23.0028 83.1453 22.9181 83.2744 22.9181H85.7314C85.8231 22.9181 85.9078 22.9611 85.9619 23.0334C86.0161 23.1056 86.0342 23.2 86.0078 23.2875L73.4508 66.2167C73.4147 66.3403 73.3008 66.425 73.173 66.425ZM71.1008 65.8473H72.9564L85.3453 23.4959H83.4897L75.6356 50.3445L71.1008 65.8473Z" fill="#F0FBFB"/>
<path d="M41.3588 4.89871C41.3602 4.87093 41.3602 4.84315 41.3602 4.81538C41.3602 4.79871 41.3588 4.78343 41.3574 4.76815C41.356 4.74315 41.3546 4.71954 41.3519 4.69593C41.3505 4.67927 41.3477 4.6626 41.3449 4.64593C41.3435 4.63065 41.3421 4.61538 41.3394 4.6001C41.338 4.59454 41.3366 4.59038 41.3366 4.58621C41.3269 4.53343 41.3158 4.48065 41.3005 4.43066C41.2991 4.42788 41.2991 4.4251 41.2991 4.42232C41.2963 4.4126 41.2921 4.40427 41.2894 4.39593C41.2796 4.36538 41.2685 4.33482 41.256 4.30566C41.2533 4.3001 41.2519 4.29315 41.2491 4.28621C41.2449 4.27788 41.2408 4.26954 41.2366 4.26121C41.2269 4.23899 41.2158 4.21816 41.2046 4.19732C41.2005 4.18899 41.1963 4.18065 41.1921 4.17232C41.1838 4.15843 41.1755 4.14454 41.1671 4.13065L39.0713 0.787598C39.0852 0.808431 39.0963 0.832044 39.1088 0.854266C39.1199 0.875099 39.131 0.89732 39.1408 0.918154C39.1477 0.932042 39.1546 0.947321 39.1602 0.962599C39.1727 0.991766 39.1838 1.02232 39.1935 1.05288C39.1977 1.06399 39.2019 1.0751 39.2046 1.0876C39.2199 1.1376 39.2324 1.18899 39.2408 1.24315C39.2449 1.2626 39.2477 1.28205 39.2505 1.30288C39.2533 1.31955 39.2546 1.33621 39.2574 1.35288C39.2602 1.37649 39.2616 1.40149 39.263 1.4251C39.2644 1.44037 39.2644 1.45705 39.2658 1.47232C39.2658 1.5001 39.2658 1.52788 39.2644 1.55565C39.2644 1.56954 39.2644 1.58204 39.263 1.59593C39.2602 1.6376 39.256 1.68066 39.2505 1.72371L38.9824 3.69177L41.0783 7.03482L41.3463 5.06676C41.3519 5.02371 41.356 4.98204 41.3588 4.93899C41.3588 4.92649 41.3588 4.9126 41.3588 4.89871Z" fill="#D8F3F5"/>
<path d="M41.0786 7.32367C40.98 7.32367 40.887 7.27367 40.8342 7.18756L38.7383 3.8445C38.7022 3.78756 38.6883 3.7195 38.6967 3.65145L38.9647 1.68339C38.9703 1.64728 38.9731 1.61256 38.9745 1.57784L38.9758 1.5445C38.9758 1.52228 38.9772 1.50006 38.9772 1.47784L38.9758 1.43895C38.9745 1.4195 38.9745 1.40006 38.9717 1.38062L38.9675 1.35284C38.9633 1.32506 38.962 1.30978 38.9592 1.29312C38.9508 1.24867 38.9411 1.20839 38.93 1.17089L38.9203 1.1445C38.912 1.12089 38.9036 1.09728 38.8939 1.07506C38.8883 1.06256 38.8842 1.05145 38.8786 1.04034C38.8703 1.02367 38.8633 1.007 38.8536 0.991725C38.8397 0.966725 38.8342 0.954227 38.8258 0.941727C38.7411 0.807005 38.7814 0.627839 38.9175 0.543117C39.0522 0.458394 39.2314 0.498671 39.3161 0.633393L41.412 3.97645C41.4231 3.99312 41.4328 4.01117 41.4425 4.02784C41.4481 4.03756 41.4536 4.04867 41.4592 4.05978C41.4731 4.08478 41.4856 4.11117 41.4981 4.13756C41.5036 4.14589 41.5092 4.157 41.5133 4.16811C41.5161 4.17506 41.5231 4.19311 41.5258 4.20006C41.537 4.22784 41.5508 4.26395 41.5633 4.30145C41.5661 4.30978 41.5717 4.32089 41.5745 4.33201C41.5758 4.33756 41.5786 4.3445 41.58 4.35145C41.5953 4.40423 41.6092 4.46117 41.6203 4.52089C41.6231 4.53061 41.6245 4.54034 41.6258 4.55006C41.6286 4.56256 41.63 4.57645 41.6314 4.59173L41.3467 4.64173L41.6342 4.61256C41.637 4.62923 41.6383 4.64589 41.6411 4.66395C41.6439 4.69173 41.6453 4.72089 41.6467 4.75006C41.6481 4.77784 41.6495 4.79312 41.6495 4.80839C41.6495 4.83895 41.6495 4.87228 41.6481 4.90562V4.907V4.91812C41.6481 4.93062 41.6481 4.94312 41.6467 4.95562C41.6439 5.00423 41.6397 5.05422 41.6328 5.10561L41.3647 7.07367C41.3481 7.1945 41.2578 7.29173 41.1397 7.31673C41.1189 7.32228 41.0981 7.32367 41.0786 7.32367ZM39.2828 3.62645L40.8995 6.20562L41.0606 5.02784C41.0661 4.99172 41.0689 4.95701 41.0703 4.92228L41.0717 4.88895C41.0731 4.86672 41.0731 4.84312 41.0731 4.82089L41.0717 4.782C41.0703 4.76256 41.0703 4.74311 41.0675 4.72367L41.0592 4.65978C41.0592 4.65839 41.0578 4.64867 41.055 4.63895C41.0467 4.59173 41.037 4.55006 41.0258 4.51395C41.0258 4.51256 41.0245 4.51117 41.0245 4.50839C41.0217 4.50145 41.0189 4.4945 41.0161 4.48756C41.0078 4.46395 40.9995 4.44034 40.9897 4.41812C40.9883 4.41395 40.9856 4.40839 40.9828 4.40145C40.98 4.39451 40.9758 4.38617 40.9745 4.38478C40.9661 4.36812 40.9578 4.35145 40.9495 4.33478C40.9467 4.33062 40.9397 4.31534 40.937 4.31117C40.9342 4.30561 40.9286 4.29589 40.9217 4.28617L39.5022 2.02089L39.2828 3.62645Z" fill="#F0FBFB"/>
<path d="M38.176 0.290283C38.8774 0.290283 39.3593 0.931951 39.251 1.72362L38.9829 3.69167L37.7718 12.5806C37.6635 13.3736 37.0079 14.0139 36.3065 14.0139H33.9496C33.2482 14.0139 32.7663 13.3722 32.8746 12.5806L34.0857 3.69167L34.3538 1.72362C34.4621 0.930562 35.1176 0.290283 35.819 0.290283H38.176Z" fill="#F0FBFB"/>
<path d="M36.3052 14.3027H33.9482C33.5552 14.3027 33.1968 14.1416 32.9413 13.8486C32.6482 13.5138 32.5191 13.0375 32.5871 12.5416L34.0663 1.68468C34.1955 0.740235 34.9649 0.00134277 35.8177 0.00134277H38.1746C38.5677 0.00134277 38.926 0.162457 39.1816 0.455512C39.4746 0.790234 39.6038 1.26662 39.5357 1.76246L38.0566 12.6194C37.9288 13.5638 37.1593 14.3027 36.3052 14.3027ZM35.8191 0.579121C35.258 0.579121 34.7288 1.10968 34.6399 1.76246L33.1607 12.6194C33.1163 12.95 33.1941 13.2583 33.3774 13.468C33.5246 13.6361 33.7218 13.725 33.9496 13.725H36.3066C36.8677 13.725 37.3968 13.1944 37.4857 12.5416L38.9649 1.68468C39.0093 1.35412 38.9316 1.04579 38.7482 0.836066C38.601 0.668011 38.4038 0.579121 38.176 0.579121H35.8191Z" fill="#F0FBFB"/>
<path d="M26.8739 23.2069H22.2614C21.9239 23.2069 21.6128 23.1333 21.3364 22.9986C21.2572 22.9597 21.1822 22.9167 21.1086 22.8694C20.9628 22.7736 20.8295 22.6597 20.7114 22.5292C20.6225 22.4319 20.5419 22.325 20.4697 22.2097L22.5656 25.5528C22.9489 26.1639 23.5864 26.55 24.3572 26.55H28.9697L26.8739 23.2069Z" fill="#85D5DB"/>
<path d="M28.97 26.8388H24.3575C23.5145 26.8388 22.7728 26.4263 22.3214 25.7055L20.2256 22.3624C20.1409 22.2277 20.1825 22.0486 20.3172 21.9638C20.452 21.8791 20.6311 21.9194 20.7159 22.0555L20.7172 22.0569C20.7797 22.1555 20.8506 22.2486 20.927 22.3333C21.0297 22.4458 21.145 22.5444 21.27 22.6263C21.3325 22.668 21.3978 22.7055 21.4659 22.7374C21.7103 22.8569 21.9784 22.9166 22.2645 22.9166H26.877C26.977 22.9166 27.0686 22.968 27.1214 23.0527L29.2172 26.3958C29.2728 26.4847 29.2756 26.5972 29.2256 26.6888C29.1756 26.7805 29.0756 26.8388 28.97 26.8388ZM21.5534 23.393L22.8103 25.3999C23.1534 25.9472 23.7172 26.2624 24.3561 26.2624H28.4464L26.7131 23.4972H22.2603C22.0159 23.4958 21.7797 23.4611 21.5534 23.393Z" fill="#F0FBFB"/>
<path d="M82.4164 4.89863C82.4178 4.87085 82.4178 4.84307 82.4178 4.8153C82.4178 4.79863 82.4164 4.78336 82.415 4.76669C82.4137 4.74308 82.4123 4.71807 82.4095 4.69446C82.4081 4.6778 82.4053 4.66113 82.4025 4.64447C82.4012 4.62919 82.3998 4.61391 82.397 4.60002C82.3956 4.59446 82.3942 4.5903 82.3942 4.58474C82.3845 4.53196 82.3734 4.48058 82.3581 4.43058C82.3567 4.4278 82.3567 4.42502 82.3567 4.42224C82.3539 4.41391 82.3498 4.40558 82.347 4.39585C82.3373 4.3653 82.3261 4.33474 82.3136 4.30558C82.3109 4.30002 82.3095 4.29307 82.3067 4.28613C82.3025 4.2778 82.2984 4.26946 82.2942 4.26113C82.2845 4.23891 82.2734 4.21808 82.2623 4.19585C82.2581 4.18752 82.2539 4.17919 82.2498 4.17085C82.2414 4.15697 82.2331 4.14307 82.2248 4.12918L80.1289 0.786133C80.1428 0.806966 80.1539 0.830575 80.1664 0.852797C80.1775 0.87363 80.1887 0.895852 80.1984 0.918075C80.2053 0.931964 80.2123 0.947242 80.2178 0.96252C80.2303 0.991687 80.2414 1.02224 80.2512 1.05419C80.2553 1.0653 80.2595 1.07641 80.2623 1.08752C80.2775 1.13752 80.29 1.18891 80.2984 1.24307C80.3025 1.26252 80.3053 1.28197 80.3081 1.3028C80.3109 1.31947 80.3123 1.33613 80.315 1.3528C80.3178 1.37641 80.3192 1.40141 80.3206 1.42502C80.322 1.44168 80.3234 1.45696 80.3234 1.47363C80.3234 1.50141 80.3234 1.52919 80.322 1.55696C80.322 1.57085 80.322 1.58474 80.3206 1.59863C80.3178 1.6403 80.3136 1.68335 80.3081 1.72502L80.04 3.69308L82.1359 7.03613L82.4039 5.06808C82.4095 5.02502 82.4136 4.98335 82.4164 4.94169C82.4164 4.92641 82.4164 4.91252 82.4164 4.89863Z" fill="#D8F3F5"/>
<path d="M82.1343 7.32367C82.0357 7.32367 81.9426 7.27367 81.8898 7.18756L79.794 3.8445C79.7579 3.78756 79.744 3.7195 79.7523 3.65145L80.0204 1.68339C80.0246 1.64867 80.0287 1.61256 80.0301 1.57923V1.54589C80.0315 1.52228 80.0315 1.50006 80.0315 1.47784L80.0287 1.43895C80.0274 1.4195 80.0273 1.40006 80.0246 1.382L80.0218 1.35423C80.0176 1.32645 80.0162 1.30978 80.0135 1.29451C80.0065 1.25284 79.9968 1.21117 79.9843 1.17228C79.9843 1.17089 79.976 1.15006 79.976 1.14867C79.9676 1.12367 79.9593 1.10006 79.9496 1.07645C79.9454 1.06534 79.9398 1.05562 79.9357 1.0445C79.9273 1.02645 79.919 1.00978 79.9107 0.993116C79.8996 0.970894 79.8912 0.957002 79.8829 0.943114C79.7982 0.808391 79.8398 0.629227 79.9746 0.545893C80.1093 0.461171 80.2871 0.502838 80.3732 0.63756L82.469 3.98062C82.4801 3.99867 82.4898 4.01534 82.501 4.03339C82.5051 4.04172 82.5121 4.05284 82.5176 4.06534C82.5301 4.08895 82.544 4.11534 82.5565 4.14312C82.5621 4.15284 82.5676 4.16395 82.5718 4.17506C82.5746 4.18201 82.5815 4.19867 82.5829 4.20562C82.5954 4.23478 82.6093 4.27228 82.6218 4.30978C82.6246 4.31673 82.6287 4.32784 82.6329 4.33895C82.6343 4.3445 82.6371 4.35284 82.6385 4.36117C82.6537 4.40978 82.6662 4.46673 82.6787 4.52923C82.6801 4.53617 82.6815 4.54311 82.6829 4.55006C82.6857 4.5695 82.6885 4.58478 82.6898 4.59867C82.694 4.62923 82.6968 4.64867 82.6982 4.66811C82.701 4.69728 82.7023 4.72645 82.7037 4.75562C82.7051 4.77923 82.7065 4.7959 82.7065 4.81395C82.7065 4.84451 82.7065 4.87784 82.7051 4.90978V4.9195C82.7051 4.932 82.7051 4.94589 82.7037 4.95839C82.701 5.007 82.6968 5.057 82.6898 5.107L82.4204 7.07367C82.4037 7.1945 82.3135 7.29173 82.1954 7.31673C82.1746 7.32228 82.1551 7.32367 82.1343 7.32367ZM80.3398 3.62645L81.9565 6.20562L82.1176 5.02784C82.1218 4.99311 82.126 4.957 82.1273 4.92367V4.89034V4.88895C82.1287 4.86673 82.1287 4.84451 82.1287 4.82228L82.1273 4.79728C82.1273 4.79589 82.126 4.78339 82.126 4.78339C82.1246 4.76395 82.1246 4.74451 82.1218 4.72645L82.1135 4.66256C82.1135 4.66117 82.1121 4.65145 82.1093 4.64173C82.101 4.5945 82.0912 4.55423 82.0801 4.51673C82.0801 4.51534 82.0787 4.51256 82.0787 4.51117C82.076 4.50423 82.0732 4.49728 82.0718 4.49034C82.0635 4.46534 82.0551 4.44173 82.0454 4.41951C82.044 4.41673 82.0412 4.40978 82.0398 4.40284C82.0357 4.39589 82.0315 4.38617 82.0301 4.38339C82.0232 4.36812 82.0148 4.35145 82.0065 4.33478C82.0037 4.33062 81.9968 4.31534 81.9954 4.31117C81.9912 4.30422 81.9857 4.29451 81.9787 4.28339L80.5593 2.01812L80.3398 3.62645Z" fill="#F0FBFB"/>
<path d="M79.2316 0.290283C79.933 0.290283 80.4164 0.931951 80.308 1.72362L80.04 3.69167L78.8289 12.5806C78.7205 13.3736 78.0636 14.0139 77.3622 14.0139H75.0052C74.3039 14.0139 73.8219 13.3722 73.9303 12.5806L75.1414 3.69167L75.4094 1.72362C75.5178 0.930562 76.1747 0.290283 76.8747 0.290283H79.2316Z" fill="#F0FBFB"/>
<path d="M77.3608 14.3028H75.0039C74.6108 14.3028 74.2525 14.1417 73.997 13.8472C73.7039 13.5125 73.5747 13.0361 73.6428 12.5403L75.122 1.68333C75.2483 0.755555 76.0345 0 76.8733 0H79.2303C79.6233 0 79.9817 0.161111 80.2386 0.455555C80.5317 0.790278 80.6608 1.26667 80.5928 1.7625L79.1136 12.6194C78.9858 13.5639 78.215 14.3028 77.3608 14.3028ZM76.8747 0.579164C76.3233 0.579164 75.7831 1.12083 75.6956 1.7625L74.2164 12.6194C74.172 12.9486 74.2511 13.2583 74.4331 13.4681C74.5803 13.6361 74.7775 13.725 75.0053 13.725H77.3622C77.915 13.725 78.4553 13.1833 78.5428 12.5417L80.022 1.68472C80.0664 1.35556 79.9872 1.04583 79.8053 0.83611C79.6581 0.668054 79.4608 0.579164 79.2331 0.579164H76.8747Z" fill="#F0FBFB"/>
<path d="M83.2726 23.207L85.3671 26.5501H28.9699L26.874 23.207H83.2726Z" fill="#143038"/>
<path d="M85.3673 26.8389H28.9701C28.8701 26.8389 28.7784 26.7875 28.7256 26.7028L26.6298 23.3598C26.5742 23.2709 26.5715 23.1584 26.6215 23.0667C26.6715 22.975 26.7687 22.9181 26.8742 22.9181H83.2715C83.3715 22.9181 83.4631 22.9695 83.5159 23.0542L85.6117 26.3973C85.6673 26.4861 85.6701 26.5986 85.6201 26.6903C85.5701 26.782 85.4729 26.8389 85.3673 26.8389ZM29.1298 26.2611H84.8451L83.1117 23.4959H27.3965L29.1298 26.2611Z" fill="#F0FBFB"/>
<path d="M93.4747 9.5667C93.4761 9.51114 93.4788 9.45559 93.4775 9.40142C93.4775 9.36948 93.4747 9.33753 93.4733 9.30559C93.4705 9.25698 93.4677 9.20836 93.4636 9.15975C93.4608 9.12642 93.4552 9.09447 93.4511 9.06114C93.4469 9.03059 93.4441 9.00003 93.44 8.97086C93.4372 8.9542 93.433 8.93753 93.4302 8.92086C93.4261 8.89725 93.4219 8.87503 93.4163 8.85281C93.4052 8.80003 93.3927 8.74864 93.3788 8.69725C93.3733 8.67781 93.3691 8.65975 93.3636 8.64031C93.3608 8.63197 93.3594 8.62503 93.3566 8.6167C93.3511 8.59864 93.3427 8.58198 93.3372 8.56392C93.3163 8.50281 93.2941 8.4417 93.2691 8.38198C93.2636 8.36948 93.2608 8.35559 93.2552 8.34447C93.2483 8.32781 93.2386 8.31114 93.2302 8.29448C93.2094 8.25003 93.1886 8.20697 93.165 8.16531C93.1566 8.14864 93.1497 8.13198 93.14 8.1167C93.1233 8.08892 93.1066 8.06114 93.09 8.03336L90.9941 4.69031C91.0205 4.73336 91.0441 4.77781 91.0691 4.82364C91.0913 4.86531 91.1136 4.90975 91.1344 4.95281C91.1483 4.98198 91.1608 5.01114 91.1733 5.04031C91.1983 5.09864 91.2205 5.15975 91.2413 5.22225C91.2497 5.24725 91.2594 5.27225 91.2677 5.29864C91.2733 5.31809 91.2775 5.33614 91.283 5.35559C91.2969 5.40698 91.3094 5.45836 91.3205 5.51114C91.3247 5.53336 91.3302 5.55697 91.3344 5.5792C91.3427 5.62503 91.3497 5.67225 91.3566 5.72087C91.3608 5.7542 91.3663 5.78614 91.3691 5.81948C91.3733 5.8667 91.3761 5.91531 91.3788 5.96531C91.3802 5.99725 91.383 6.0292 91.383 6.06114C91.3844 6.11531 91.383 6.17086 91.3802 6.22642C91.3788 6.2542 91.3802 6.28058 91.3788 6.30836C91.3733 6.3917 91.3663 6.47642 91.3538 6.56253L89.4761 20.3417C89.4636 20.4292 89.4469 20.5167 89.4288 20.6028C89.4233 20.625 89.4191 20.6473 89.4136 20.6709C89.3955 20.7473 89.3747 20.8236 89.3511 20.8986C89.3483 20.907 89.3455 20.9167 89.3427 20.925C89.3163 21.007 89.2858 21.0875 89.2538 21.1681C89.2455 21.1889 89.2372 21.2098 89.2275 21.2306C89.1997 21.2973 89.1691 21.3625 89.1372 21.4264C89.1302 21.4403 89.1233 21.4556 89.1163 21.4695C89.1011 21.5 89.0816 21.5292 89.065 21.5598C89.0316 21.6209 88.9983 21.6806 88.9608 21.7389C88.9372 21.7778 88.9108 21.8139 88.8858 21.8514C88.8566 21.8931 88.8288 21.9348 88.7983 21.975C88.7691 22.0139 88.7372 22.0514 88.7066 22.0889C88.6788 22.1223 88.6524 22.157 88.6233 22.1889C88.5899 22.2264 88.5552 22.2625 88.5191 22.2986C88.4913 22.3278 88.4636 22.3584 88.4344 22.3861C88.3997 22.4209 88.3622 22.4514 88.3247 22.4848C88.2927 22.5125 88.2622 22.5417 88.2302 22.5681C88.1969 22.5959 88.1622 22.6195 88.1275 22.6459C88.0886 22.675 88.0483 22.7056 88.008 22.7334C87.9788 22.7528 87.9483 22.7709 87.9177 22.7889C87.865 22.8223 87.8136 22.8542 87.7594 22.8834C87.6941 22.9195 87.6288 22.9542 87.5608 22.9834C87.5608 22.9834 87.5608 22.9834 87.5594 22.9834C87.49 23.0139 87.4191 23.0417 87.3469 23.0667C87.3191 23.0764 87.2913 23.0848 87.2622 23.0945C87.2122 23.1098 87.1608 23.125 87.1094 23.1375C87.0802 23.1445 87.0511 23.1514 87.0219 23.1584C86.9677 23.1695 86.9136 23.1778 86.858 23.1861C86.833 23.1903 86.8066 23.1945 86.7816 23.1973C86.7011 23.2056 86.6205 23.2111 86.5399 23.2111H85.7275H83.2705L85.3663 26.5542H87.8233H88.6358C88.7163 26.5542 88.7969 26.5486 88.8775 26.5403C88.9038 26.5375 88.9288 26.5334 88.9538 26.5292C89.008 26.5223 89.0636 26.5125 89.1177 26.5014C89.1469 26.4959 89.1761 26.4889 89.2052 26.4806C89.2566 26.4681 89.308 26.4542 89.358 26.4375C89.3858 26.4292 89.415 26.4195 89.4427 26.4098C89.458 26.4042 89.4733 26.4014 89.4872 26.3959C89.5441 26.375 89.5997 26.3514 89.6552 26.3278C89.6552 26.3278 89.6552 26.3278 89.6566 26.3278C89.7122 26.3028 89.7677 26.2764 89.8219 26.2473C89.833 26.2417 89.8441 26.2334 89.8552 26.2278C89.9094 26.1986 89.9608 26.1667 90.0136 26.1334C90.0372 26.1195 90.0608 26.107 90.083 26.0917C90.09 26.0875 90.0969 26.082 90.1025 26.0764C90.1427 26.0486 90.1816 26.0195 90.2205 25.9889C90.2497 25.9681 90.2788 25.9486 90.3066 25.925C90.3122 25.9209 90.3177 25.9153 90.3233 25.9098C90.3552 25.8834 90.3858 25.8542 90.4177 25.8264C90.4483 25.8 90.4788 25.775 90.508 25.7473C90.515 25.7417 90.5205 25.7348 90.5275 25.7278C90.5566 25.7 90.5844 25.6695 90.6122 25.6403C90.64 25.6125 90.6677 25.5848 90.6955 25.5556C90.7025 25.5473 90.7094 25.5389 90.7163 25.5306C90.7455 25.4986 90.7719 25.4639 90.7997 25.4306C90.8233 25.4014 90.8483 25.375 90.8705 25.3459C90.8775 25.3361 90.8844 25.3264 90.8913 25.3167C90.9219 25.2764 90.9497 25.2348 90.9775 25.1931C90.9969 25.1639 91.0191 25.1375 91.0372 25.1084C91.0427 25.1 91.0469 25.0903 91.0525 25.082C91.0886 25.0236 91.1233 24.9639 91.1566 24.9028C91.1705 24.8778 91.1858 24.8556 91.1983 24.8306C91.2011 24.825 91.2038 24.8181 91.2066 24.8125C91.2136 24.7986 91.2205 24.7834 91.2274 24.7695C91.2594 24.7056 91.29 24.6403 91.3177 24.5736C91.3261 24.5528 91.3358 24.532 91.3441 24.5111C91.3497 24.4959 91.358 24.4806 91.3636 24.4653C91.3886 24.4 91.4122 24.3348 91.433 24.2681C91.4358 24.2598 91.4386 24.25 91.4413 24.2417C91.465 24.1667 91.4844 24.0903 91.5038 24.0139C91.5094 23.9917 91.515 23.9695 91.5191 23.9459C91.5372 23.8598 91.5538 23.7736 91.5663 23.6848L93.4441 9.90559C93.4552 9.81948 93.4636 9.73475 93.4691 9.65142C93.4747 9.62086 93.4733 9.59448 93.4747 9.5667Z" fill="#85D5DB"/>
<path d="M88.6384 26.8389H85.3675C85.2675 26.8389 85.1759 26.7875 85.1231 26.7028L83.0273 23.3598C82.9717 23.2709 82.9689 23.1584 83.0189 23.0667C83.0703 22.975 83.1661 22.9181 83.2717 22.9181H86.5425C86.6064 22.9181 86.6759 22.9139 86.755 22.9056C86.7675 22.9042 86.7786 22.9028 86.7911 22.9L86.8217 22.8959C86.8703 22.8889 86.9175 22.882 86.9661 22.8723C86.9925 22.8667 87.0175 22.8612 87.0425 22.8542C87.0884 22.8431 87.1328 22.8306 87.1773 22.8167C87.2078 22.807 87.23 22.8 87.2523 22.7931C87.3286 22.7667 87.3884 22.7431 87.4425 22.7195C87.4439 22.7195 87.4453 22.7181 87.4453 22.7181C87.505 22.6917 87.5634 22.6612 87.6203 22.6292C87.6689 22.6028 87.7161 22.5737 87.7634 22.5431L87.7981 22.5223C87.8134 22.5125 87.8286 22.5028 87.8439 22.4931C87.8731 22.4736 87.9009 22.4514 87.93 22.4306L87.9856 22.3889C88.0064 22.3736 88.0273 22.3584 88.0467 22.3431C88.0661 22.3264 88.0856 22.3098 88.105 22.2931L88.1564 22.2487C88.1828 22.2264 88.2092 22.2028 88.2342 22.1792C88.2523 22.1612 88.2717 22.1417 88.2898 22.1223L88.3231 22.0875C88.3523 22.0584 88.38 22.0292 88.4078 21.9986C88.4286 21.975 88.4481 21.9514 88.4662 21.9278L88.4842 21.9056C88.5189 21.8639 88.5439 21.8334 88.5675 21.8C88.5911 21.7681 88.6134 21.7361 88.6356 21.7028L88.6634 21.6611C88.6814 21.6362 88.6995 21.6098 88.7161 21.5834C88.7495 21.5292 88.7814 21.475 88.812 21.4195L88.8342 21.3806C88.8425 21.3667 88.8509 21.3528 88.8578 21.3375L88.8773 21.2973C88.9064 21.2389 88.9342 21.1792 88.9592 21.1181L88.9828 21.0611C89.0148 20.9806 89.0425 20.907 89.0634 20.8389C89.0634 20.8361 89.0689 20.8181 89.0703 20.8153C89.0925 20.7445 89.1106 20.675 89.1273 20.6042L89.1411 20.5431C89.1606 20.4514 89.1745 20.3764 89.1842 20.3042L91.062 6.52504C91.0717 6.45004 91.08 6.37226 91.0842 6.2931C91.0842 6.2806 91.0856 6.26671 91.0856 6.25421V6.21809C91.087 6.16671 91.0884 6.11671 91.0884 6.06671C91.0884 6.04726 91.087 6.02921 91.0856 6.00976L91.0842 5.98199C91.0814 5.93615 91.08 5.8931 91.0759 5.85004C91.0731 5.82643 91.0703 5.80282 91.0661 5.7792L91.0634 5.76254C91.0578 5.71948 91.0523 5.67782 91.0439 5.63615C91.0398 5.61532 91.0356 5.59587 91.0314 5.57504C91.0217 5.52782 91.0092 5.48198 90.9967 5.43615L90.9828 5.38476C90.98 5.37365 90.9759 5.36254 90.9717 5.35143L90.9606 5.31948C90.9425 5.26393 90.9217 5.20976 90.9009 5.15699C90.8898 5.1306 90.8786 5.10559 90.8661 5.08059C90.8481 5.0417 90.8286 5.00282 90.8078 4.96532L90.7981 4.94726C90.78 4.91393 90.762 4.8806 90.7425 4.84865C90.6578 4.71393 90.6995 4.53476 90.8342 4.45004C90.9703 4.36531 91.1481 4.40559 91.2328 4.5417L93.3286 7.88476C93.3481 7.91532 93.3661 7.94726 93.3842 7.9792C93.3925 7.99448 93.4009 8.00976 93.4078 8.02504C93.4384 8.08198 93.462 8.13059 93.4856 8.1806C93.4981 8.20421 93.5064 8.22087 93.5134 8.23754C93.5189 8.24865 93.5245 8.26393 93.5286 8.27921C93.5564 8.34448 93.58 8.41115 93.6036 8.4806C93.6134 8.5056 93.6203 8.52226 93.6259 8.53893C93.6273 8.54309 93.6314 8.55976 93.6328 8.56393L93.6495 8.62643C93.6648 8.68337 93.6786 8.74032 93.6912 8.79865C93.6967 8.82504 93.7023 8.84865 93.7064 8.87365L93.7092 8.88893C93.712 8.90282 93.7148 8.91671 93.7175 8.93059C93.7217 8.95282 93.7245 8.97643 93.7273 9.00143L93.7342 9.05421C93.7384 9.08198 93.7411 9.10976 93.7453 9.13893C93.7509 9.19032 93.7536 9.24449 93.7564 9.29726L93.7578 9.32504C93.7592 9.35143 93.7606 9.37643 93.762 9.40282C93.7634 9.46115 93.762 9.52087 93.7592 9.58198C93.7592 9.58198 93.7592 9.58198 93.7592 9.58337V9.61115C93.7592 9.63198 93.7592 9.65282 93.7578 9.67365C93.7523 9.7681 93.7439 9.86115 93.7314 9.95004L91.8536 23.7292C91.8425 23.8139 91.8259 23.9042 91.8023 24.0125C91.7967 24.0375 91.7911 24.0625 91.7856 24.0875C91.7661 24.1695 91.7439 24.2514 91.7189 24.3334L91.7106 24.3639C91.6884 24.4348 91.6634 24.5056 91.6356 24.5764C91.6314 24.5889 91.6259 24.6 91.6217 24.6112L91.5912 24.6862C91.5578 24.7653 91.5245 24.8362 91.4898 24.9056L91.4564 24.9723C91.4467 24.9903 91.4356 25.0098 91.4245 25.0278L91.412 25.05C91.3759 25.1153 91.3384 25.1806 91.2995 25.2431C91.2939 25.2528 91.2884 25.2639 91.2814 25.2737C91.2689 25.2945 91.2536 25.3153 91.2384 25.3362L91.2064 25.382C91.18 25.4209 91.1523 25.4598 91.1245 25.4973C91.1161 25.5098 91.1092 25.5195 91.1023 25.5292C91.0856 25.5514 91.0675 25.5709 91.0509 25.5917L91.0106 25.6403C90.987 25.6695 90.962 25.7 90.937 25.7278C90.9286 25.7389 90.9217 25.7473 90.9148 25.7556C90.8939 25.7792 90.8731 25.8 90.8509 25.8209L90.8023 25.8709C90.7786 25.8945 90.7564 25.9195 90.7314 25.9417C90.7259 25.9473 90.7189 25.9556 90.7106 25.9625C90.6884 25.9834 90.6661 26.0028 90.6425 26.0223L90.5884 26.0695C90.562 26.0931 90.537 26.1153 90.5092 26.1375C90.505 26.1417 90.4981 26.1473 90.4911 26.1528C90.4689 26.1709 90.4481 26.1862 90.4259 26.2014L90.3731 26.2403C90.3384 26.2667 90.3036 26.2931 90.2675 26.3167C90.262 26.3209 90.2536 26.3278 90.2439 26.3334C90.2273 26.3445 90.2078 26.3556 90.1884 26.3667L90.1689 26.3778C90.112 26.4139 90.055 26.4487 89.9953 26.4806C89.9828 26.4889 89.9717 26.4959 89.9592 26.5014C89.8981 26.5334 89.837 26.5625 89.7759 26.5903C89.7745 26.5903 89.7731 26.5917 89.7717 26.5917C89.712 26.6181 89.6509 26.6431 89.5884 26.6667C89.5759 26.6709 89.562 26.6764 89.5481 26.6806C89.5106 26.6931 89.4814 26.7028 89.4523 26.7112C89.3898 26.7306 89.3328 26.7459 89.2759 26.7612C89.2439 26.7695 89.212 26.7764 89.1786 26.7834C89.1189 26.7959 89.0578 26.8056 88.9953 26.8139L88.9717 26.8167C88.9509 26.8195 88.93 26.8237 88.9078 26.825C88.812 26.8334 88.7231 26.8389 88.6384 26.8389ZM85.5286 26.2612H88.6384C88.7023 26.2612 88.7717 26.257 88.8509 26.2487C88.8634 26.2473 88.8759 26.2459 88.887 26.2431L88.9175 26.2389C88.9662 26.232 89.0134 26.225 89.062 26.2153C89.0884 26.2098 89.1134 26.2042 89.1384 26.1973C89.1842 26.1862 89.2286 26.1737 89.2745 26.1598C89.3036 26.15 89.3273 26.1431 89.3495 26.1362L89.3814 26.1264C89.4411 26.1056 89.4898 26.0848 89.5398 26.0625C89.5411 26.0625 89.5425 26.0612 89.5425 26.0612C89.5912 26.0389 89.6411 26.0153 89.6884 25.9903C89.6967 25.9848 89.7078 25.9778 89.7175 25.9723C89.7661 25.9459 89.8134 25.9167 89.8606 25.8875C89.8745 25.8792 89.8884 25.8709 89.9023 25.8625C89.9092 25.8584 89.9175 25.8542 89.9245 25.85C89.9273 25.8473 89.9342 25.8417 89.9412 25.8375C89.9703 25.8181 89.9967 25.7973 90.0245 25.7764L90.0911 25.7278C90.1036 25.7181 90.1161 25.7098 90.1286 25.7L90.1439 25.6862C90.1648 25.6695 90.1828 25.6528 90.2023 25.6362L90.2675 25.5792C90.2828 25.5667 90.2981 25.5528 90.3134 25.5389C90.3161 25.5362 90.3259 25.525 90.33 25.5223C90.3495 25.5042 90.3662 25.4862 90.3842 25.4681L90.4425 25.4084C90.4564 25.3945 90.4717 25.3792 90.4842 25.3653C90.4911 25.357 90.4967 25.3487 90.5036 25.3417C90.5231 25.3195 90.5425 25.2959 90.562 25.2723L90.612 25.2125C90.6231 25.2 90.6342 25.1862 90.6453 25.1723C90.6509 25.1625 90.6578 25.1542 90.6634 25.1459C90.687 25.1139 90.7092 25.082 90.7314 25.05L90.7731 24.9917C90.7814 24.9792 90.7911 24.9681 90.7995 24.9542C90.8036 24.9459 90.8092 24.9375 90.8148 24.9292C90.8481 24.8764 90.8786 24.8209 90.9106 24.7653C90.9189 24.7514 90.9273 24.7375 90.9342 24.7236C90.9398 24.7153 90.9439 24.707 90.9481 24.6987L90.9759 24.6417C91.005 24.582 91.0328 24.5223 91.0592 24.4612L91.1009 24.3625C91.1245 24.3028 91.1453 24.2431 91.1648 24.182L91.1731 24.1542C91.1939 24.0889 91.212 24.0181 91.2286 23.9473C91.2342 23.9264 91.2384 23.9056 91.2425 23.8862C91.262 23.7931 91.2759 23.7167 91.2856 23.6473L93.1634 9.86809C93.1731 9.79309 93.1814 9.71532 93.1856 9.63615C93.1856 9.62365 93.1856 9.61254 93.187 9.60004L93.1884 9.56115C93.1898 9.51115 93.1911 9.46115 93.1911 9.41254C93.1911 9.39309 93.1898 9.37504 93.1884 9.35837L93.187 9.32504C93.1842 9.28198 93.1828 9.23754 93.1786 9.19448C93.1759 9.17226 93.1731 9.15143 93.1703 9.13059L93.162 9.06532C93.1606 9.05143 93.1592 9.03754 93.1564 9.02365L93.1342 8.91532C93.1245 8.86949 93.1134 8.82365 93.1009 8.77782L93.087 8.72643C93.0856 8.72365 93.0828 8.70976 93.0814 8.7056C93.0731 8.68476 93.0675 8.67087 93.0634 8.65698C93.0453 8.60421 93.0259 8.55004 93.0036 8.49726C92.9981 8.48476 92.9939 8.47365 92.9898 8.46115C92.98 8.44309 92.9745 8.43199 92.9689 8.42087C92.9509 8.3806 92.9314 8.34309 92.9106 8.30559C92.9037 8.29309 92.8981 8.28198 92.8925 8.26948C92.8745 8.23754 92.8606 8.21254 92.8453 8.18893L91.6675 6.31115C91.6675 6.31671 91.6675 6.32087 91.6661 6.32643C91.6606 6.42087 91.6523 6.51393 91.6398 6.60281L89.762 20.382C89.7509 20.4681 89.7328 20.5611 89.7106 20.6653C89.705 20.6889 89.6995 20.7139 89.6939 20.7375C89.6745 20.8209 89.6523 20.9042 89.6273 20.9848L89.6203 21.0098C89.5925 21.0959 89.562 21.182 89.5231 21.2764L89.4995 21.332C89.4648 21.4139 89.4314 21.4848 89.3981 21.5542L89.3745 21.6028C89.3634 21.625 89.3509 21.6473 89.337 21.6709L89.3203 21.7C89.2842 21.7653 89.2481 21.8306 89.2078 21.8931C89.187 21.9264 89.1648 21.9584 89.1425 21.9903L89.1162 22.0292C89.0884 22.0695 89.062 22.1084 89.0328 22.1473C89.0036 22.1861 88.9731 22.2237 88.9425 22.2612L88.9175 22.2917C88.8939 22.3223 88.8689 22.3514 88.8425 22.3806C88.8106 22.4181 88.7759 22.4528 88.7411 22.4889L88.7106 22.5209C88.687 22.5459 88.6634 22.5709 88.6384 22.5945C88.6064 22.625 88.5745 22.6542 88.5411 22.6834L88.4953 22.725C88.4689 22.7487 88.4439 22.7709 88.4161 22.7931C88.3898 22.8153 88.362 22.8362 88.3328 22.857L88.2828 22.8945C88.2467 22.9223 88.2106 22.9487 88.1731 22.9737C88.1509 22.9889 88.1273 23.0042 88.1036 23.0181L88.0759 23.0348C88.0189 23.0709 87.9606 23.1056 87.9023 23.1389C87.8384 23.1737 87.7634 23.2139 87.6842 23.2486C87.68 23.25 87.6759 23.2528 87.6717 23.2542C87.6009 23.2848 87.5314 23.3125 87.4495 23.3417C87.4203 23.3514 87.3925 23.3612 87.3634 23.3695C87.2995 23.3889 87.2425 23.4056 87.1856 23.4195C87.1536 23.4278 87.1217 23.4348 87.0884 23.4417C87.0273 23.4542 86.9661 23.4639 86.905 23.4723L86.8814 23.475C86.8606 23.4778 86.8398 23.4806 86.8189 23.4834C86.7203 23.4931 86.6314 23.4987 86.5467 23.4987H83.7981L85.5286 26.2612Z" fill="#F0FBFB"/>
<path d="M38.8243 36.7417L40.9202 40.0848H25.0118L22.916 36.7417H38.8243Z" fill="#787070"/>
<path d="M40.9204 40.3736H25.0121C24.9121 40.3736 24.8204 40.3222 24.7676 40.2375L22.6718 36.8944C22.6162 36.8055 22.6135 36.693 22.6635 36.6014C22.7135 36.5097 22.8107 36.4528 22.9162 36.4528H38.8246C38.9246 36.4528 39.0162 36.5041 39.069 36.5889L41.1648 39.9319C41.2204 40.0208 41.2232 40.1333 41.1732 40.225C41.1232 40.3166 41.026 40.3736 40.9204 40.3736ZM25.1718 39.7958H40.3982L38.6648 37.0305H23.4385L25.1718 39.7958Z" fill="#F0FBFB"/>
<path d="M85.3672 26.55L83.2728 23.2069L75.3658 50.2389L70.7158 66.1361L69.877 69.0027L71.9714 72.3458L72.8103 69.4791L77.4575 53.5944L85.3672 26.55Z" fill="#D8F3F5"/>
<path d="M72.069 73.0444L69.5635 69.0458L75.3107 49.4014L83.176 22.5083L85.6815 26.5069L85.6454 26.6319L77.7357 53.6764L72.069 73.0444ZM70.1899 68.9597L71.8746 71.6486L85.0538 26.5944L83.369 23.9055L75.4218 51.0777L70.1899 68.9597Z" fill="#F0FBFB"/>
<path d="M75.3407 50.2778L70.7157 66.1362L69.8768 69.0028H53.2852L75.3407 50.2778Z" fill="#D8F3F5"/>
<path d="M69.8773 69.2917H53.2856C53.1648 69.2917 53.0564 69.2167 53.0148 69.1028C52.9731 68.9889 53.0064 68.8612 53.0995 68.7834L75.1551 50.0584C75.2523 49.9764 75.3925 49.9667 75.4995 50.0362C75.6064 50.1056 75.655 50.2375 75.6203 50.3598L70.9953 66.2181L70.1564 69.0862C70.1175 69.207 70.005 69.2917 69.8773 69.2917ZM54.0717 68.7139H69.6606L70.4384 66.0542L74.7939 51.1209L54.0717 68.7139Z" fill="#F0FBFB"/>
<path d="M26.8744 23.207H83.273L75.3591 50.264L58.7632 50.2779L53.2855 69.0029H13.4785L16.2174 59.6404H32.1257L38.8243 36.7418H22.916L26.8744 23.207Z" fill="#F0FBFB"/>
<path d="M53.2857 69.2917H13.4788C13.3885 69.2917 13.3024 69.2486 13.2482 69.1764C13.1941 69.1042 13.176 69.0098 13.2024 68.9223L15.9413 59.5598C15.9774 59.4361 16.0899 59.3514 16.2191 59.3514H31.9107L38.4399 37.0306H22.9163C22.826 37.0306 22.7399 36.9875 22.6857 36.9153C22.6316 36.8431 22.6135 36.7487 22.6399 36.6612L26.5996 23.1264C26.6357 23.0028 26.7482 22.9181 26.8774 22.9181H83.2746C83.3663 22.9181 83.451 22.9611 83.5052 23.0334C83.5594 23.1056 83.5774 23.2 83.551 23.2875L75.6371 50.3445C75.601 50.4681 75.4885 50.5528 75.3607 50.5528L58.9816 50.5667L53.5635 69.0848C53.526 69.207 53.4135 69.2917 53.2857 69.2917ZM13.8649 68.7139H53.0691L58.4871 50.1959C58.5232 50.0723 58.6357 49.9875 58.7635 49.9875L75.1427 49.9736L82.8871 23.4945H27.0913L23.301 36.4514H38.8246C38.9149 36.4514 39.001 36.4945 39.0552 36.5667C39.1094 36.6389 39.1274 36.7334 39.101 36.8209L32.4024 59.7195C32.3663 59.8431 32.2538 59.9278 32.1246 59.9278H16.4344L13.8649 68.7139Z" fill="#F0FBFB"/>
<path d="M40.9547 23.075L40.9158 23.2069L40.8033 23.5902L36.0492 39.8416L35.8978 40.3569L31.145 56.6083L30.9936 57.125L27.5186 69.0027H27.0645L30.5395 57.125L30.6908 56.6097L35.4436 40.3583L35.595 39.843L40.3492 23.5902L40.4603 23.2069L40.4992 23.075H40.9547Z" fill="#F0FBFB"/>
<path d="M55.7255 23.0597L55.6824 23.2069L55.5755 23.575L50.8213 39.8264L50.6713 40.3416H50.6699L45.9172 56.5944L45.7658 57.1097L42.2866 69.0028H41.8311L45.3116 57.1097L45.4616 56.5944L50.2158 40.343L50.3658 39.8278L55.1199 23.575H55.1213L55.2283 23.2069L55.2699 23.0597H55.7255Z" fill="#F0FBFB"/>
<path d="M70.4982 23.0444L70.451 23.2069L70.3482 23.5597L65.594 39.8111L65.4441 40.3264L60.6885 56.5792L60.5385 57.0944L57.0552 69.0028H56.5996L60.0843 57.0944L60.2343 56.5792L64.9885 40.3278L65.1399 39.8125L69.8927 23.5611L69.9968 23.2069L70.0441 23.0444H70.4982Z" fill="#F0FBFB"/>
<path d="M78.4202 39.7986L78.2688 40.3139L65.4438 40.3264L64.9882 40.3278L50.6716 40.3416H50.6702L50.216 40.343L35.898 40.3569L35.4438 40.3583L21.8535 40.3722L22.0049 39.8569L35.5952 39.843L36.0493 39.8416L50.366 39.8278L50.8216 39.8264L65.1396 39.8125L65.5938 39.8111L78.4202 39.7986Z" fill="#F0FBFB"/>
<path d="M73.5159 56.5653L73.3645 57.0806L60.5381 57.0945H60.0839L45.7659 57.1097H45.3117L30.9937 57.125H30.5395L16.9492 57.1389L17.1006 56.6236L30.6909 56.6097L31.1451 56.6084L45.4617 56.5945H45.9173L60.2339 56.5792H60.6881L73.5159 56.5653Z" fill="#F0FBFB"/>
<path d="M69.8771 69.0028H53.2855H13.4785L15.5743 72.3459H55.3813H71.9716L69.8771 69.0028Z" fill="#4BBAC5"/>
<path d="M71.9718 72.6348H15.5746C15.4746 72.6348 15.3829 72.5834 15.3301 72.4987L13.2343 69.157C13.1787 69.0681 13.176 68.9556 13.226 68.8639C13.276 68.7723 13.3732 68.7153 13.4787 68.7153H69.876C69.976 68.7153 70.0676 68.7667 70.1204 68.8514L72.2162 72.1945C72.2718 72.2834 72.2746 72.3959 72.2246 72.4876C72.1746 72.5778 72.0774 72.6348 71.9718 72.6348ZM15.7343 72.057H71.4496L69.7162 69.2917H14.001L15.7343 72.057Z" fill="#F0FBFB"/>
<path d="M22.9155 36.7417H38.8238L32.1252 59.6403H16.2168H0.289062L6.98767 36.7417H22.9155ZM32.253 43.0459C32.5349 43.0459 32.7974 42.7889 32.8405 42.4723C32.8835 42.1542 32.6918 41.8986 32.4099 41.8986H10.0446C9.76406 41.8986 9.50156 42.1556 9.45851 42.4723C9.41545 42.7889 9.60851 43.0459 9.88767 43.0459H32.253ZM31.0335 47.2181C31.3155 47.2181 31.578 46.9611 31.621 46.6445C31.6641 46.3264 31.4724 46.0709 31.1905 46.0709H8.82517C8.54462 46.0709 8.28212 46.3278 8.23906 46.6445C8.19601 46.9611 8.38906 47.2181 8.66823 47.2181H31.0335ZM29.8127 51.3917C30.0946 51.3917 30.3571 51.1348 30.4002 50.8181C30.4432 50.5014 30.2502 50.2445 29.9696 50.2445H15.228C14.946 50.2445 14.6835 50.5014 14.6405 50.8181C14.5974 51.1361 14.7891 51.3917 15.071 51.3917H29.8127Z" fill="#85D5DB"/>
<path d="M32.1255 59.9291H0.289345C0.199067 59.9291 0.112956 59.8861 0.0587891 59.8139C0.00462242 59.7416 -0.0134334 59.6472 0.0129555 59.5597L6.71157 36.6611C6.74768 36.5375 6.86018 36.4528 6.98934 36.4528H38.8255C38.9157 36.4528 39.0018 36.4958 39.056 36.568C39.1102 36.6403 39.1282 36.7347 39.1018 36.8222L32.4032 59.7208C32.3671 59.8444 32.2532 59.9291 32.1255 59.9291ZM0.674066 59.3514H31.9088L38.438 37.0305H7.20462L0.674066 59.3514ZM29.813 51.6805H15.0713C14.863 51.6805 14.6727 51.5944 14.538 51.4389C14.388 51.2666 14.3213 51.0264 14.3546 50.7778C14.4171 50.3166 14.8005 49.9555 15.2282 49.9555H29.9685C30.1768 49.9555 30.3671 50.0416 30.5032 50.1972C30.6532 50.3694 30.7199 50.6097 30.6866 50.8569C30.6227 51.318 30.2393 51.6805 29.813 51.6805ZM15.2282 50.5333C15.1074 50.5333 14.9532 50.6666 14.9268 50.8569C14.9157 50.9403 14.9324 51.0139 14.9727 51.0597C14.9977 51.0889 15.031 51.1028 15.0713 51.1028H29.813C29.9338 51.1028 30.088 50.9694 30.1143 50.7778C30.1255 50.6958 30.1088 50.6222 30.0685 50.5764C30.0421 50.5472 30.0102 50.5333 29.9699 50.5333H15.2282ZM31.0338 47.5069H8.66851C8.46018 47.5069 8.27129 47.4208 8.13518 47.2653C7.98518 47.093 7.91851 46.8528 7.95185 46.6055C8.01435 46.143 8.39768 45.7819 8.82407 45.7819H31.188C31.3963 45.7819 31.5866 45.868 31.7213 46.0236C31.8713 46.1958 31.938 46.4361 31.9046 46.6847C31.8435 47.1458 31.4602 47.5069 31.0338 47.5069ZM8.82546 46.3597C8.70462 46.3597 8.55185 46.493 8.52546 46.6847C8.51435 46.7666 8.53101 46.8403 8.57129 46.8861C8.59629 46.9153 8.62823 46.9291 8.66851 46.9291H31.0324C31.1532 46.9291 31.3074 46.7958 31.3338 46.6055C31.3449 46.5222 31.3282 46.4486 31.288 46.4028C31.263 46.3736 31.2296 46.3597 31.1893 46.3597H8.82546ZM32.2532 43.3347H9.88935C9.68101 43.3347 9.49212 43.2486 9.35601 43.093C9.20601 42.9208 9.13934 42.6805 9.17268 42.4333C9.23518 41.9708 9.61851 41.6097 10.0449 41.6097H32.4088C32.6171 41.6097 32.8074 41.6958 32.9421 41.8514C33.0921 42.0236 33.1588 42.2639 33.1255 42.5125C33.0643 42.9736 32.681 43.3347 32.2532 43.3347ZM10.0449 42.1875C9.92407 42.1875 9.77129 42.3208 9.7449 42.5125C9.73379 42.5944 9.75046 42.668 9.79074 42.7139C9.81573 42.743 9.84768 42.7569 9.88796 42.7569H32.2518C32.3727 42.7569 32.5268 42.6236 32.5518 42.4333C32.563 42.35 32.5463 42.2764 32.506 42.2305C32.481 42.2014 32.4477 42.1875 32.4074 42.1875H10.0449Z" fill="#F0FBFB"/>
<path d="M32.1262 59.6404H16.2178H0.290039L2.38448 62.9834H18.3137H34.222L32.1262 59.6404Z" fill="#4BBAC5"/>
<path d="M34.2216 63.2723H2.38414C2.28414 63.2723 2.19247 63.2209 2.13969 63.1362L0.0438595 59.7931C-0.0116961 59.7042 -0.0144735 59.5917 0.0355265 59.5C0.0869154 59.4084 0.182748 59.3514 0.288303 59.3514H32.1244C32.2244 59.3514 32.3161 59.4028 32.3689 59.4875L34.4647 62.8306C34.5202 62.9195 34.523 63.032 34.473 63.1237C34.423 63.2153 34.3272 63.2723 34.2216 63.2723ZM2.54386 62.6945H33.6994L31.9661 59.9292H0.810527L2.54386 62.6945Z" fill="#F0FBFB"/>
<path d="M38.8236 36.7417L40.9194 40.0848L34.2208 62.9834L32.125 59.6403L38.8236 36.7417Z" fill="#85D5DB"/>
<path d="M34.2212 63.2723C34.1226 63.2723 34.0296 63.2223 33.9768 63.1361L31.881 59.7931C31.8365 59.7236 31.8254 59.6375 31.849 59.5584L38.5476 36.6598C38.5796 36.55 38.6726 36.4709 38.7851 36.4542C38.8976 36.4389 39.0087 36.4903 39.0698 36.5875L41.1657 39.9306C41.2101 40 41.2212 40.0861 41.1976 40.1653L34.499 63.0639C34.4671 63.1736 34.374 63.2528 34.2615 63.2695C34.2476 63.2723 34.2337 63.2723 34.2212 63.2723ZM32.4393 59.5973L34.124 62.2861L40.606 40.1292L38.9212 37.4403L32.4393 59.5973Z" fill="#F0FBFB"/>
<path d="M75.3407 50.2778L53.2852 69.0028L58.7629 50.2778H75.3407Z" fill="#85D5DB"/>
<path d="M53.2853 69.2917C53.2311 69.2917 53.1755 69.2764 53.1283 69.2445C53.0214 69.1751 52.9728 69.0431 53.0089 68.9209L58.4867 50.1959C58.5228 50.0723 58.6353 49.9875 58.7644 49.9875H75.3422C75.463 49.9875 75.5714 50.0626 75.6131 50.1764C75.6547 50.2903 75.6214 50.4181 75.5283 50.4959L53.4728 69.2209C53.4186 69.2695 53.3519 69.2917 53.2853 69.2917ZM58.9797 50.5667L53.8325 68.1584L74.5533 50.5667H58.9797Z" fill="#F0FBFB"/>
<path d="M89.2018 3.69177C90.6046 3.69177 91.5671 4.9765 91.3518 6.56122L89.4741 20.3404C89.2588 21.9237 87.9449 23.2084 86.5421 23.2084H85.7296H83.2727H26.8741H22.2616C20.8574 23.2084 19.8949 21.9237 20.1102 20.3404L21.988 6.56122C22.2046 4.9765 23.5171 3.69177 24.9213 3.69177H34.0852L32.8741 12.5807C32.7657 13.3737 33.2463 14.014 33.9491 14.014H36.306C37.0074 14.014 37.6643 13.3723 37.7713 12.5807L38.9824 3.69177H75.1407L73.9296 12.5807C73.8213 13.3737 74.3032 14.014 75.0046 14.014H77.3616C78.063 14.014 78.7199 13.3723 78.8282 12.5807L80.0393 3.69177H89.2018Z" fill="#276572"/>
<path d="M86.5425 23.4959H22.2619C21.5591 23.4959 20.9216 23.2084 20.4647 22.6848C19.9341 22.0764 19.7008 21.2084 19.8244 20.3001L21.7022 6.52089C21.9369 4.80144 23.38 3.40283 24.9216 3.40283H34.0855C34.1689 3.40283 34.248 3.43894 34.3036 3.50144C34.3591 3.56394 34.3841 3.64727 34.3716 3.73061L33.1605 12.6195C33.1161 12.9501 33.1939 13.2584 33.3772 13.4681C33.5244 13.6362 33.7216 13.7251 33.9494 13.7251H36.3064C36.8675 13.7251 37.3966 13.1945 37.4855 12.5417L38.6966 3.65283C38.7161 3.50977 38.8383 3.40283 38.9827 3.40283H75.1411C75.2244 3.40283 75.3036 3.43894 75.3591 3.50144C75.4133 3.56394 75.4383 3.64727 75.4272 3.73061L74.2161 12.6195C74.1716 12.9487 74.2508 13.2584 74.4327 13.4681C74.58 13.6362 74.7772 13.7251 75.005 13.7251H77.3619C77.9147 13.7251 78.455 13.1834 78.5425 12.5417L79.7536 3.65283C79.773 3.50977 79.8952 3.40283 80.0397 3.40283H89.2036C89.905 3.40283 90.5425 3.69033 90.9994 4.21394C91.53 4.82228 91.7633 5.69172 91.6397 6.60005L89.7619 20.3792C89.5258 22.0973 88.0827 23.4959 86.5425 23.4959ZM24.9216 3.98061C23.6591 3.98061 22.4716 5.15561 22.2744 6.60005L20.3966 20.3792C20.2952 21.1209 20.4786 21.8237 20.8994 22.3056C21.2452 22.7014 21.7286 22.9195 22.2619 22.9195H86.5425C87.805 22.9195 88.9911 21.7459 89.1883 20.3014L91.0661 6.52228C91.1675 5.77922 90.9841 5.07644 90.5633 4.5945C90.2189 4.19866 89.7355 3.982 89.2022 3.982H80.2911L79.1133 12.6209C78.9841 13.5653 78.2147 14.3042 77.3605 14.3042H75.0036C74.6105 14.3042 74.2522 14.1431 73.9966 13.8487C73.7036 13.5139 73.5744 13.0376 73.6425 12.5417L74.8091 3.98061H39.2355L38.0577 12.6195C37.9286 13.5639 37.1591 14.3028 36.3064 14.3028H33.9494C33.5564 14.3028 33.198 14.1417 32.9425 13.8487C32.6494 13.5139 32.5202 13.0376 32.5883 12.5417L33.755 3.98061H24.9216Z" fill="#F0FBFB"/>
<path d="M29.9686 50.2445C30.2505 50.2445 30.4422 50.5015 30.3991 50.8181C30.3561 51.1362 30.0936 51.3917 29.8116 51.3917H15.0714C14.7894 51.3917 14.5977 51.1348 14.6408 50.8181C14.6839 50.5015 14.9464 50.2445 15.2283 50.2445H29.9686Z" fill="#276572"/>
<path d="M29.8134 51.6806H15.0718C14.8634 51.6806 14.6731 51.5945 14.5384 51.4389C14.3884 51.2667 14.3218 51.0264 14.3551 50.7778C14.4176 50.3167 14.8009 49.9556 15.2287 49.9556H29.969C30.1773 49.9556 30.3676 50.0417 30.5037 50.1972C30.6537 50.3695 30.7204 50.6097 30.687 50.857C30.6231 51.3181 30.2398 51.6806 29.8134 51.6806ZM15.2287 50.5333C15.1079 50.5333 14.9537 50.6667 14.9273 50.857C14.9162 50.9403 14.9329 51.0139 14.9731 51.0597C14.9981 51.0889 15.0315 51.1028 15.0718 51.1028H29.8134C29.9343 51.1028 30.0884 50.9695 30.1148 50.7778C30.1259 50.6958 30.1093 50.6222 30.069 50.5764C30.044 50.5472 30.0106 50.5333 29.9704 50.5333H15.2287Z" fill="#276572"/>
<path d="M32.4111 41.8987C32.6931 41.8987 32.8847 42.1556 32.8417 42.4723C32.7986 42.789 32.5361 43.0459 32.2542 43.0459H9.89029C9.60973 43.0459 9.41806 42.789 9.46112 42.4723C9.50417 42.1542 9.76667 41.8987 10.0472 41.8987H32.4111Z" fill="#276572"/>
<path d="M32.254 43.3347H9.89012C9.68178 43.3347 9.4929 43.2486 9.35679 43.0931C9.20679 42.9209 9.14012 42.6806 9.17345 42.4334C9.23595 41.9709 9.61928 41.6097 10.0457 41.6097H32.4096C32.6179 41.6097 32.8082 41.6959 32.9429 41.8514C33.0929 42.0236 33.1596 42.2639 33.1262 42.5125C33.0651 42.9736 32.6804 43.3347 32.254 43.3347ZM10.0457 42.1875C9.92484 42.1875 9.77206 42.3209 9.74567 42.5125C9.73456 42.5945 9.75123 42.6681 9.79151 42.7139C9.81651 42.7431 9.84845 42.757 9.88873 42.757H32.2526C32.3735 42.757 32.5276 42.6236 32.554 42.4334C32.5651 42.35 32.5485 42.2764 32.5082 42.2306C32.4832 42.2014 32.4498 42.1875 32.4096 42.1875H10.0457Z" fill="#276572"/>
<path d="M31.1894 46.0709C31.4714 46.0709 31.663 46.3279 31.62 46.6445C31.5769 46.9612 31.3144 47.2181 31.0325 47.2181H8.66861C8.38805 47.2181 8.19638 46.9612 8.23944 46.6445C8.28249 46.3265 8.545 46.0709 8.82555 46.0709H31.1894Z" fill="#276572"/>
<path d="M31.0337 47.507H8.66844C8.46011 47.507 8.27121 47.4209 8.1351 47.2653C7.9851 47.0931 7.91844 46.8528 7.95177 46.6056C8.01427 46.1431 8.3976 45.782 8.82399 45.782H31.1879C31.3962 45.782 31.5865 45.8681 31.7212 46.0236C31.8712 46.1959 31.9379 46.4361 31.9046 46.6848C31.8434 47.1459 31.4601 47.507 31.0337 47.507ZM8.82538 46.3598C8.70455 46.3598 8.55177 46.4931 8.52538 46.6848C8.51427 46.7667 8.53094 46.8403 8.57121 46.8862C8.59621 46.9153 8.62816 46.9292 8.66844 46.9292H31.0323C31.1532 46.9292 31.3073 46.7959 31.3323 46.6056C31.3434 46.5223 31.3268 46.4486 31.2865 46.4028C31.2615 46.3736 31.2282 46.3598 31.1879 46.3598H8.82538Z" fill="#276572"/>
</svg>
