<svg width="20" height="20" viewBox="0 0 20 20" fill="none" xmlns="http://www.w3.org/2000/svg">
<path d="M12.0582 6.27495C12.3023 6.51903 12.698 6.51903 12.9421 6.27495C13.1862 6.03087 13.1862 5.63514 12.9421 5.39107L10.4421 2.89107C10.198 2.64699 9.8023 2.64699 9.55822 2.89107L7.05822 5.39107C6.81414 5.63514 6.81414 6.03087 7.05822 6.27495C7.3023 6.51903 7.69803 6.51903 7.9421 6.27495L9.37516 4.84189V11.6663C9.37516 12.0115 9.65498 12.2913 10.0002 12.2913C10.3453 12.2913 10.6252 12.0115 10.6252 11.6663V4.84189L12.0582 6.27495Z" fill="white"/>
<path d="M17.2918 9.99967C17.2918 9.6545 17.012 9.37467 16.6668 9.37467C16.3217 9.37467 16.0418 9.6545 16.0418 9.99967C16.0418 13.3364 13.3369 16.0413 10.0002 16.0413C6.66344 16.0413 3.9585 13.3364 3.9585 9.99967C3.9585 9.6545 3.67867 9.37467 3.3335 9.37467C2.98832 9.37467 2.7085 9.6545 2.7085 9.99967C2.7085 14.0267 5.97309 17.2913 10.0002 17.2913C14.0272 17.2913 17.2918 14.0268 17.2918 9.99967Z" fill="white"/>
<path d="M12.0582 6.27495C12.3023 6.51903 12.698 6.51903 12.9421 6.27495C13.1862 6.03087 13.1862 5.63514 12.9421 5.39107L10.4421 2.89107C10.198 2.64699 9.8023 2.64699 9.55822 2.89107L7.05822 5.39107C6.81414 5.63514 6.81414 6.03087 7.05822 6.27495C7.3023 6.51903 7.69803 6.51903 7.9421 6.27495L9.37516 4.84189V11.6663C9.37516 12.0115 9.65498 12.2913 10.0002 12.2913C10.3453 12.2913 10.6252 12.0115 10.6252 11.6663V4.84189L12.0582 6.27495Z" stroke="white"/>
<path d="M17.2918 9.99967C17.2918 9.6545 17.012 9.37467 16.6668 9.37467C16.3217 9.37467 16.0418 9.6545 16.0418 9.99967C16.0418 13.3364 13.3369 16.0413 10.0002 16.0413C6.66344 16.0413 3.9585 13.3364 3.9585 9.99967C3.9585 9.6545 3.67867 9.37467 3.3335 9.37467C2.98832 9.37467 2.7085 9.6545 2.7085 9.99967C2.7085 14.0267 5.97309 17.2913 10.0002 17.2913C14.0272 17.2913 17.2918 14.0268 17.2918 9.99967Z" stroke="white"/>
</svg>
