<svg width="16" height="16" viewBox="0 0 16 16" fill="none" xmlns="http://www.w3.org/2000/svg">
<path d="M10.2616 2.70247L9.75991 3.25994V3.25994L10.2616 2.70247ZM12.9008 5.07774L12.3991 5.63521V5.63521L12.9008 5.07774ZM14.4357 6.76944L13.7505 7.07457L13.7505 7.07457L14.4357 6.76944ZM2.11406 13.8857L2.64439 13.3553H2.64439L2.11406 13.8857ZM13.8853 13.8857L13.355 13.3553L13.355 13.3553L13.8853 13.8857ZM9.33301 14.6667V13.9167H6.66634V14.6667V15.4167H9.33301V14.6667ZM1.33301 9.33337H2.08301V6.66671H1.33301H0.583008V9.33337H1.33301ZM14.6663 9.04197H13.9163V9.33337H14.6663H15.4163V9.04197H14.6663ZM10.2616 2.70247L9.75991 3.25994L12.3991 5.63521L12.9008 5.07774L13.4025 4.52027L10.7634 2.145L10.2616 2.70247ZM14.6663 9.04197H15.4163C15.4163 7.93848 15.4315 7.1619 15.1208 6.46431L14.4357 6.76944L13.7505 7.07457C13.9012 7.41283 13.9163 7.80599 13.9163 9.04197H14.6663ZM12.9008 5.07774L12.3991 5.63521C13.3178 6.46204 13.5999 6.7363 13.7505 7.07457L14.4357 6.76944L15.1208 6.46431C14.8101 5.76672 14.2228 5.25846 13.4025 4.52027L12.9008 5.07774ZM6.6862 1.33337V2.08337C7.75966 2.08337 8.10242 2.09495 8.40379 2.2106L8.67249 1.51039L8.94119 0.810171C8.31999 0.571795 7.64608 0.583374 6.6862 0.583374V1.33337ZM10.2616 2.70247L10.7634 2.145C10.0533 1.50596 9.56228 1.04851 8.94119 0.810171L8.67249 1.51039L8.40379 2.2106C8.70527 2.32629 8.96614 2.54555 9.75991 3.25994L10.2616 2.70247ZM6.66634 14.6667V13.9167C5.38806 13.9167 4.5048 13.9151 3.84022 13.8258C3.19721 13.7393 2.87233 13.5833 2.64439 13.3553L2.11406 13.8857L1.58373 14.416C2.13683 14.9691 2.83101 15.2036 3.64035 15.3124C4.42811 15.4183 5.43046 15.4167 6.66634 15.4167V14.6667ZM1.33301 9.33337H0.583008C0.583008 10.5693 0.581415 11.5716 0.687327 12.3594C0.796139 13.1687 1.03063 13.8629 1.58373 14.416L2.11406 13.8857L2.64439 13.3553C2.41644 13.1274 2.2604 12.8025 2.17395 12.1595C2.0846 11.4949 2.08301 10.6117 2.08301 9.33337H1.33301ZM9.33301 14.6667V15.4167C10.5689 15.4167 11.5712 15.4183 12.359 15.3124C13.1683 15.2036 13.8625 14.9691 14.4156 14.416L13.8853 13.8857L13.355 13.3553C13.127 13.5833 12.8021 13.7393 12.1591 13.8258C11.4946 13.9151 10.6113 13.9167 9.33301 13.9167V14.6667ZM14.6663 9.33337H13.9163C13.9163 10.6117 13.9147 11.4949 13.8254 12.1595C13.7389 12.8025 13.5829 13.1274 13.355 13.3553L13.8853 13.8857L14.4156 14.416C14.9687 13.8629 15.2032 13.1687 15.312 12.3594C15.4179 11.5716 15.4163 10.5693 15.4163 9.33337H14.6663ZM1.33301 6.66671H2.08301C2.08301 5.38843 2.0846 4.50516 2.17395 3.84058C2.2604 3.19758 2.41644 2.8727 2.64439 2.64475L2.11406 2.11442L1.58373 1.58409C1.03063 2.13719 0.796139 2.83138 0.687327 3.64071C0.581415 4.42847 0.583008 5.43083 0.583008 6.66671H1.33301ZM6.6862 1.33337V0.583374C5.44363 0.583374 4.43656 0.581795 3.64576 0.687633C2.83394 0.796283 2.13741 1.03041 1.58373 1.58409L2.11406 2.11442L2.64439 2.64475C2.87175 2.41739 3.19759 2.26099 3.84474 2.17438C4.51289 2.08495 5.40137 2.08337 6.6862 2.08337V1.33337Z" fill="#0F973D"/>
<path d="M8.66699 1.66663V3.33329C8.66699 4.90464 8.66699 5.69032 9.15515 6.17847C9.6433 6.66663 10.429 6.66663 12.0003 6.66663H14.667" stroke="#0F973D" stroke-width="1.5"/>
<path d="M4 11L4.88889 12L6.66667 10" stroke="#0F973D" stroke-width="1.5" stroke-linecap="round" stroke-linejoin="round"/>
</svg>
