<svg width="20" height="20" viewBox="0 0 20 20" fill="none" xmlns="http://www.w3.org/2000/svg">
<path fill-rule="evenodd" clip-rule="evenodd" d="M4.40066 1.66699C2.89063 1.66699 1.6665 2.89111 1.6665 4.40114C1.6665 4.96212 1.83906 5.50951 2.16075 5.96908L7.19856 13.1659C7.39465 13.4461 7.49984 13.7798 7.49984 14.1217V15.9644C7.49984 17.6724 9.29731 18.7833 10.825 18.0194C11.8515 17.5062 12.4998 16.4571 12.4998 15.3095V14.1217C12.4998 13.7798 12.605 13.4461 12.8011 13.1659L17.8389 5.96908C18.1606 5.50951 18.3332 4.96212 18.3332 4.40114C18.3332 2.89111 17.109 1.66699 15.599 1.66699H4.40066ZM10.8332 15.3095C10.8332 15.8258 10.5415 16.2978 10.0797 16.5287C9.66012 16.7385 9.1665 16.4334 9.1665 15.9644V14.1217C9.1665 13.4378 8.95614 12.7705 8.56394 12.2102L3.52614 5.01331C3.40054 4.83388 3.33317 4.62016 3.33317 4.40114C3.33317 3.81159 3.8111 3.33366 4.40066 3.33366H15.599C16.1886 3.33366 16.6665 3.81159 16.6665 4.40114C16.6665 4.62016 16.5991 4.83388 16.4735 5.01331L11.4357 12.2102C11.0435 12.7705 10.8332 13.4378 10.8332 14.1217V15.3095Z" fill="#98A2B3"/>
</svg>
