<svg width="12" height="12" viewBox="0 0 12 12" fill="none" xmlns="http://www.w3.org/2000/svg">
<path fill-rule="evenodd" clip-rule="evenodd" d="M6 0.625C4.68832 0.625 3.625 1.68832 3.625 3C3.625 4.31168 4.68832 5.375 6 5.375C7.31168 5.375 8.375 4.31168 8.375 3C8.375 1.68832 7.31168 0.625 6 0.625ZM4.375 3C4.375 2.10254 5.10254 1.375 6 1.375C6.89746 1.375 7.625 2.10254 7.625 3C7.625 3.89746 6.89746 4.625 6 4.625C5.10254 4.625 4.375 3.89746 4.375 3Z" fill="#667185"/>
<path d="M9 1.625C8.79289 1.625 8.625 1.79289 8.625 2C8.625 2.20711 8.79289 2.375 9 2.375C9.68824 2.375 10.125 2.82787 10.125 3.25C10.125 3.67213 9.68824 4.125 9 4.125C8.79289 4.125 8.625 4.29289 8.625 4.5C8.625 4.70711 8.79289 4.875 9 4.875C9.96861 4.875 10.875 4.20858 10.875 3.25C10.875 2.29142 9.96861 1.625 9 1.625Z" fill="#667185"/>
<path d="M3.375 2C3.375 1.79289 3.20711 1.625 3 1.625C2.03139 1.625 1.125 2.29142 1.125 3.25C1.125 4.20858 2.03139 4.875 3 4.875C3.20711 4.875 3.375 4.70711 3.375 4.5C3.375 4.29289 3.20711 4.125 3 4.125C2.31176 4.125 1.875 3.67213 1.875 3.25C1.875 2.82787 2.31176 2.375 3 2.375C3.20711 2.375 3.375 2.20711 3.375 2Z" fill="#667185"/>
<path fill-rule="evenodd" clip-rule="evenodd" d="M6 6.125C5.10786 6.125 4.28323 6.3654 3.67067 6.77377C3.06073 7.18039 2.625 7.78332 2.625 8.5C2.625 9.21668 3.06073 9.81961 3.67067 10.2262C4.28323 10.6346 5.10786 10.875 6 10.875C6.89214 10.875 7.71677 10.6346 8.32933 10.2262C8.93927 9.81961 9.375 9.21668 9.375 8.5C9.375 7.78332 8.93927 7.18039 8.32933 6.77377C7.71677 6.3654 6.89214 6.125 6 6.125ZM3.375 8.5C3.375 8.11211 3.61084 7.71504 4.08669 7.39781C4.55992 7.08232 5.23528 6.875 6 6.875C6.76472 6.875 7.44008 7.08232 7.91331 7.39781C8.38916 7.71504 8.625 8.11211 8.625 8.5C8.625 8.88789 8.38916 9.28496 7.91331 9.60219C7.44008 9.91768 6.76472 10.125 6 10.125C5.23528 10.125 4.55992 9.91768 4.08669 9.60219C3.61084 9.28496 3.375 8.88789 3.375 8.5Z" fill="#667185"/>
<path d="M9.6337 6.91967C9.67807 6.71737 9.87803 6.58934 10.0803 6.6337C10.5613 6.73917 10.9946 6.92967 11.3164 7.19296C11.6379 7.45602 11.875 7.81762 11.875 8.25C11.875 8.68238 11.6379 9.04398 11.3164 9.30704C10.9946 9.57033 10.5613 9.76083 10.0803 9.8663C9.87803 9.91066 9.67807 9.78263 9.6337 9.58033C9.58934 9.37803 9.71737 9.17807 9.91967 9.1337C10.3159 9.04682 10.6325 8.89759 10.8414 8.7266C11.0507 8.55538 11.125 8.38815 11.125 8.25C11.125 8.11185 11.0507 7.94462 10.8414 7.7734C10.6325 7.60241 10.3159 7.45318 9.91967 7.3663C9.71737 7.32193 9.58934 7.12197 9.6337 6.91967Z" fill="#667185"/>
<path d="M1.91967 6.6337C2.12197 6.58934 2.32193 6.71737 2.3663 6.91967C2.41066 7.12197 2.28263 7.32193 2.08033 7.3663C1.68414 7.45318 1.36753 7.60241 1.15856 7.7734C0.949314 7.94462 0.875 8.11185 0.875 8.25C0.875 8.38815 0.949314 8.55538 1.15856 8.7266C1.36753 8.89759 1.68414 9.04682 2.08033 9.1337C2.28263 9.17807 2.41066 9.37803 2.3663 9.58033C2.32193 9.78263 2.12197 9.91066 1.91967 9.8663C1.43873 9.76083 1.00535 9.57033 0.683596 9.30704C0.362124 9.04398 0.125 8.68238 0.125 8.25C0.125 7.81762 0.362124 7.45602 0.683596 7.19296C1.00535 6.92967 1.43873 6.73917 1.91967 6.6337Z" fill="#667185"/>
</svg>
