<svg width="22" height="22" viewBox="0 0 22 22" fill="none" xmlns="http://www.w3.org/2000/svg">
<g clip-path="url(#clip0_11236_9517)">
<path d="M11 11.0004C12.6743 11.0004 14.2319 11.451 15.3975 12.2279C16.5563 13.0005 17.417 14.1687 17.417 15.5834C17.417 16.9981 16.5563 18.1663 15.3975 18.9388C14.2319 19.7158 12.6743 20.1664 11 20.1664C9.32563 20.1663 7.76807 19.7159 6.60254 18.9388C5.44379 18.1663 4.58398 16.998 4.58398 15.5834C4.58398 14.1687 5.44379 13.0005 6.60254 12.2279C7.76807 11.4509 9.32563 11.0004 11 11.0004ZM11 12.8334C9.63728 12.8334 8.44507 13.2034 7.62012 13.7533C6.78927 14.3072 6.41699 14.9722 6.41699 15.5834C6.41699 16.1946 6.78927 16.8596 7.62012 17.4135C8.44507 17.9633 9.63728 18.3333 11 18.3334C12.363 18.3334 13.5558 17.9634 14.3809 17.4135C15.2117 16.8596 15.584 16.1946 15.584 15.5834C15.584 14.9722 15.2117 14.3072 14.3809 13.7533C13.5558 13.2033 12.363 12.8334 11 12.8334ZM3.4707 11.9379C3.96518 11.8295 4.45406 12.1426 4.5625 12.6371C4.67089 13.1316 4.35776 13.6204 3.86328 13.7289C3.16291 13.8825 2.61817 14.1438 2.26953 14.4291C1.92115 14.7142 1.83398 14.9613 1.83398 15.1254C1.8341 15.2895 1.92122 15.5366 2.26953 15.8217C2.61816 16.1069 3.16303 16.3673 3.86328 16.5209C4.35766 16.6293 4.67069 17.1183 4.5625 17.6127C4.45406 18.1072 3.96521 18.4203 3.4707 18.3119C2.56315 18.1129 1.73274 17.7515 1.1084 17.2406C0.485176 16.7306 0.000118665 16.0082 0 15.1254C0 14.2425 0.485199 13.5202 1.1084 13.0101C1.73276 12.4992 2.5631 12.1369 3.4707 11.9379ZM17.4385 12.6371C17.5469 12.1426 18.0358 11.8294 18.5303 11.9379C19.4378 12.1369 20.2683 12.4993 20.8926 13.0101C21.5157 13.5201 22 14.2426 22 15.1254C21.9999 16.0081 21.5158 16.7306 20.8926 17.2406C20.2683 17.7514 19.4378 18.1128 18.5303 18.3119C18.0358 18.4203 17.5469 18.1072 17.4385 17.6127C17.3302 17.1183 17.6433 16.6293 18.1377 16.5209C18.8379 16.3673 19.3829 16.1069 19.7314 15.8217C20.0797 15.5367 20.1669 15.2895 20.167 15.1254C20.167 14.9613 20.0797 14.7141 19.7314 14.4291C19.3829 14.1438 18.8379 13.8825 18.1377 13.7289C17.6432 13.6204 17.33 13.1316 17.4385 12.6371ZM11 0.916382C13.5313 0.916382 15.584 2.96906 15.584 5.50037C15.5838 8.03152 13.5312 10.0834 11 10.0834C8.46895 10.0832 6.41717 8.03141 6.41699 5.50037C6.41699 2.96917 8.46885 0.916558 11 0.916382ZM5.5 2.75037C6.00615 2.75037 6.41682 3.16027 6.41699 3.66638C6.41699 4.17264 6.00626 4.58337 5.5 4.58337C4.32872 4.58352 3.66699 5.34454 3.66699 5.95837C3.66699 6.57221 4.32872 7.33323 5.5 7.33337C6.00626 7.33337 6.41699 7.74411 6.41699 8.25037C6.41682 8.75648 6.00615 9.16638 5.5 9.16638C3.64131 9.16623 1.83398 7.88176 1.83398 5.95837C1.83398 4.03499 3.64131 2.75052 5.5 2.75037ZM16.5 2.75037C18.3588 2.75037 20.167 4.03487 20.167 5.95837C20.167 7.88187 18.3588 9.16638 16.5 9.16638C15.994 9.16621 15.5842 8.75637 15.584 8.25037C15.584 7.74421 15.9939 7.33355 16.5 7.33337C17.6715 7.33337 18.334 6.57227 18.334 5.95837C18.334 5.34448 17.6715 4.58337 16.5 4.58337C15.9939 4.5832 15.584 4.17253 15.584 3.66638C15.5842 3.16038 15.994 2.75054 16.5 2.75037ZM11 2.75037C9.48137 2.75054 8.25 3.98169 8.25 5.50037C8.25018 7.01889 9.48148 8.25019 11 8.25037C12.5187 8.25037 13.7498 7.019 13.75 5.50037C13.75 3.98158 12.5188 2.75037 11 2.75037Z" fill="#98A2B3" stroke="#98A2B3" stroke-width="0.458333"/>
</g>
<defs>
<clipPath id="clip0_11236_9517">
<rect width="22" height="22" fill="white"/>
</clipPath>
</defs>
</svg>
