<svg width="50" height="50" viewBox="0 0 50 50" fill="none" xmlns="http://www.w3.org/2000/svg">
<path fill-rule="evenodd" clip-rule="evenodd" d="M29.9989 6.35417C27.0359 4.13194 22.9619 4.13194 19.9989 6.35417L5.68106 17.0925C3.38663 18.8134 2.13833 21.5931 2.37651 24.4513L3.69519 40.2754C4.05511 44.5945 7.66566 47.9167 11.9997 47.9167H37.9981C42.3321 47.9167 45.9427 44.5945 46.3026 40.2754L47.6213 24.4513C47.8595 21.5931 46.6112 18.8134 44.3167 17.0925L29.9989 6.35417ZM22.4989 9.6875C23.9804 8.57639 26.0174 8.57639 27.4989 9.6875L41.8167 20.4259C42.964 21.2863 43.5881 22.6762 43.469 24.1052L42.1503 39.9294C41.9704 42.0889 40.1651 43.75 37.9981 43.75H31.4297L31.8508 38.6967C32.1849 34.688 29.0215 31.25 24.9989 31.25C20.9763 31.25 17.8129 34.688 18.147 38.6967L18.5681 43.75H11.9997C9.8327 43.75 8.02742 42.0889 7.84746 39.9294L6.52878 24.1052C6.40969 22.6762 7.03384 21.2863 8.18106 20.4259L22.4989 9.6875ZM27.6986 38.3507L27.2486 43.75H22.7492L22.2992 38.3507C22.1676 36.7712 23.414 35.4167 24.9989 35.4167C26.5838 35.4167 27.8302 36.7712 27.6986 38.3507Z" fill="#FA6115"/>
</svg>
