<svg width="28" height="28" viewBox="0 0 28 28" fill="none" xmlns="http://www.w3.org/2000/svg">
<path d="M19.4913 15.9915L14.8246 20.6582C14.369 21.1138 13.6303 21.1138 13.1747 20.6582L8.50805 15.9915C8.05244 15.5359 8.05244 14.7972 8.50805 14.3416C8.96366 13.886 9.70235 13.886 10.158 14.3416L12.833 17.0167V3.49992C12.833 2.85559 13.3553 2.33325 13.9997 2.33325C14.644 2.33325 15.1663 2.85559 15.1663 3.49992V17.0167L17.8414 14.3416C18.297 13.886 19.0357 13.886 19.4913 14.3416C19.9469 14.7972 19.9469 15.5359 19.4913 15.9915Z" fill="#475367"/>
<path d="M4.66634 20.4166C4.66634 19.7723 4.14401 19.2499 3.49967 19.2499C2.85534 19.2499 2.33301 19.7723 2.33301 20.4166V22.1666C2.33301 24.7439 4.42235 26.8333 6.99967 26.8333H20.9997C23.577 26.8333 25.6663 24.7439 25.6663 22.1666V20.4166C25.6663 19.7723 25.144 19.2499 24.4997 19.2499C23.8553 19.2499 23.333 19.7723 23.333 20.4166V22.1666C23.333 23.4552 22.2883 24.4999 20.9997 24.4999H6.99967C5.71101 24.4999 4.66634 23.4552 4.66634 22.1666V20.4166Z" fill="#475367"/>
</svg>
