<svg width="16" height="16" viewBox="0 0 16 16" fill="none" xmlns="http://www.w3.org/2000/svg">
<path d="M3.3335 5.67707C3.3335 3.27845 5.42283 1.33398 8.00016 1.33398C10.5775 1.33398 12.6668 3.27845 12.6668 5.67707C12.6668 8.0569 11.1774 10.8339 8.85354 11.827C8.31181 12.0585 7.68851 12.0585 7.14679 11.827C4.82294 10.8339 3.3335 8.0569 3.3335 5.67707Z" stroke="#F5B546" stroke-width="0.666667"/>
<path d="M9.33317 5.99935C9.33317 6.73573 8.73622 7.33268 7.99984 7.33268C7.26346 7.33268 6.6665 6.73573 6.6665 5.99935C6.6665 5.26297 7.26346 4.66602 7.99984 4.66602C8.73622 4.66602 9.33317 5.26297 9.33317 5.99935Z" stroke="#F5B546" stroke-width="0.666667"/>
<path d="M13.9739 10.334C14.4174 10.7356 14.6668 11.1884 14.6668 11.6673C14.6668 13.3242 11.6821 14.6673 8.00016 14.6673C4.31826 14.6673 1.3335 13.3242 1.3335 11.6673C1.3335 11.1884 1.58291 10.7356 2.02647 10.334" stroke="#F5B546" stroke-width="0.666667" stroke-linecap="round"/>
</svg>
