<svg width="18" height="21" viewBox="0 0 18 21" fill="none" xmlns="http://www.w3.org/2000/svg">
<path d="M11.6961 9.47527C12.0866 9.08475 12.0866 8.45158 11.6961 8.06106C11.3056 7.67053 10.6724 7.67053 10.2819 8.06105L8.34315 9.99979L8.06126 9.7179C7.67074 9.32738 7.03757 9.32738 6.64705 9.7179C6.25652 10.1084 6.25652 10.7416 6.64705 11.1321L7.63604 12.1211C8.02656 12.5116 8.65973 12.5116 9.05025 12.1211L11.6961 9.47527Z" fill="#309DAA"/>
<path fill-rule="evenodd" clip-rule="evenodd" d="M10.4876 0.286925C9.53277 -0.0956417 8.46723 -0.0956415 7.51236 0.286925L3.88578 1.73991C3.87451 1.74443 3.86331 1.74915 3.8522 1.75408L2.30467 2.44056C0.947452 3.04262 -0.000130163 4.36822 1.34114e-08 5.91187C0.000166251 7.87909 0.141994 11.2088 1.06685 13.4934C1.6818 15.0125 2.78937 16.3291 3.91503 17.3813C5.04877 18.441 6.25663 19.2839 7.14506 19.8448C8.28358 20.5637 9.71642 20.5637 10.8549 19.8448C11.7434 19.2839 12.9512 18.441 14.085 17.3813C15.2106 16.3291 16.3182 15.0125 16.9332 13.4934C17.858 11.2088 17.9998 7.87909 18 5.91187C18.0001 4.36822 17.0525 3.04262 15.6953 2.44056L14.1478 1.75408C14.1367 1.74915 14.1255 1.74443 14.1142 1.73991L10.4876 0.286925ZM8.25618 2.14346C8.73361 1.95218 9.26639 1.95218 9.74382 2.14346L13.3535 3.58967L14.8843 4.26876C15.5732 4.57431 16.0001 5.21705 16 5.9117C15.9998 7.89252 15.8415 10.86 15.0793 12.7429C14.6173 13.8841 13.7387 14.9673 12.7193 15.9202C11.7079 16.8656 10.6116 17.6332 9.78713 18.1537C9.30091 18.4608 8.69909 18.4608 8.21287 18.1537C7.38842 17.6332 6.29215 16.8656 5.28075 15.9202C4.26127 14.9673 3.38268 13.8841 2.9207 12.7429C2.15846 10.86 2.00017 7.89252 2 5.9117C1.99994 5.21705 2.42684 4.57431 3.11565 4.26876L4.64653 3.58967L8.25618 2.14346Z" fill="#309DAA"/>
</svg>
