<svg width="20" height="20" viewBox="0 0 20 20" fill="none" xmlns="http://www.w3.org/2000/svg">
<path d="M6.56433 0.985548C6.4757 0.988658 6.38781 0.99581 6.30066 1.00752C5.25492 1.14805 4.33704 1.89676 4.04073 2.97285L1.4976 12.2128H1.49679C1.10232 13.6478 1.95491 15.1478 3.38969 15.5428L3.75021 15.6421V16.0417C3.75021 17.53 4.97023 18.75 6.45854 18.75H16.0419C17.5302 18.75 18.7502 17.53 18.7502 16.0417V6.45837C18.7502 5.78932 18.5025 5.17553 18.0959 4.70137C18.0695 4.63281 18.0312 4.56945 17.9828 4.51419C17.6827 4.14913 17.2693 3.87883 16.7995 3.70934C16.7418 3.67055 16.678 3.64167 16.6107 3.62389L7.37081 1.08076V1.07995C7.10173 1.00598 6.83025 0.976218 6.56433 0.985548ZM6.74662 2.23555C6.84379 2.24232 6.94158 2.25906 7.03959 2.286V2.28519L12.3594 3.75003H6.45854C5.92442 3.75003 5.42611 3.90945 5.00509 4.17972L5.24597 3.30488C5.43476 2.61928 6.06646 2.18817 6.74662 2.23555ZM6.45854 5.00003H16.0419C16.8544 5.00003 17.5002 5.64584 17.5002 6.45837V16.0417C17.5002 16.8542 16.8544 17.5 16.0419 17.5H6.45854C5.64601 17.5 5.00021 16.8542 5.00021 16.0417V6.45837C5.00021 5.64584 5.64601 5.00003 6.45854 5.00003ZM8.53618 6.24922C8.41076 6.24922 8.28553 6.32542 8.25053 6.47708L7.91524 7.92647L6.46586 8.26094C6.16253 8.33094 6.16253 8.76304 6.46586 8.83304L7.91524 9.16752L8.25053 10.6169C8.32053 10.9202 8.75182 10.9202 8.82182 10.6169L9.15629 9.16752L10.6057 8.83304C10.909 8.76304 10.909 8.33094 10.6057 8.26094L9.15629 7.92647L8.82182 6.47708C8.78682 6.32542 8.66159 6.24922 8.53618 6.24922ZM15.4169 6.25003C15.1959 6.25003 14.9839 6.33783 14.8276 6.49411C14.6713 6.65039 14.5835 6.86235 14.5835 7.08337C14.5835 7.30438 14.6713 7.51634 14.8276 7.67262C14.9839 7.8289 15.1959 7.9167 15.4169 7.9167C15.6379 7.9167 15.8498 7.8289 16.0061 7.67262C16.1624 7.51634 16.2502 7.30438 16.2502 7.08337C16.2502 6.86235 16.1624 6.65039 16.0061 6.49411C15.8498 6.33783 15.6379 6.25003 15.4169 6.25003ZM3.75021 8.73701V14.3457L3.72172 14.3376C2.93817 14.1218 2.48731 13.3281 2.70284 12.544H2.70203L3.75021 8.73701ZM11.2453 10C11.154 10 11.0624 10.0556 11.037 10.1661L10.7937 11.2207L9.73816 11.4641C9.51733 11.5149 9.51733 11.8299 9.73816 11.8807L10.7937 12.1241L11.037 13.1787C11.0878 13.3996 11.402 13.3996 11.4528 13.1787L11.6962 12.1241L12.7517 11.8807C12.9721 11.8295 12.9721 11.5149 12.7517 11.4641L11.6962 11.2207L11.4528 10.1661C11.4274 10.0556 11.3367 10 11.2453 10Z" fill="#EB460B"/>
</svg>
