<svg width="20" height="20" viewBox="0 0 20 20" fill="none" xmlns="http://www.w3.org/2000/svg">
<path fill-rule="evenodd" clip-rule="evenodd" d="M9.3731 1.66699C5.25758 1.97214 1.97166 5.25806 1.6665 9.37359H4.1503C4.49644 9.37359 4.77704 9.65419 4.77704 10.0003C4.77704 10.3465 4.49644 10.6271 4.1503 10.6271H1.6665C1.97166 14.7426 5.25758 18.0285 9.3731 18.3337V15.8499C9.3731 15.5037 9.6537 15.2231 9.99984 15.2231C10.346 15.2231 10.6266 15.5037 10.6266 15.8499V18.3337C14.7421 18.0285 18.028 14.7426 18.3332 10.6271H15.8494C15.5032 10.6271 15.2226 10.3465 15.2226 10.0003C15.2226 9.65419 15.5032 9.37359 15.8494 9.37359H18.3332C18.028 5.25806 14.7421 1.97214 10.6266 1.66699V4.15079C10.6266 4.49693 10.346 4.77752 9.99984 4.77752C9.6537 4.77752 9.3731 4.49693 9.3731 4.15079V1.66699ZM7.7018 10.0003C7.7018 9.65419 7.9824 9.37359 8.32854 9.37359H9.3731V8.32903C9.3731 7.98289 9.6537 7.70229 9.99984 7.70229C10.346 7.70229 10.6266 7.98289 10.6266 8.32903V9.37359H11.6711C12.0173 9.37359 12.2979 9.65419 12.2979 10.0003C12.2979 10.3465 12.0173 10.6271 11.6711 10.6271H10.6266V11.6716C10.6266 12.0178 10.346 12.2984 9.99984 12.2984C9.6537 12.2984 9.3731 12.0178 9.3731 11.6716V10.6271H8.32854C7.9824 10.6271 7.7018 10.3465 7.7018 10.0003Z" fill="white"/>
</svg>
