<svg width="36" height="36" viewBox="0 0 36 36" fill="none" xmlns="http://www.w3.org/2000/svg">
<path d="M19.125 4.5C19.125 3.87868 18.6213 3.375 18 3.375C17.3787 3.375 16.875 3.87868 16.875 4.5V7.5C16.875 8.12132 17.3787 8.625 18 8.625C18.6213 8.625 19.125 8.12132 19.125 7.5V4.5Z" fill="#276572"/>
<path fill-rule="evenodd" clip-rule="evenodd" d="M34.125 18.0848C34.125 20.8414 34.125 23.0249 33.8953 24.7337C33.6589 26.4923 33.1607 27.9157 32.0381 29.0383C30.9156 30.1608 29.4922 30.659 27.7335 30.8954C26.0247 31.1252 23.8413 31.1252 21.0847 31.1251H14.9152C12.1587 31.1252 9.97526 31.1252 8.26647 30.8954C6.50783 30.659 5.08441 30.1608 3.96187 29.0383C2.83932 27.9157 2.34115 26.4923 2.1047 24.7337C1.87496 23.0248 1.87498 20.8414 1.875 18.0848L1.87501 17.6587C1.87503 17.3293 1.87516 17.0083 1.8758 16.6954C1.87698 16.1199 1.8799 15.5721 1.88709 15.0509C1.90727 13.5881 1.96111 12.3347 2.1047 11.2667C2.34115 9.5081 2.83932 8.08468 3.96187 6.96213C5.08441 5.83959 6.50783 5.34141 8.26647 5.10497C9.34112 4.96049 10.6035 4.90688 12.0781 4.88699C12.3259 4.88365 12.712 4.88118 13.1229 4.87938C13.9521 4.87575 14.625 5.5481 14.625 6.37733V7.50012C14.625 9.36408 16.136 10.8751 18 10.8751C19.864 10.8751 21.375 9.36408 21.375 7.50012V6.37542C21.375 5.54694 22.047 4.87403 22.8755 4.87795C24.8087 4.88709 26.4129 4.92741 27.7335 5.10497C29.4922 5.34141 30.9156 5.83959 32.0381 6.96213C33.1607 8.08468 33.6589 9.5081 33.8953 11.2667C34.125 12.9755 34.125 15.1589 34.125 17.9155V18.0848ZM12 14.6251C11.3787 14.6251 10.875 15.1288 10.875 15.7501C10.875 16.3714 11.3787 16.8751 12 16.8751H24C24.6213 16.8751 25.125 16.3714 25.125 15.7501C25.125 15.1288 24.6213 14.6251 24 14.6251H12ZM12 19.8751C11.3787 19.8751 10.875 20.3788 10.875 21.0001C10.875 21.6214 11.3787 22.1251 12 22.1251H20.25C20.8713 22.1251 21.375 21.6214 21.375 21.0001C21.375 20.3788 20.8713 19.8751 20.25 19.8751H12Z" fill="#276572"/>
</svg>
