<svg width="24" height="24" viewBox="0 0 24 24" fill="none" xmlns="http://www.w3.org/2000/svg">
<path d="M20.5264 1.99963C21.4468 2.01912 22.1945 2.93526 21.9531 3.86194L19.0957 16.5074V16.5094C19.0952 16.5117 19.0943 16.514 19.0938 16.5162C18.8809 17.3131 17.9156 17.7307 17.1377 17.3414L17.0322 17.2877H17.0293L12.1143 14.8199L11.792 14.6578L9.80859 16.6412L9.97266 16.9655C9.99651 17.0124 10.0053 17.0658 9.99707 17.1178C9.98881 17.1697 9.96386 17.2173 9.92676 17.2545L5.7998 21.3824L5.65332 21.5289C5.00891 22.1728 3.916 22.1483 3.2373 21.4694V21.4684L2.53125 20.7623H2.53027C1.85144 20.0837 1.82674 18.9911 2.4707 18.3473L6.74512 14.0729C6.79085 14.0273 6.85246 14.0008 6.91699 13.9996C6.95727 13.9993 6.99733 14.0087 7.0332 14.027L7.35645 14.193L9.33496 12.2145L9.16992 11.8912L6.65918 6.96643L6.6582 6.96448C6.26869 6.18696 6.68609 5.22095 7.4834 5.00842L7.49023 5.00647L20.0596 2.06409H20.0664L20.1299 2.04749C20.2643 2.01182 20.3973 1.99692 20.5264 1.99963ZM2.8252 18.6998C2.35643 19.1682 2.39774 19.9232 2.88379 20.4088L3.03027 20.5543H3.03125L3.44531 20.9684V20.9694L3.59082 21.1158C4.07686 21.6023 4.83066 21.6417 5.29883 21.1754L9.39648 17.0778L6.92188 14.6031L2.8252 18.6998ZM20.5352 2.50256C20.4515 2.49846 20.3627 2.50654 20.2725 2.52893V2.52795C20.27 2.52852 20.2671 2.52941 20.2646 2.52991L20.2578 2.53088L20.25 2.53284L7.62695 5.48792L7.48828 5.52014L7.46094 5.54651C7.28762 5.62539 7.12373 5.76357 7.03906 5.98206C6.95436 6.20078 6.98307 6.42011 7.05273 6.60999V6.63635L7.10645 6.74377L9.39258 11.2311L9.70508 11.8444L11.5459 10.0035C11.8773 9.67239 12.3181 9.50452 12.7627 9.50452C13.2071 9.50462 13.647 9.67206 13.9785 10.0035L13.9961 10.0211C14.6616 10.6866 14.6613 11.7881 13.9961 12.4537L12.1641 14.2858L12.7832 14.5963L17.3604 16.8942L17.4658 16.9469H17.4902C17.6802 17.0168 17.8998 17.0453 18.1191 16.9606C18.3384 16.8758 18.4759 16.7113 18.5547 16.5377L18.583 16.5104L18.6152 16.3688L21.4658 3.75061L21.4668 3.74866C21.4675 3.74553 21.4679 3.74201 21.4688 3.73889L21.4678 3.73792C21.5549 3.40675 21.4408 3.09845 21.2744 2.89124C21.1296 2.71099 20.9099 2.56045 20.6494 2.51526L20.5352 2.50256ZM12.7627 9.99573C12.4482 9.99573 12.1373 10.1194 11.8994 10.3571L7.99512 14.2614L7.64062 14.6149L7.99512 14.9684L9.03125 16.0045L9.38477 16.359L9.73828 16.0045L11.4863 14.2565L11.5156 14.2115C11.535 14.1815 11.5608 14.1557 11.5908 14.1364L11.6357 14.1071L13.6426 12.1002C14.1245 11.6178 14.1248 10.8569 13.6426 10.3746L13.625 10.3571C13.3877 10.1198 13.078 9.99584 12.7627 9.99573Z" stroke="black"/>
</svg>
