<svg width="16" height="16" viewBox="0 0 16 16" fill="none" xmlns="http://www.w3.org/2000/svg">
<g clip-path="url(#clip0_11236_8572)">
<path d="M1.33301 3.50492C1.33301 2.30561 2.37768 1.33337 3.66634 1.33337C4.95501 1.33337 5.99967 2.30561 5.99967 3.50492C5.99967 4.69483 5.25496 6.08335 4.09303 6.57989C3.82217 6.69565 3.51052 6.69565 3.23965 6.57989C2.07773 6.08335 1.33301 4.69483 1.33301 3.50492Z" stroke="white"/>
<path d="M10 11.5049C10 10.3056 11.0447 9.33337 12.3333 9.33337C13.622 9.33337 14.6667 10.3056 14.6667 11.5049C14.6667 12.6948 13.9219 14.0834 12.76 14.5799C12.4892 14.6956 12.1775 14.6956 11.9066 14.5799C10.7447 14.0834 10 12.6948 10 11.5049Z" stroke="white"/>
<path d="M12.333 11.6666H12.339" stroke="white" stroke-width="1.33333" stroke-linecap="round" stroke-linejoin="round"/>
<path d="M3.66016 3.66663H3.66616" stroke="white" stroke-width="1.33333" stroke-linecap="round" stroke-linejoin="round"/>
<path d="M8.00047 2.83337C7.72433 2.83337 7.50047 3.05723 7.50047 3.33337C7.50047 3.60952 7.72433 3.83337 8.00047 3.83337V3.33337V2.83337ZM8.00047 12.6667L8.35402 13.0203C8.54929 12.825 8.54929 12.5084 8.35402 12.3132L8.00047 12.6667ZM11.4709 5.79159L11.7393 6.21342V6.21342L11.4709 5.79159ZM4.53005 10.2085L4.79849 10.6303H4.79849L4.53005 10.2085ZM7.35402 11.3132C7.15876 11.1179 6.84218 11.1179 6.64692 11.3132C6.45166 11.5084 6.45166 11.825 6.64692 12.0203L7.00047 11.6667L7.35402 11.3132ZM6.64692 13.3132C6.45166 13.5084 6.45166 13.825 6.64692 14.0203C6.84218 14.2155 7.15876 14.2155 7.35402 14.0203L7.00047 13.6667L6.64692 13.3132ZM10.7551 3.33337V2.83337H8.00047V3.33337V3.83337H10.7551V3.33337ZM8.00047 12.6667V12.1667H5.24588V12.6667V13.1667H8.00047V12.6667ZM11.4709 5.79159L11.2025 5.36976L4.26161 9.78666L4.53005 10.2085L4.79849 10.6303L11.7393 6.21342L11.4709 5.79159ZM8.00047 12.6667L8.35402 12.3132L7.35402 11.3132L7.00047 11.6667L6.64692 12.0203L7.64692 13.0203L8.00047 12.6667ZM8.00047 12.6667L7.64692 12.3132L6.64692 13.3132L7.00047 13.6667L7.35402 14.0203L8.35402 13.0203L8.00047 12.6667ZM5.24588 12.6667V12.1667C4.41218 12.1667 4.09512 11.0779 4.79849 10.6303L4.53005 10.2085L4.26161 9.78666C2.71421 10.7714 3.41172 13.1667 5.24588 13.1667V12.6667ZM10.7551 3.33337V3.83337C11.5888 3.83337 11.9058 4.92216 11.2025 5.36976L11.4709 5.79159L11.7393 6.21342C13.2867 5.22871 12.5892 2.83337 10.7551 2.83337V3.33337Z" fill="white"/>
</g>
<defs>
<clipPath id="clip0_11236_8572">
<rect width="16" height="16" fill="white"/>
</clipPath>
</defs>
</svg>
