<svg width="36" height="36" viewBox="0 0 36 36" fill="none" xmlns="http://www.w3.org/2000/svg">
<path fill-rule="evenodd" clip-rule="evenodd" d="M27.75 21C24.8505 21 22.5 23.1875 22.5 25.886C22.5 28.5633 24.1756 31.6874 26.79 32.8047C27.3994 33.0651 28.1006 33.0651 28.7101 32.8047C31.3244 31.6874 33 28.5633 33 25.886C33 23.1875 30.6495 21 27.75 21ZM27.75 27.75C28.5784 27.75 29.25 27.0784 29.25 26.25C29.25 25.4216 28.5784 24.75 27.75 24.75C26.9216 24.75 26.25 25.4216 26.25 26.25C26.25 27.0784 26.9216 27.75 27.75 27.75Z" fill="#2A8090"/>
<path fill-rule="evenodd" clip-rule="evenodd" d="M8.25 3C5.35051 3 3 5.18753 3 7.88598C3 10.5633 4.67562 13.6874 7.28995 14.8047C7.89939 15.0651 8.60061 15.0651 9.21005 14.8047C11.8244 13.6874 13.5 10.5633 13.5 7.88598C13.5 5.18753 11.1495 3 8.25 3ZM8.25 9.75C9.07843 9.75 9.75 9.07843 9.75 8.25C9.75 7.42157 9.07843 6.75 8.25 6.75C7.42157 6.75 6.75 7.42157 6.75 8.25C6.75 9.07843 7.42157 9.75 8.25 9.75Z" fill="#2A8090"/>
<path fill-rule="evenodd" clip-rule="evenodd" d="M16.8751 7.5C16.8751 6.87868 17.3788 6.375 18.0001 6.375H24.198C28.3248 6.375 29.8942 11.7645 26.4126 13.9801L10.7957 23.9181C9.21311 24.9252 9.9265 27.375 11.8023 27.375H15.2842L14.9547 27.0455C14.5153 26.6062 14.5153 25.8938 14.9547 25.4545C15.394 25.0152 16.1063 25.0152 16.5456 25.4545L18.7956 27.7045C19.235 28.1438 19.235 28.8562 18.7956 29.2955L16.5456 31.5455C16.1063 31.9848 15.394 31.9848 14.9547 31.5455C14.5153 31.1062 14.5153 30.3938 14.9547 29.9545L15.2842 29.625H11.8023C7.67546 29.625 6.10607 24.2355 9.58772 22.0199L25.2046 12.0819C26.7872 11.0748 26.0738 8.625 24.198 8.625H18.0001C17.3788 8.625 16.8751 8.12132 16.8751 7.5Z" fill="#2A8090"/>
</svg>
