<svg width="16" height="16" viewBox="0 0 16 16" fill="none" xmlns="http://www.w3.org/2000/svg">
<path d="M8 4.83337C8.27614 4.83337 8.5 5.05723 8.5 5.33337V8.00004C8.5 8.27618 8.27614 8.50004 8 8.50004C7.72386 8.50004 7.5 8.27618 7.5 8.00004V5.33337C7.5 5.05723 7.72386 4.83337 8 4.83337Z" fill="#D42620"/>
<path d="M8 10.6667C8.36819 10.6667 8.66667 10.3682 8.66667 10C8.66667 9.63185 8.36819 9.33337 8 9.33337C7.63181 9.33337 7.33333 9.63185 7.33333 10C7.33333 10.3682 7.63181 10.6667 8 10.6667Z" fill="#D42620"/>
<path fill-rule="evenodd" clip-rule="evenodd" d="M5.81559 1.36745C6.77821 1.03776 7.37498 0.833374 8 0.833374C8.62502 0.833374 9.22179 1.03776 10.1844 1.36745L10.6694 1.53346C11.6569 1.87151 12.4191 2.13239 12.9646 2.35403C13.2395 2.46568 13.4758 2.57382 13.666 2.68431C13.8491 2.79064 14.0328 2.92327 14.1576 3.10107C14.2809 3.27681 14.3447 3.49287 14.3848 3.70085C14.4265 3.91708 14.4516 4.17646 14.4678 4.47428C14.5 5.06564 14.5 5.87578 14.5 6.92658V7.99428C14.5 12.0616 11.428 14.0117 9.60111 14.8097L9.58304 14.8176C9.35652 14.9166 9.14358 15.0097 8.89893 15.0723C8.64062 15.1384 8.36617 15.1667 8 15.1667C7.63383 15.1667 7.35938 15.1384 7.10107 15.0723C6.85641 15.0097 6.64348 14.9166 6.41695 14.8176L6.39889 14.8097C4.57202 14.0117 1.5 12.0616 1.5 7.99428V6.92664C1.5 5.87582 1.5 5.06565 1.5322 4.47428C1.54842 4.17646 1.57354 3.91708 1.61521 3.70085C1.65529 3.49287 1.71907 3.27681 1.84242 3.10107C1.96721 2.92327 2.1509 2.79064 2.33399 2.68431C2.52424 2.57382 2.76052 2.46568 3.03535 2.35403C3.58094 2.13239 4.34308 1.87151 5.33063 1.53347L5.81559 1.36745ZM8 1.83337C7.56151 1.83337 7.1301 1.97447 6.05374 2.3429L5.67187 2.47362C4.66347 2.8188 3.92807 3.07074 3.41173 3.2805C3.154 3.3852 2.96727 3.47294 2.83619 3.54906C2.77148 3.58664 2.72689 3.61765 2.69711 3.64186C2.67186 3.66238 2.66224 3.674 2.66086 3.6757C2.65957 3.67779 2.65129 3.69164 2.63962 3.7244C2.6263 3.76181 2.61153 3.81543 2.59714 3.89008C2.56803 4.04117 2.54596 4.24872 2.53072 4.52865C2.50018 5.08945 2.5 5.87226 2.5 6.94448V7.99428C2.5 11.4443 5.07993 13.1423 6.79919 13.8934C7.04684 14.0015 7.18986 14.0628 7.34907 14.1035C7.50112 14.1425 7.68667 14.1667 8 14.1667C8.31333 14.1667 8.49888 14.1425 8.65093 14.1035C8.81014 14.0628 8.95316 14.0015 9.20081 13.8934C10.9201 13.1423 13.5 11.4443 13.5 7.99428V6.94448C13.5 5.87226 13.4998 5.08945 13.4693 4.52865C13.454 4.24872 13.432 4.04117 13.4029 3.89008C13.3885 3.81543 13.3737 3.76181 13.3604 3.7244C13.3487 3.69162 13.3404 3.67777 13.3391 3.67569C13.3377 3.67399 13.3281 3.66237 13.3029 3.64186C13.2731 3.61765 13.2285 3.58664 13.1638 3.54906C13.0327 3.47294 12.846 3.3852 12.5883 3.2805C12.0719 3.07074 11.3365 2.8188 10.3281 2.47362L9.94626 2.34291C8.8699 1.97447 8.43849 1.83337 8 1.83337Z" fill="#D42620"/>
</svg>
