<svg width="16" height="16" viewBox="0 0 16 16" fill="none" xmlns="http://www.w3.org/2000/svg">
<path d="M11.3332 5.33301V3.99967C11.3332 2.7426 11.3332 2.11406 10.9426 1.72353C10.5521 1.33301 9.92358 1.33301 8.6665 1.33301H7.33317C6.07609 1.33301 5.44755 1.33301 5.05703 1.72353C4.6665 2.11406 4.6665 2.7426 4.6665 3.99967V5.33301" stroke="#309DAA" stroke-width="0.666667"/>
<path d="M7.0424 3.8554C7.63923 3.52997 8.3605 3.52997 8.95733 3.8554L12.1535 5.59819C12.7961 5.94861 13.196 6.62212 13.196 7.35411V10.6459C13.196 11.3779 12.7961 12.0514 12.1535 12.4018L8.95733 14.1446C8.3605 14.47 7.63923 14.47 7.0424 14.1446L3.84625 12.4018C3.20359 12.0514 2.80371 11.3779 2.80371 10.6459V7.35411C2.80371 6.62212 3.20359 5.94861 3.84625 5.59819L7.0424 3.8554Z" stroke="#309DAA" stroke-width="0.666667"/>
<path d="M7.43063 7.68168C7.68396 7.22723 7.81063 7 8 7C8.18937 7 8.31604 7.22722 8.56937 7.68167L8.63491 7.79925C8.70689 7.92839 8.74289 7.99296 8.79901 8.03556C8.85513 8.07817 8.92503 8.09398 9.06482 8.12561L9.19209 8.15441C9.68403 8.26571 9.93 8.32136 9.98852 8.50955C10.047 8.69773 9.87935 8.89381 9.54398 9.28598L9.45722 9.38744C9.36191 9.49889 9.31426 9.55461 9.29283 9.62354C9.27139 9.69248 9.27859 9.76682 9.293 9.91551L9.30612 10.0509C9.35682 10.5741 9.38218 10.8357 9.22897 10.952C9.07576 11.0683 8.84546 10.9623 8.38487 10.7502L8.2657 10.6954C8.13481 10.6351 8.06937 10.605 8 10.605C7.93063 10.605 7.86519 10.6351 7.7343 10.6954L7.61513 10.7502C7.15453 10.9623 6.92424 11.0683 6.77103 10.952C6.61782 10.8357 6.64318 10.5741 6.69388 10.0509L6.707 9.91551C6.72141 9.76682 6.72861 9.69248 6.70717 9.62354C6.68574 9.55461 6.63809 9.49889 6.54278 9.38744L6.45602 9.28599C6.12065 8.89381 5.95296 8.69773 6.01148 8.50955C6.07 8.32136 6.31597 8.26571 6.80791 8.15441L6.93518 8.12561C7.07497 8.09398 7.14487 8.07817 7.20099 8.03556C7.25711 7.99296 7.29311 7.92839 7.36509 7.79925L7.43063 7.68168Z" stroke="#309DAA" stroke-width="0.666667"/>
</svg>
