<svg width="16" height="16" viewBox="0 0 16 16" fill="none" xmlns="http://www.w3.org/2000/svg">
<path fill-rule="evenodd" clip-rule="evenodd" d="M9.71826 1.94576C8.92513 0.684746 7.07467 0.684746 6.28153 1.94576L4.99562 3.99026C4.90156 4.1398 4.75071 4.24917 4.57359 4.29241L2.20923 4.86958C0.757399 5.22399 0.170268 6.97452 1.14681 8.11974L2.71643 9.96048C2.83164 10.0956 2.88785 10.2683 2.87518 10.4419L2.69984 12.8431C2.59047 14.3409 4.10264 15.4052 5.48066 14.8513L7.73666 13.9444C7.90531 13.8766 8.09449 13.8766 8.26314 13.9444L10.5191 14.8513C11.8972 15.4052 13.4093 14.3409 13.3 12.8431L13.1246 10.4419C13.1119 10.2683 13.1682 10.0956 13.2834 9.96048L14.853 8.11974C15.8295 6.97452 15.2424 5.22399 13.7906 4.86958L11.4262 4.29241C11.2491 4.24917 11.0982 4.1398 11.0042 3.99026L9.71826 1.94576ZM7.41018 2.65564C7.68047 2.2259 8.31932 2.2259 8.58962 2.65564L9.87553 4.70014C10.1556 5.14548 10.5992 5.46301 11.11 5.58771L13.4744 6.16488C13.9778 6.28778 14.1599 6.87758 13.8384 7.25461L12.2688 9.09535C11.9273 9.49584 11.7565 10.0138 11.7948 10.539L11.9702 12.9402C12.0058 13.4281 11.5041 13.8102 11.0164 13.6142L8.76043 12.7073C8.27266 12.5112 7.72713 12.5112 7.23936 12.7073L4.98337 13.6142C4.49573 13.8102 3.99401 13.4281 4.02963 12.9402L4.20497 10.539C4.24332 10.0138 4.07249 9.49584 3.73099 9.09535L2.16137 7.25461C1.83987 6.87758 2.02198 6.28778 2.52543 6.16488L4.88979 5.58771C5.40061 5.46301 5.84416 5.14548 6.12426 4.70014L7.41018 2.65564Z" fill="#FA6115"/>
</svg>
