<svg width="60" height="60" viewBox="0 0 60 60" fill="none" xmlns="http://www.w3.org/2000/svg">
<path fill-rule="evenodd" clip-rule="evenodd" d="M30.0008 4.99512L14.3836 5.97119C10.6643 6.20365 7.38281 8.48495 5.86931 11.8903L4.50454 14.9611C3.03244 18.2733 3.46788 22.1228 5.64265 25.0225L6.28838 25.8834L7.17796 45.4541C7.42072 50.7948 11.8214 55 17.1676 55H42.834C48.1803 55 52.5809 50.7948 52.8237 45.4541L53.697 26.2414C56.0753 24.018 56.9518 20.5497 55.8101 17.41L54.0288 12.5116C52.6696 8.77363 49.2243 6.19659 45.2547 5.94848L30.0008 4.99512ZM12.1728 45.227L11.4157 28.5717C13.5572 28.824 15.7676 28.3268 17.6376 27.0801L17.8972 26.907C19.3091 25.9658 21.1171 25.8532 22.6348 26.6121L25.5287 28.059C28.3439 29.4667 31.6577 29.4667 34.4729 28.059L37.3668 26.6121C38.8846 25.8532 40.6925 25.9658 42.1044 26.907L42.3641 27.0801C44.234 28.3268 46.4444 28.824 48.5859 28.5717L47.8288 45.227C47.7074 47.8974 45.5071 50 42.834 50H37.7178L38.2231 43.936C38.624 39.1256 34.8279 35 30.0008 35C25.1737 35 21.3776 39.1256 21.7785 43.936L22.2838 50H17.1676C14.4945 50 12.2942 47.8974 12.1728 45.227ZM45.1376 22.9199C46.5686 23.8739 48.433 23.8739 49.8641 22.9199C51.1062 22.0918 51.6213 20.5218 51.1111 19.1188L49.3298 14.2203C48.6502 12.3513 46.9276 11.0628 44.9428 10.9387L30.0008 10.0049L14.6955 10.9615C12.8359 11.0777 11.1951 12.2183 10.4384 13.921L9.07359 16.9918C8.33755 18.6479 8.55527 20.5726 9.64265 22.0225L10.4633 23.1167C11.8433 23.8687 13.5393 23.803 14.8641 22.9199L15.1237 22.7468C18.0285 20.8102 21.7483 20.5786 24.8708 22.1399L27.7647 23.5869C29.1724 24.2907 30.8292 24.2907 32.2369 23.5869L35.1308 22.1399C38.2533 20.5786 41.9731 20.8102 44.8779 22.7468L45.1376 22.9199ZM33.2404 43.5208L32.7005 50H27.3011L26.7612 43.5208C26.6033 41.6255 28.0989 40 30.0008 40C31.9027 40 33.3983 41.6255 33.2404 43.5208Z" fill="white"/>
</svg>
