<svg width="36" height="36" viewBox="0 0 36 36" fill="none" xmlns="http://www.w3.org/2000/svg">
<path fill-rule="evenodd" clip-rule="evenodd" d="M10.8675 3H25.1325C26.8708 3 27.7399 3 28.4409 3.24391C29.7702 3.70643 30.8138 4.78078 31.2631 6.14919C31.5 6.87082 31.5 7.76558 31.5 9.55509V30.5613C31.5 31.8486 30.0225 32.5317 29.0879 31.6764C28.5387 31.1739 27.7113 31.1739 27.1621 31.6764L26.4375 32.3395C25.4751 33.2202 24.0249 33.2202 23.0625 32.3395C22.1001 31.4589 20.6499 31.4589 19.6875 32.3395C18.7251 33.2202 17.2749 33.2202 16.3125 32.3395C15.3501 31.4589 13.8999 31.4589 12.9375 32.3395C11.9751 33.2202 10.5249 33.2202 9.5625 32.3395L8.83786 31.6764C8.28874 31.1739 7.46126 31.1739 6.91214 31.6764C5.9775 32.5317 4.5 31.8486 4.5 30.5613V9.55509C4.5 7.76558 4.5 6.87082 4.73693 6.14919C5.18622 4.78078 6.22983 3.70643 7.55908 3.24391C8.26006 3 9.12922 3 10.8675 3ZM22.5892 12.7493C23.003 12.2858 22.9627 11.5746 22.4993 11.1608C22.0358 10.747 21.3246 10.7873 20.9108 11.2507L16.3929 16.3109L15.0892 14.8507C14.6754 14.3873 13.9642 14.347 13.5007 14.7608C13.0373 15.1746 12.997 15.8858 13.4108 16.3493L15.5537 18.7493C15.7671 18.9883 16.0724 19.125 16.3929 19.125C16.7133 19.125 17.0186 18.9883 17.232 18.7493L22.5892 12.7493ZM11.25 22.125C10.6287 22.125 10.125 22.6287 10.125 23.25C10.125 23.8713 10.6287 24.375 11.25 24.375H24.75C25.3713 24.375 25.875 23.8713 25.875 23.25C25.875 22.6287 25.3713 22.125 24.75 22.125H11.25Z" fill="#276572"/>
</svg>
