<svg width="22" height="22" viewBox="0 0 22 22" fill="none" xmlns="http://www.w3.org/2000/svg">
<path fill-rule="evenodd" clip-rule="evenodd" d="M10.3103 1.83337C5.78319 2.16904 2.16867 5.78355 1.83301 10.3106H4.56518C4.94593 10.3106 5.25459 10.6193 5.25459 11C5.25459 11.3808 4.94593 11.6895 4.56518 11.6895H1.83301C2.16867 16.2165 5.78319 19.831 10.3103 20.1667V17.4345C10.3103 17.0538 10.6189 16.7451 10.9997 16.7451C11.3804 16.7451 11.6891 17.0538 11.6891 17.4345V20.1667C16.2162 19.831 19.8307 16.2165 20.1663 11.6895H17.4342C17.0534 11.6895 16.7448 11.3808 16.7448 11C16.7448 10.6193 17.0534 10.3106 17.4342 10.3106H20.1663C19.8307 5.78355 16.2162 2.16904 11.6891 1.83337V4.56555C11.6891 4.9463 11.3804 5.25496 10.9997 5.25496C10.6189 5.25496 10.3103 4.9463 10.3103 4.56555V1.83337ZM8.47184 11C8.47184 10.6193 8.7805 10.3106 9.16125 10.3106H10.3103V9.16161C10.3103 8.78086 10.6189 8.47221 10.9997 8.47221C11.3804 8.47221 11.6891 8.78086 11.6891 9.16161V10.3106H12.8381C13.2189 10.3106 13.5275 10.6193 13.5275 11C13.5275 11.3808 13.2189 11.6895 12.8381 11.6895H11.6891V12.8385C11.6891 13.2192 11.3804 13.5279 10.9997 13.5279C10.6189 13.5279 10.3103 13.2192 10.3103 12.8385V11.6895H9.16125C8.7805 11.6895 8.47184 11.3808 8.47184 11Z" fill="#98A2B3"/>
</svg>
