<svg width="50" height="50" viewBox="0 0 50 50" fill="none" xmlns="http://www.w3.org/2000/svg">
<g clip-path="url(#clip0_11236_8885)">
<path d="M26.1875 4.75C27.1822 4.75 28.0719 5.40456 28.3535 6.35156L28.4014 6.54395V6.5459L28.8311 8.75H35.5312C38.0547 8.75 40.209 10.5477 40.6768 13.0059L40.7158 13.2461L40.7168 13.249L40.7822 13.75H43C44.2318 13.75 45.25 14.7682 45.25 16V20C45.25 21.2318 44.2318 22.25 43 22.25H42.0117L42.1279 22.9902C43.9025 23.4892 45.25 25.0538 45.25 27V30.75H48C48.3628 30.7461 48.7032 30.9037 48.9404 31.1699C49.1797 31.4385 49.2919 31.799 49.248 32.1553V32.1592C48.7855 35.4998 49.0177 38.3483 49.3652 40.3604C49.539 41.3661 49.7409 42.1627 49.8994 42.7061C49.9787 42.9777 50.0476 43.1865 50.0957 43.3262C50.1197 43.3959 50.1385 43.4486 50.1514 43.4834C50.1578 43.5008 50.1628 43.5141 50.166 43.5225L50.1689 43.5312L50.2188 43.6787C50.311 44.0267 50.247 44.4003 50.043 44.7021C49.809 45.0483 49.419 45.2529 49 45.249V45.25H1V45.249C0.581078 45.2529 0.191018 45.0483 -0.0429688 44.7021C-0.276152 44.3571 -0.325712 43.9183 -0.168945 43.5312L-0.167969 43.5293C-0.16724 43.5275 -0.166565 43.5244 -0.165039 43.5205C-0.161781 43.5122 -0.156941 43.4987 -0.150391 43.4814C-0.13729 43.4468 -0.117277 43.3946 -0.0927734 43.3252C-0.0437568 43.1863 0.0258065 42.9791 0.106445 42.709C0.267847 42.1682 0.473302 41.375 0.649414 40.373C1.00159 38.3692 1.23414 35.53 0.75293 32.1953L0.739258 32.0674C0.722993 31.7679 0.813645 31.4655 1.00293 31.2246C1.21839 30.9504 1.53988 30.7803 1.88477 30.751L1.89551 30.75H4.75V27C4.75 25.0542 6.09704 23.4895 7.87109 22.9902L7.98828 22.25H7C5.7682 22.25 4.75 21.2318 4.75 20V16C4.75 14.7682 5.7682 13.75 7 13.75H9.21777L9.2832 13.249L9.28418 13.2461C9.65337 10.67 11.8638 8.75003 14.4688 8.75H21.1709L21.5674 6.84375H21.54L21.5986 6.54492C21.8064 5.49378 22.7526 4.75002 23.8125 4.75H26.1875ZM3.33496 33.25C3.77394 38.0186 3.08937 41.1721 2.61719 42.75H47.3848C46.923 41.1796 46.244 38.0321 46.666 33.25H3.33496ZM10.2471 24.1924V24.1934L10.1221 25.0371L10.0908 25.25H9C8.02091 25.25 7.25 26.0209 7.25 27V30.75H8.75V29C8.75 27.7682 9.7682 26.75 11 26.75H15C16.2318 26.75 17.25 27.7682 17.25 29V30.75H32.75V29C32.75 27.7682 33.7682 26.75 35 26.75H39C40.2318 26.75 41.25 27.7682 41.25 29V30.75H42.75V27C42.75 26.0209 41.9791 25.25 41 25.25H39.9092L39.8779 25.0371L39.7529 24.1934V24.1924L39.4717 22.25H10.5283L10.2471 24.1924ZM35.25 30.75H38.75V29.25H35.25V30.75ZM11.25 30.75H14.75V29.25H11.25V30.75ZM41.6553 19.75H42.75V16.25H41.1631L41.6553 19.75ZM14.4688 11.25C13.1775 11.25 12.0855 12.1187 11.7949 13.3477L11.748 13.5977L10.8818 19.75H39.1191L38.2529 13.5977C38.0597 12.2382 36.9084 11.25 35.5312 11.25H14.4688ZM7.25 19.75H8.3457L8.83789 16.25H7.25V19.75ZM23.7119 8.75H26.2881L25.9834 7.25H24.0166L23.7119 8.75Z" fill="#FA6115" stroke="#FA6115" stroke-width="0.5"/>
</g>
<defs>
<clipPath id="clip0_11236_8885">
<rect width="50" height="50" fill="white"/>
</clipPath>
</defs>
</svg>
