<svg width="20" height="20" viewBox="0 0 20 20" fill="none" xmlns="http://www.w3.org/2000/svg">
<path d="M10.5891 1.91107C10.2637 1.58563 9.73602 1.58563 9.41058 1.91107L6.07725 5.2444C5.75181 5.56984 5.75181 6.09748 6.07725 6.42291C6.40268 6.74835 6.93032 6.74835 7.25576 6.42291L9.1665 4.51217V14.167C9.1665 14.6272 9.5396 15.0003 9.99984 15.0003C10.4601 15.0003 10.8332 14.6272 10.8332 14.167V4.51217L12.7439 6.42291C13.0694 6.74835 13.597 6.74835 13.9224 6.42291C14.2479 6.09748 14.2479 5.56984 13.9224 5.2444L10.5891 1.91107Z" fill="white"/>
<path d="M3.33317 14.5837C3.33317 14.1234 2.96007 13.7503 2.49984 13.7503C2.0396 13.7503 1.6665 14.1234 1.6665 14.5837V15.8337C1.6665 17.6746 3.15889 19.167 4.99984 19.167H14.9998C16.8408 19.167 18.3332 17.6746 18.3332 15.8337V14.5837C18.3332 14.1234 17.9601 13.7503 17.4998 13.7503C17.0396 13.7503 16.6665 14.1234 16.6665 14.5837V15.8337C16.6665 16.7541 15.9203 17.5003 14.9998 17.5003H4.99984C4.07936 17.5003 3.33317 16.7541 3.33317 15.8337V14.5837Z" fill="white"/>
</svg>
