<svg width="24" height="24" viewBox="0 0 24 24" fill="none" xmlns="http://www.w3.org/2000/svg">
<g clip-path="url(#clip0_11236_8751)">
<mask id="path-1-outside-1_11236_8751" maskUnits="userSpaceOnUse" x="-0.0400391" y="0.439941" width="24" height="22" fill="black">
<rect fill="white" x="-0.0400391" y="0.439941" width="24" height="22"/>
<path d="M17.28 1.43994C16.4906 1.43994 15.84 2.09057 15.84 2.87994C15.84 3.11244 15.9056 3.32994 16.005 3.52494L12.495 6.20994L13.08 6.97494L16.71 4.19994C16.8862 4.27682 17.0775 4.31994 17.28 4.31994C17.3943 4.31994 17.5031 4.30119 17.61 4.27494L20.97 10.1249C20.7637 10.3743 20.64 10.6949 20.64 11.0399C20.64 11.2649 20.6962 11.4787 20.79 11.6699L17.85 15.5549L17.28 16.3199H21.6C22.3893 16.3199 23.04 15.6693 23.04 14.8799V12.1049C23.3325 11.8406 23.52 11.4618 23.52 11.0399C23.52 10.2506 22.8693 9.59994 22.08 9.59994C21.9806 9.59994 21.8887 9.61119 21.795 9.62994L18.42 3.76494C18.6093 3.52119 18.72 3.20994 18.72 2.87994C18.72 2.09057 18.0693 1.43994 17.28 1.43994ZM17.28 2.39994C17.55 2.39994 17.76 2.60994 17.76 2.87994C17.76 3.14994 17.55 3.35994 17.28 3.35994C17.01 3.35994 16.8 3.14994 16.8 2.87994C16.8 2.60994 17.01 2.39994 17.28 2.39994ZM7.67996 5.75994C7.15496 5.75994 6.71996 6.19494 6.71996 6.71994V9.59994H3.83996C3.05059 9.59994 2.39996 10.2506 2.39996 11.0399V13.4399C2.39996 14.2293 3.05059 14.8799 3.83996 14.8799H5.27996V15.8399H3.83996C2.25559 15.8399 0.959961 17.1356 0.959961 18.7199C0.959961 20.3043 2.25559 21.5999 3.83996 21.5999H13.44C15.0243 21.5999 16.32 20.3043 16.32 18.7199C16.32 17.1356 15.0243 15.8399 13.44 15.8399H12V14.8799H13.44C14.2293 14.8799 14.88 14.2293 14.88 13.4399V11.0549C14.88 10.6274 14.7375 10.2074 14.475 9.86994L11.7 6.31494C11.4281 5.96432 11.0193 5.75994 10.575 5.75994H7.67996ZM7.67996 6.71994H10.575C10.7231 6.71994 10.8581 6.78369 10.95 6.89994L13.725 10.4699C13.8525 10.6349 13.9162 10.8318 13.92 11.0399H8.42996L7.67996 9.91494V6.71994ZM3.83996 10.5599H6.92996L7.75496 11.7899L7.90496 11.9999H13.92V13.4399C13.92 13.7118 13.7118 13.9199 13.44 13.9199H3.83996C3.56809 13.9199 3.35996 13.7118 3.35996 13.4399V11.0399C3.35996 10.7681 3.56809 10.5599 3.83996 10.5599ZM22.08 10.5599C22.35 10.5599 22.56 10.7699 22.56 11.0399C22.56 11.3099 22.35 11.5199 22.08 11.5199C21.81 11.5199 21.6 11.3099 21.6 11.0399C21.6 10.7699 21.81 10.5599 22.08 10.5599ZM21.495 12.3449C21.675 12.4274 21.87 12.4799 22.08 12.4799V14.8799C22.08 15.1518 21.8718 15.3599 21.6 15.3599H19.215L21.495 12.3449ZM6.23996 14.8799H11.04V15.8399H6.23996V14.8799ZM3.83996 16.7999H13.44C14.505 16.7999 15.36 17.6549 15.36 18.7199C15.36 19.7849 14.505 20.6399 13.44 20.6399H3.83996C2.77496 20.6399 1.91996 19.7849 1.91996 18.7199C1.91996 17.6549 2.77496 16.7999 3.83996 16.7999ZM3.83996 17.7599C3.30934 17.7599 2.87996 18.1893 2.87996 18.7199C2.87996 19.2506 3.30934 19.6799 3.83996 19.6799C4.37059 19.6799 4.79996 19.2506 4.79996 18.7199C4.79996 18.1893 4.37059 17.7599 3.83996 17.7599ZM6.71996 17.7599C6.18934 17.7599 5.75996 18.1893 5.75996 18.7199C5.75996 19.2506 6.18934 19.6799 6.71996 19.6799C7.25059 19.6799 7.67996 19.2506 7.67996 18.7199C7.67996 18.1893 7.25059 17.7599 6.71996 17.7599ZM10.56 17.7599C10.0293 17.7599 9.59996 18.1893 9.59996 18.7199C9.59996 19.2506 10.0293 19.6799 10.56 19.6799C11.0906 19.6799 11.52 19.2506 11.52 18.7199C11.52 18.1893 11.0906 17.7599 10.56 17.7599ZM13.44 17.7599C12.9093 17.7599 12.48 18.1893 12.48 18.7199C12.48 19.2506 12.9093 19.6799 13.44 19.6799C13.9706 19.6799 14.4 19.2506 14.4 18.7199C14.4 18.1893 13.9706 17.7599 13.44 17.7599Z"/>
</mask>
<path d="M17.28 1.43994C16.4906 1.43994 15.84 2.09057 15.84 2.87994C15.84 3.11244 15.9056 3.32994 16.005 3.52494L12.495 6.20994L13.08 6.97494L16.71 4.19994C16.8862 4.27682 17.0775 4.31994 17.28 4.31994C17.3943 4.31994 17.5031 4.30119 17.61 4.27494L20.97 10.1249C20.7637 10.3743 20.64 10.6949 20.64 11.0399C20.64 11.2649 20.6962 11.4787 20.79 11.6699L17.85 15.5549L17.28 16.3199H21.6C22.3893 16.3199 23.04 15.6693 23.04 14.8799V12.1049C23.3325 11.8406 23.52 11.4618 23.52 11.0399C23.52 10.2506 22.8693 9.59994 22.08 9.59994C21.9806 9.59994 21.8887 9.61119 21.795 9.62994L18.42 3.76494C18.6093 3.52119 18.72 3.20994 18.72 2.87994C18.72 2.09057 18.0693 1.43994 17.28 1.43994ZM17.28 2.39994C17.55 2.39994 17.76 2.60994 17.76 2.87994C17.76 3.14994 17.55 3.35994 17.28 3.35994C17.01 3.35994 16.8 3.14994 16.8 2.87994C16.8 2.60994 17.01 2.39994 17.28 2.39994ZM7.67996 5.75994C7.15496 5.75994 6.71996 6.19494 6.71996 6.71994V9.59994H3.83996C3.05059 9.59994 2.39996 10.2506 2.39996 11.0399V13.4399C2.39996 14.2293 3.05059 14.8799 3.83996 14.8799H5.27996V15.8399H3.83996C2.25559 15.8399 0.959961 17.1356 0.959961 18.7199C0.959961 20.3043 2.25559 21.5999 3.83996 21.5999H13.44C15.0243 21.5999 16.32 20.3043 16.32 18.7199C16.32 17.1356 15.0243 15.8399 13.44 15.8399H12V14.8799H13.44C14.2293 14.8799 14.88 14.2293 14.88 13.4399V11.0549C14.88 10.6274 14.7375 10.2074 14.475 9.86994L11.7 6.31494C11.4281 5.96432 11.0193 5.75994 10.575 5.75994H7.67996ZM7.67996 6.71994H10.575C10.7231 6.71994 10.8581 6.78369 10.95 6.89994L13.725 10.4699C13.8525 10.6349 13.9162 10.8318 13.92 11.0399H8.42996L7.67996 9.91494V6.71994ZM3.83996 10.5599H6.92996L7.75496 11.7899L7.90496 11.9999H13.92V13.4399C13.92 13.7118 13.7118 13.9199 13.44 13.9199H3.83996C3.56809 13.9199 3.35996 13.7118 3.35996 13.4399V11.0399C3.35996 10.7681 3.56809 10.5599 3.83996 10.5599ZM22.08 10.5599C22.35 10.5599 22.56 10.7699 22.56 11.0399C22.56 11.3099 22.35 11.5199 22.08 11.5199C21.81 11.5199 21.6 11.3099 21.6 11.0399C21.6 10.7699 21.81 10.5599 22.08 10.5599ZM21.495 12.3449C21.675 12.4274 21.87 12.4799 22.08 12.4799V14.8799C22.08 15.1518 21.8718 15.3599 21.6 15.3599H19.215L21.495 12.3449ZM6.23996 14.8799H11.04V15.8399H6.23996V14.8799ZM3.83996 16.7999H13.44C14.505 16.7999 15.36 17.6549 15.36 18.7199C15.36 19.7849 14.505 20.6399 13.44 20.6399H3.83996C2.77496 20.6399 1.91996 19.7849 1.91996 18.7199C1.91996 17.6549 2.77496 16.7999 3.83996 16.7999ZM3.83996 17.7599C3.30934 17.7599 2.87996 18.1893 2.87996 18.7199C2.87996 19.2506 3.30934 19.6799 3.83996 19.6799C4.37059 19.6799 4.79996 19.2506 4.79996 18.7199C4.79996 18.1893 4.37059 17.7599 3.83996 17.7599ZM6.71996 17.7599C6.18934 17.7599 5.75996 18.1893 5.75996 18.7199C5.75996 19.2506 6.18934 19.6799 6.71996 19.6799C7.25059 19.6799 7.67996 19.2506 7.67996 18.7199C7.67996 18.1893 7.25059 17.7599 6.71996 17.7599ZM10.56 17.7599C10.0293 17.7599 9.59996 18.1893 9.59996 18.7199C9.59996 19.2506 10.0293 19.6799 10.56 19.6799C11.0906 19.6799 11.52 19.2506 11.52 18.7199C11.52 18.1893 11.0906 17.7599 10.56 17.7599ZM13.44 17.7599C12.9093 17.7599 12.48 18.1893 12.48 18.7199C12.48 19.2506 12.9093 19.6799 13.44 19.6799C13.9706 19.6799 14.4 19.2506 14.4 18.7199C14.4 18.1893 13.9706 17.7599 13.44 17.7599Z" fill="#FEAF73"/>
<path d="M17.28 1.43994C16.4906 1.43994 15.84 2.09057 15.84 2.87994C15.84 3.11244 15.9056 3.32994 16.005 3.52494L12.495 6.20994L13.08 6.97494L16.71 4.19994C16.8862 4.27682 17.0775 4.31994 17.28 4.31994C17.3943 4.31994 17.5031 4.30119 17.61 4.27494L20.97 10.1249C20.7637 10.3743 20.64 10.6949 20.64 11.0399C20.64 11.2649 20.6962 11.4787 20.79 11.6699L17.85 15.5549L17.28 16.3199H21.6C22.3893 16.3199 23.04 15.6693 23.04 14.8799V12.1049C23.3325 11.8406 23.52 11.4618 23.52 11.0399C23.52 10.2506 22.8693 9.59994 22.08 9.59994C21.9806 9.59994 21.8887 9.61119 21.795 9.62994L18.42 3.76494C18.6093 3.52119 18.72 3.20994 18.72 2.87994C18.72 2.09057 18.0693 1.43994 17.28 1.43994ZM17.28 2.39994C17.55 2.39994 17.76 2.60994 17.76 2.87994C17.76 3.14994 17.55 3.35994 17.28 3.35994C17.01 3.35994 16.8 3.14994 16.8 2.87994C16.8 2.60994 17.01 2.39994 17.28 2.39994ZM7.67996 5.75994C7.15496 5.75994 6.71996 6.19494 6.71996 6.71994V9.59994H3.83996C3.05059 9.59994 2.39996 10.2506 2.39996 11.0399V13.4399C2.39996 14.2293 3.05059 14.8799 3.83996 14.8799H5.27996V15.8399H3.83996C2.25559 15.8399 0.959961 17.1356 0.959961 18.7199C0.959961 20.3043 2.25559 21.5999 3.83996 21.5999H13.44C15.0243 21.5999 16.32 20.3043 16.32 18.7199C16.32 17.1356 15.0243 15.8399 13.44 15.8399H12V14.8799H13.44C14.2293 14.8799 14.88 14.2293 14.88 13.4399V11.0549C14.88 10.6274 14.7375 10.2074 14.475 9.86994L11.7 6.31494C11.4281 5.96432 11.0193 5.75994 10.575 5.75994H7.67996ZM7.67996 6.71994H10.575C10.7231 6.71994 10.8581 6.78369 10.95 6.89994L13.725 10.4699C13.8525 10.6349 13.9162 10.8318 13.92 11.0399H8.42996L7.67996 9.91494V6.71994ZM3.83996 10.5599H6.92996L7.75496 11.7899L7.90496 11.9999H13.92V13.4399C13.92 13.7118 13.7118 13.9199 13.44 13.9199H3.83996C3.56809 13.9199 3.35996 13.7118 3.35996 13.4399V11.0399C3.35996 10.7681 3.56809 10.5599 3.83996 10.5599ZM22.08 10.5599C22.35 10.5599 22.56 10.7699 22.56 11.0399C22.56 11.3099 22.35 11.5199 22.08 11.5199C21.81 11.5199 21.6 11.3099 21.6 11.0399C21.6 10.7699 21.81 10.5599 22.08 10.5599ZM21.495 12.3449C21.675 12.4274 21.87 12.4799 22.08 12.4799V14.8799C22.08 15.1518 21.8718 15.3599 21.6 15.3599H19.215L21.495 12.3449ZM6.23996 14.8799H11.04V15.8399H6.23996V14.8799ZM3.83996 16.7999H13.44C14.505 16.7999 15.36 17.6549 15.36 18.7199C15.36 19.7849 14.505 20.6399 13.44 20.6399H3.83996C2.77496 20.6399 1.91996 19.7849 1.91996 18.7199C1.91996 17.6549 2.77496 16.7999 3.83996 16.7999ZM3.83996 17.7599C3.30934 17.7599 2.87996 18.1893 2.87996 18.7199C2.87996 19.2506 3.30934 19.6799 3.83996 19.6799C4.37059 19.6799 4.79996 19.2506 4.79996 18.7199C4.79996 18.1893 4.37059 17.7599 3.83996 17.7599ZM6.71996 17.7599C6.18934 17.7599 5.75996 18.1893 5.75996 18.7199C5.75996 19.2506 6.18934 19.6799 6.71996 19.6799C7.25059 19.6799 7.67996 19.2506 7.67996 18.7199C7.67996 18.1893 7.25059 17.7599 6.71996 17.7599ZM10.56 17.7599C10.0293 17.7599 9.59996 18.1893 9.59996 18.7199C9.59996 19.2506 10.0293 19.6799 10.56 19.6799C11.0906 19.6799 11.52 19.2506 11.52 18.7199C11.52 18.1893 11.0906 17.7599 10.56 17.7599ZM13.44 17.7599C12.9093 17.7599 12.48 18.1893 12.48 18.7199C12.48 19.2506 12.9093 19.6799 13.44 19.6799C13.9706 19.6799 14.4 19.2506 14.4 18.7199C14.4 18.1893 13.9706 17.7599 13.44 17.7599Z" stroke="#FEAF73" stroke-width="0.48" mask="url(#path-1-outside-1_11236_8751)"/>
</g>
<defs>
<clipPath id="clip0_11236_8751">
<rect width="24" height="24" fill="white"/>
</clipPath>
</defs>
</svg>
