<svg width="20" height="20" viewBox="0 0 20 20" fill="none" xmlns="http://www.w3.org/2000/svg">
<path fill-rule="evenodd" clip-rule="evenodd" d="M9.95651 1.04102H10.0432C10.7919 1.04099 11.4163 1.04097 11.9119 1.10761C12.4351 1.17795 12.9074 1.33267 13.287 1.71223C13.6665 2.09179 13.8212 2.56412 13.8916 3.08728C13.9408 3.45362 13.9537 3.89026 13.957 4.39545C14.4974 4.4128 14.9792 4.4444 15.4074 4.50196C16.3844 4.63332 17.1752 4.91008 17.7988 5.53372C18.4224 6.15736 18.6992 6.94815 18.8306 7.92516C18.8725 8.23741 18.9007 8.57817 18.9196 8.94941C18.9446 9.0169 18.9582 9.08986 18.9582 9.16602C18.9582 9.22379 18.9503 9.27972 18.9357 9.33282C18.9582 10.0011 18.9582 10.76 18.9582 11.619V11.713C18.9582 12.5721 18.9582 13.3309 18.9357 13.9992C18.9503 14.0523 18.9582 14.1082 18.9582 14.166C18.9582 14.2422 18.9446 14.3151 18.9196 14.3826C18.9007 14.7539 18.8725 15.0946 18.8306 15.4069C18.6992 16.3839 18.4224 17.1747 17.7988 17.7983C17.1752 18.422 16.3844 18.6987 15.4074 18.8301C14.458 18.9577 13.245 18.9577 11.7135 18.9577H8.28616C6.75469 18.9577 5.54166 18.9577 4.59232 18.8301C3.6153 18.6987 2.82451 18.422 2.20087 17.7983C1.57724 17.1747 1.30047 16.3839 1.16912 15.4069C1.12714 15.0946 1.09897 14.7539 1.08006 14.3826C1.05512 14.3151 1.0415 14.2422 1.0415 14.166C1.0415 14.1082 1.04934 14.0523 1.06401 13.9992C1.04149 13.3309 1.0415 12.5721 1.0415 11.713V11.619C1.0415 10.76 1.04149 10.0011 1.06401 9.33282C1.04934 9.27972 1.0415 9.22379 1.0415 9.16602C1.0415 9.08986 1.05512 9.01689 1.08006 8.9494C1.09897 8.57817 1.12714 8.2374 1.16912 7.92516C1.30047 6.94815 1.57724 6.15736 2.20087 5.53372C2.82451 4.91008 3.6153 4.63332 4.59232 4.50196C5.02046 4.4444 5.50224 4.4128 6.04267 4.39545C6.04601 3.89026 6.05884 3.45362 6.1081 3.08728C6.17843 2.56412 6.33316 2.09179 6.71272 1.71223C7.09228 1.33267 7.56461 1.17795 8.08777 1.10761C8.58342 1.04097 9.20777 1.04099 9.95651 1.04102ZM7.293 4.37583C7.60811 4.37434 7.93895 4.37435 8.28616 4.37435H11.7135C12.0607 4.37435 12.3916 4.37434 12.7067 4.37583C12.7032 3.90056 12.6915 3.54206 12.6527 3.25384C12.601 2.86929 12.5117 2.70471 12.4031 2.59611C12.2945 2.48752 12.1299 2.39817 11.7453 2.34646C11.3428 2.29234 10.8032 2.29102 9.99984 2.29102C9.1965 2.29102 8.65686 2.29234 8.25433 2.34646C7.86978 2.39817 7.7052 2.48752 7.5966 2.59611C7.488 2.70471 7.39865 2.86929 7.34695 3.25384C7.3082 3.54206 7.29652 3.90056 7.293 4.37583ZM2.30241 9.79102C2.29177 10.335 2.2915 10.9543 2.2915 11.666C2.2915 12.3777 2.29177 12.9971 2.30241 13.541L17.6973 13.541C17.7079 12.9971 17.7082 12.3777 17.7082 11.666C17.7082 10.9543 17.7079 10.335 17.6973 9.79102L2.30241 9.79102ZM17.6401 8.54102L2.35957 8.54102C2.37292 8.38319 2.38888 8.23371 2.40797 8.09172C2.52069 7.25332 2.73208 6.77028 3.08476 6.4176C3.43743 6.06493 3.92047 5.85354 4.75888 5.74082C5.61527 5.62568 6.74415 5.62435 8.33317 5.62435H11.6665C13.2555 5.62435 14.3844 5.62568 15.2408 5.74082C16.0792 5.85354 16.5622 6.06493 16.9149 6.4176C17.2676 6.77028 17.479 7.25332 17.5917 8.09172C17.6108 8.23371 17.6268 8.38319 17.6401 8.54102ZM17.6401 14.791H2.35957C2.37292 14.9488 2.38888 15.0983 2.40797 15.2403C2.52069 16.0787 2.73208 16.5618 3.08476 16.9144C3.43743 17.2671 3.92047 17.4785 4.75888 17.5912C5.61526 17.7064 6.74415 17.7077 8.33317 17.7077H11.6665C13.2555 17.7077 14.3844 17.7064 15.2408 17.5912C16.0792 17.4785 16.5622 17.2671 16.9149 16.9144C17.2676 16.5618 17.479 16.0787 17.5917 15.2403C17.6108 15.0983 17.6268 14.9488 17.6401 14.791Z" fill="#2A8090"/>
</svg>
